<svg width="171" height="171" viewBox="0 0 171 171" fill="none" xmlns="http://www.w3.org/2000/svg">
<path d="M161.641 93.3337C166.326 93.8269 170.569 90.4238 170.592 85.713C170.658 72.1712 167.498 58.8042 161.374 46.7259C159.244 42.5243 153.926 41.3815 149.958 43.9206C145.99 46.4596 144.886 51.7174 146.911 55.971C151.072 64.7134 153.325 74.2439 153.52 83.924C153.614 88.6339 156.956 92.8405 161.641 93.3337Z" fill="#035432"/>
<path d="M148.836 42.2162C152.735 39.5726 153.784 34.2358 150.764 30.6201C142.084 20.2261 131.05 12.0462 118.581 6.76203C114.244 4.92384 109.442 7.4788 108.046 11.978C106.65 16.4772 109.196 21.2081 113.486 23.1541C122.304 27.1539 130.171 32.9861 136.561 40.2599C139.67 43.799 144.937 44.8598 148.836 42.2162Z" fill="#0053F3" fill-opacity="0.5"/>
<path d="M152.953 121.569C157.105 123.795 162.319 122.247 164.119 117.893C165.93 113.513 167.374 108.989 168.434 104.369C169.487 99.7776 166.133 95.4959 161.46 94.9062C156.786 94.3165 152.572 97.6487 151.404 102.212C150.746 104.783 149.939 107.313 148.987 109.79C147.296 114.186 148.802 119.343 152.953 121.569Z" fill="#AA01E6"/>
<path d="M106.344 11.4715C107.636 6.94119 105.014 2.17657 100.377 1.3437C91.9886 -0.163131 83.4053 -0.407069 74.9141 0.63425C63.5948 2.02238 52.6688 5.66626 42.7823 11.3504C32.8958 17.0345 24.2494 24.6434 17.3547 33.7272C12.1825 40.5415 8.07475 48.0819 5.15638 56.0895C3.54332 60.5155 6.34152 65.179 10.9065 66.3421C15.4714 67.5053 20.0653 64.7199 21.7885 60.3355C24.0733 54.5224 27.1505 49.0377 30.943 44.0411C36.4589 36.7741 43.3759 30.6869 51.2852 26.1396C59.1944 21.5923 67.9352 18.6772 76.9906 17.5667C83.2169 16.8032 89.505 16.9034 95.6783 17.8537C100.334 18.5704 105.053 16.0017 106.344 11.4715Z" fill="#0053F3"/>
<path d="M151.819 123.61C155.901 125.961 157.338 131.207 154.591 135.034C144.433 149.188 130.135 159.951 113.569 165.771C94.3101 172.537 73.2629 172.172 54.25 164.742C35.237 157.312 19.5191 143.31 9.95075 125.278C1.72069 109.768 -1.49035 92.1622 0.639389 74.871C1.21526 70.1955 5.8281 67.3138 10.4227 68.3535C15.0174 69.3932 17.8423 73.9632 17.3835 78.6516C16.0835 91.9365 18.7047 105.381 25.0199 117.282C32.6746 131.707 45.2489 142.909 60.4593 148.853C75.6697 154.797 92.5074 155.089 107.915 149.676C120.626 145.21 131.668 137.106 139.72 126.46C142.562 122.703 147.737 121.259 151.819 123.61Z" fill="#00A25E"/>
</svg>
