<svg width="320" height="387" viewBox="0 0 320 387" fill="none" xmlns="http://www.w3.org/2000/svg">
<path d="M156.17 9.7936C157.021 5.16036 153.953 0.669003 149.258 0.284458C135.762 -0.820983 122.191 1.30416 109.679 6.48283C105.326 8.28432 103.779 13.4984 106.006 17.6495C108.233 21.8007 113.39 23.3051 117.787 21.613C126.822 18.1353 136.498 16.6201 146.164 17.1689C150.868 17.4359 155.318 14.4268 156.17 9.7936Z" fill="#0053F3" fill-opacity="0.5"/>
<path d="M201.111 35.9604C204.72 32.9329 205.219 27.517 201.846 24.2281C192.151 14.7737 180.34 7.76185 167.398 3.77687C162.895 2.39063 158.38 5.42197 157.45 10.0401C156.52 14.6582 159.535 19.1047 164.001 20.6031C173.181 23.6827 181.602 28.6821 188.7 35.2663C192.154 38.4698 197.502 38.988 201.111 35.9604Z" fill="#00A25E" fill-opacity="0.5"/>
<path d="M218.141 73.4299C222.795 72.7017 226.02 68.3222 224.831 63.764C222.517 54.8976 218.79 46.4609 213.793 38.7802C211.224 34.8316 205.815 34.2666 202.142 37.217C198.47 40.1674 197.937 45.5133 200.406 49.5249C203.65 54.7937 206.161 60.4796 207.873 66.4253C209.175 70.9524 213.487 74.1581 218.141 73.4299Z" fill="#AA01E6"/>
<path d="M104.624 18.409C102.312 14.3044 97.0811 12.8172 93.2278 15.5272C86.0519 20.574 79.6833 26.7078 74.3582 33.7225C69.0332 40.7372 64.8371 48.5202 61.905 56.7886C60.3306 61.2285 63.1693 65.8675 67.7442 66.9909C72.3191 68.1142 76.8886 65.2888 78.5735 60.8897C80.8791 54.8703 84.0311 49.1942 87.9459 44.0373C91.8607 38.8804 96.4805 34.3186 101.659 30.4798C105.443 27.6743 106.936 22.5135 104.624 18.409Z" fill="#0053F3"/>
<path d="M138.285 161.959C138.039 166.663 134.014 170.321 129.357 169.606C119.949 168.162 110.828 165.15 102.381 160.677C91.4151 154.871 81.8482 146.741 74.3476 136.857C66.847 126.972 61.5933 115.57 58.9531 103.445C56.9194 94.1058 56.4741 84.5109 57.6163 75.0612C58.1816 70.3845 62.7878 67.4928 67.3848 68.5222C71.9817 69.5515 74.8171 74.1149 74.3689 78.8043C73.6989 85.8137 74.1163 92.9021 75.6218 99.8156C77.734 109.515 81.9369 118.637 87.9374 126.545C93.9378 134.452 101.591 140.956 110.364 145.601C116.617 148.912 123.331 151.223 130.262 152.464C134.899 153.295 138.531 157.254 138.285 161.959Z" fill="#00A25E"/>
<path d="M138.285 161.959C138.039 166.663 134.014 170.321 129.357 169.606C114.657 167.35 100.749 161.28 89.0526 151.934C77.3565 142.589 68.3662 130.364 62.9216 116.524C61.197 112.14 63.8762 107.407 68.4102 106.128C72.9443 104.85 77.6073 107.519 79.4409 111.858C83.8452 122.28 90.7921 131.488 99.7014 138.607C108.611 145.725 119.125 150.469 130.262 152.464C134.899 153.295 138.531 157.254 138.285 161.959Z" fill="#DBFF00" fill-opacity="0.35"/>
<path d="M218.327 74.6848C222.992 74.0336 227.347 77.2912 227.529 81.9984C227.897 91.5098 226.672 101.036 223.883 110.179C220.263 122.048 214.098 132.984 205.816 142.224C197.535 151.465 187.337 158.787 175.934 163.68C167.151 167.45 157.815 169.708 148.32 170.38C143.621 170.713 139.907 166.739 140.046 162.031C140.184 157.322 144.126 153.672 148.815 153.222C155.824 152.549 162.705 150.794 169.207 148.004C178.329 144.089 186.487 138.231 193.112 130.839C199.738 123.446 204.67 114.698 207.566 105.203C209.63 98.4348 210.624 91.4041 210.527 84.3634C210.463 79.653 213.661 75.336 218.327 74.6848Z" fill="#AA01E6" fill-opacity="0.5"/>
<path d="M17.04 222.1C16.6 222.1 16.2167 222.017 15.89 221.85C15.57 221.683 15.32 221.443 15.14 221.13C14.9667 220.81 14.88 220.433 14.88 220V216.7C14.88 216.26 14.9667 215.883 15.14 215.57C15.32 215.257 15.57 215.017 15.89 214.85C16.2167 214.683 16.6 214.6 17.04 214.6C17.48 214.6 17.86 214.687 18.18 214.86C18.5 215.027 18.7467 215.267 18.92 215.58C19.0933 215.893 19.18 216.267 19.18 216.7H18.28C18.28 216.287 18.17 215.97 17.95 215.75C17.7367 215.523 17.4333 215.41 17.04 215.41C16.6467 215.41 16.3367 215.52 16.11 215.74C15.89 215.96 15.78 216.277 15.78 216.69V220C15.78 220.413 15.89 220.733 16.11 220.96C16.3367 221.18 16.6467 221.29 17.04 221.29C17.4333 221.29 17.7367 221.18 17.95 220.96C18.17 220.733 18.28 220.413 18.28 220H19.18C19.18 220.427 19.0933 220.8 18.92 221.12C18.7467 221.433 18.5 221.677 18.18 221.85C17.86 222.017 17.48 222.1 17.04 222.1ZM20.9261 222V214.7H21.8261V217.82H24.1661V214.7H25.0661V222H24.1661V218.64H21.8261V222H20.9261ZM27.0922 222V214.7H31.3422V215.52H27.9922V222H27.0922ZM40.8744 222.1C40.4344 222.1 40.0477 222.013 39.7144 221.84C39.3877 221.66 39.1344 221.413 38.9544 221.1C38.7744 220.787 38.6844 220.42 38.6844 220H39.5844C39.5844 220.407 39.6977 220.727 39.9244 220.96C40.1577 221.187 40.4777 221.3 40.8844 221.3C41.2977 221.3 41.6177 221.18 41.8444 220.94C42.071 220.7 42.1844 220.387 42.1844 220V219.48C42.1844 219.067 42.071 218.747 41.8444 218.52C41.6177 218.293 41.2977 218.18 40.8844 218.18H40.1344V217.28L41.9444 215.52H38.9844V214.7H42.8544V215.6L40.9044 217.49V217.38C41.571 217.38 42.101 217.57 42.4944 217.95C42.8877 218.33 43.0844 218.84 43.0844 219.48V220C43.0844 220.42 42.991 220.787 42.8044 221.1C42.6244 221.413 42.3677 221.66 42.0344 221.84C41.701 222.013 41.3144 222.1 40.8744 222.1ZM46.9805 222.1C46.5338 222.1 46.1438 222.013 45.8105 221.84C45.4838 221.66 45.2305 221.41 45.0505 221.09C44.8705 220.763 44.7805 220.383 44.7805 219.95V216.75C44.7805 216.31 44.8705 215.93 45.0505 215.61C45.2305 215.29 45.4838 215.043 45.8105 214.87C46.1438 214.69 46.5338 214.6 46.9805 214.6C47.4338 214.6 47.8238 214.69 48.1505 214.87C48.4771 215.043 48.7305 215.29 48.9105 215.61C49.0905 215.93 49.1805 216.31 49.1805 216.75V219.95C49.1805 220.383 49.0905 220.763 48.9105 221.09C48.7305 221.41 48.4738 221.66 48.1405 221.84C47.8138 222.013 47.4271 222.1 46.9805 222.1ZM46.9805 221.33C47.3805 221.33 47.7005 221.203 47.9405 220.95C48.1871 220.69 48.3105 220.357 48.3105 219.95V216.75C48.3105 216.343 48.1871 216.013 47.9405 215.76C47.7005 215.5 47.3805 215.37 46.9805 215.37C46.5805 215.37 46.2571 215.5 46.0105 215.76C45.7705 216.013 45.6505 216.343 45.6505 216.75V219.95C45.6505 220.357 45.7705 220.69 46.0105 220.95C46.2571 221.203 46.5805 221.33 46.9805 221.33ZM46.9805 218.94C46.8005 218.94 46.6538 218.883 46.5405 218.77C46.4338 218.657 46.3805 218.507 46.3805 218.32C46.3805 218.14 46.4338 217.997 46.5405 217.89C46.6538 217.777 46.8005 217.72 46.9805 217.72C47.1605 217.72 47.3038 217.777 47.4105 217.89C47.5238 217.997 47.5805 218.14 47.5805 218.32C47.5805 218.507 47.5238 218.657 47.4105 218.77C47.3038 218.883 47.1605 218.94 46.9805 218.94ZM50.1166 222L55.0966 214.7H55.8366L50.8566 222H50.1166ZM54.4266 222.05C54.0066 222.05 53.6699 221.93 53.4166 221.69C53.1632 221.45 53.0366 221.12 53.0366 220.7V220.05C53.0366 219.63 53.1632 219.3 53.4166 219.06C53.6699 218.82 54.0066 218.7 54.4266 218.7C54.8466 218.7 55.1832 218.82 55.4366 219.06C55.6899 219.3 55.8166 219.63 55.8166 220.05V220.7C55.8166 221.12 55.6899 221.45 55.4366 221.69C55.1832 221.93 54.8466 222.05 54.4266 222.05ZM54.4266 221.36C54.8599 221.36 55.0766 221.14 55.0766 220.7V220.05C55.0766 219.603 54.8599 219.38 54.4266 219.38C53.9932 219.38 53.7766 219.603 53.7766 220.05V220.7C53.7766 221.14 53.9932 221.36 54.4266 221.36ZM51.5266 218C51.1066 218 50.7699 217.88 50.5166 217.64C50.2632 217.4 50.1366 217.07 50.1366 216.65V216C50.1366 215.58 50.2632 215.25 50.5166 215.01C50.7699 214.77 51.1066 214.65 51.5266 214.65C51.9466 214.65 52.2832 214.77 52.5366 215.01C52.7899 215.25 52.9166 215.58 52.9166 216V216.65C52.9166 217.07 52.7899 217.4 52.5366 217.64C52.2832 217.88 51.9466 218 51.5266 218ZM51.5266 217.32C51.9599 217.32 52.1766 217.097 52.1766 216.65V216C52.1766 215.553 51.9599 215.33 51.5266 215.33C51.3132 215.33 51.1499 215.387 51.0366 215.5C50.9299 215.607 50.8766 215.773 50.8766 216V216.65C50.8766 216.877 50.9299 217.047 51.0366 217.16C51.1499 217.267 51.3132 217.32 51.5266 217.32ZM66.8188 223.2C65.8721 222.967 65.1354 222.507 64.6087 221.82C64.0821 221.133 63.8188 220.293 63.8188 219.3V217.5C63.8188 216.847 63.9388 216.257 64.1788 215.73C64.4254 215.197 64.7721 214.747 65.2188 214.38C65.6721 214.013 66.2054 213.753 66.8188 213.6V214.45C66.3921 214.55 66.0221 214.743 65.7088 215.03C65.3954 215.31 65.1521 215.66 64.9788 216.08C64.8054 216.5 64.7188 216.973 64.7188 217.5V219.3C64.7188 219.813 64.8021 220.28 64.9688 220.7C65.1421 221.12 65.3854 221.47 65.6988 221.75C66.0188 222.023 66.3921 222.21 66.8188 222.31V223.2ZM68.8648 222V221.18H70.8448V215.45L68.8648 216.93V215.93L70.5148 214.7H71.7448V221.18H73.3648V222H68.8648ZM76.9609 222.1C76.5143 222.1 76.1243 222.013 75.7909 221.84C75.4643 221.66 75.2109 221.41 75.0309 221.09C74.8509 220.763 74.7609 220.383 74.7609 219.95V216.75C74.7609 216.31 74.8509 215.93 75.0309 215.61C75.2109 215.29 75.4643 215.043 75.7909 214.87C76.1243 214.69 76.5143 214.6 76.9609 214.6C77.4143 214.6 77.8043 214.69 78.1309 214.87C78.4576 215.043 78.7109 215.29 78.8909 215.61C79.0709 215.93 79.1609 216.31 79.1609 216.75V219.95C79.1609 220.383 79.0709 220.763 78.8909 221.09C78.7109 221.41 78.4543 221.66 78.1209 221.84C77.7943 222.013 77.4076 222.1 76.9609 222.1ZM76.9609 221.33C77.3609 221.33 77.6809 221.203 77.9209 220.95C78.1676 220.69 78.2909 220.357 78.2909 219.95V216.75C78.2909 216.343 78.1676 216.013 77.9209 215.76C77.6809 215.5 77.3609 215.37 76.9609 215.37C76.5609 215.37 76.2376 215.5 75.9909 215.76C75.7509 216.013 75.6309 216.343 75.6309 216.75V219.95C75.6309 220.357 75.7509 220.69 75.9909 220.95C76.2376 221.203 76.5609 221.33 76.9609 221.33ZM76.9609 218.94C76.7809 218.94 76.6343 218.883 76.5209 218.77C76.4143 218.657 76.3609 218.507 76.3609 218.32C76.3609 218.14 76.4143 217.997 76.5209 217.89C76.6343 217.777 76.7809 217.72 76.9609 217.72C77.1409 217.72 77.2843 217.777 77.3909 217.89C77.5043 217.997 77.5609 218.14 77.5609 218.32C77.5609 218.507 77.5043 218.657 77.3909 218.77C77.2843 218.883 77.1409 218.94 76.9609 218.94ZM81.607 223.6L82.407 220.49H83.707L82.407 223.6H81.607ZM88.9531 222.1C88.5065 222.1 88.1165 222.023 87.7831 221.87C87.4565 221.71 87.2031 221.483 87.0231 221.19C86.8431 220.897 86.7531 220.553 86.7531 220.16C86.7531 219.727 86.8698 219.353 87.1031 219.04C87.3431 218.727 87.7198 218.447 88.2331 218.2L89.2031 217.73C89.4965 217.59 89.7231 217.407 89.8831 217.18C90.0431 216.953 90.1231 216.703 90.1231 216.43C90.1231 216.11 90.0165 215.857 89.8031 215.67C89.5965 215.483 89.3131 215.39 88.9531 215.39C88.5931 215.39 88.3065 215.487 88.0931 215.68C87.8865 215.867 87.7831 216.12 87.7831 216.44C87.7831 216.707 87.8598 216.953 88.0131 217.18C88.1731 217.407 88.3898 217.587 88.6631 217.72L89.6331 218.18C90.1665 218.427 90.5531 218.71 90.7931 219.03C91.0331 219.343 91.1531 219.72 91.1531 220.16C91.1531 220.753 90.9531 221.227 90.5531 221.58C90.1598 221.927 89.6265 222.1 88.9531 222.1ZM88.9531 221.3C89.3598 221.3 89.6798 221.197 89.9131 220.99C90.1531 220.777 90.2731 220.493 90.2731 220.14C90.2731 219.853 90.1965 219.593 90.0431 219.36C89.8898 219.127 89.6698 218.94 89.3831 218.8L88.4231 218.33C87.8898 218.07 87.5031 217.79 87.2631 217.49C87.0231 217.19 86.9031 216.83 86.9031 216.41C86.9031 216.037 86.9865 215.713 87.1531 215.44C87.3198 215.167 87.5565 214.957 87.8631 214.81C88.1698 214.663 88.5331 214.59 88.9531 214.59C89.3731 214.59 89.7365 214.663 90.0431 214.81C90.3498 214.957 90.5865 215.167 90.7531 215.44C90.9198 215.713 91.0031 216.037 91.0031 216.41C91.0031 216.83 90.8831 217.19 90.6431 217.49C90.4031 217.783 90.0065 218.067 89.4531 218.34L88.4931 218.81C88.2198 218.943 88.0065 219.127 87.8531 219.36C87.7065 219.587 87.6331 219.84 87.6331 220.12C87.6331 220.48 87.7498 220.767 87.9831 220.98C88.2231 221.193 88.5465 221.3 88.9531 221.3ZM98.7053 222V216.5H99.9253L100.645 218.61C100.719 218.823 100.785 219.037 100.845 219.25C100.905 219.457 100.949 219.617 100.975 219.73C101.002 219.617 101.042 219.457 101.095 219.25C101.155 219.037 101.219 218.82 101.285 218.6L101.965 216.5H103.185V222H102.315V221.15C102.315 220.85 102.319 220.523 102.325 220.17C102.332 219.817 102.339 219.46 102.345 219.1C102.359 218.74 102.372 218.4 102.385 218.08C102.399 217.753 102.409 217.467 102.415 217.22L101.435 220.35H100.485L99.4953 217.24C99.5086 217.54 99.5186 217.913 99.5253 218.36C99.5386 218.807 99.5486 219.273 99.5553 219.76C99.5686 220.247 99.5753 220.71 99.5753 221.15V222H98.7053ZM104.191 222.07V221.23H104.371C104.678 221.23 104.891 221.11 105.011 220.87C105.138 220.63 105.205 220.2 105.211 219.58L105.271 216.5H109.001V222H108.101V217.32H106.161L106.111 219.62C106.098 220.2 106.031 220.67 105.911 221.03C105.798 221.39 105.618 221.653 105.371 221.82C105.131 221.987 104.815 222.07 104.421 222.07H104.191ZM110.878 222V216.5H111.778V218.79H114.098V216.5H114.998V222H114.098V219.61H111.778V222H110.878ZM117.084 223.2V222.31C117.517 222.21 117.89 222.023 118.204 221.75C118.517 221.47 118.757 221.12 118.924 220.7C119.097 220.28 119.184 219.813 119.184 219.3V217.5C119.184 216.973 119.097 216.5 118.924 216.08C118.75 215.66 118.507 215.31 118.194 215.03C117.88 214.743 117.51 214.55 117.084 214.45V213.6C117.704 213.753 118.237 214.013 118.684 214.38C119.13 214.747 119.474 215.197 119.714 215.73C119.96 216.257 120.084 216.847 120.084 217.5V219.3C120.084 220.293 119.82 221.133 119.294 221.82C118.767 222.507 118.03 222.967 117.084 223.2Z" fill="white"/>
<circle cx="4" cy="219" r="4" fill="#00A25E"/>
<path d="M14.92 249V241.7H17.27C17.7233 241.7 18.1167 241.79 18.45 241.97C18.7833 242.143 19.04 242.39 19.22 242.71C19.4067 243.03 19.5 243.41 19.5 243.85C19.5 244.283 19.4067 244.663 19.22 244.99C19.04 245.31 18.7833 245.56 18.45 245.74C18.1167 245.913 17.7233 246 17.27 246H15.82V249H14.92ZM15.82 245.19H17.27C17.6633 245.19 17.9767 245.07 18.21 244.83C18.45 244.583 18.57 244.257 18.57 243.85C18.57 243.437 18.45 243.11 18.21 242.87C17.9767 242.63 17.6633 242.51 17.27 242.51H15.82V245.19ZM22.9961 249.08C22.5561 249.08 22.1761 248.997 21.8561 248.83C21.5361 248.663 21.2861 248.423 21.1061 248.11C20.9328 247.79 20.8461 247.413 20.8461 246.98V245.52C20.8461 245.08 20.9328 244.703 21.1061 244.39C21.2861 244.077 21.5361 243.837 21.8561 243.67C22.1761 243.503 22.5561 243.42 22.9961 243.42C23.4361 243.42 23.8161 243.503 24.1361 243.67C24.4561 243.837 24.7028 244.077 24.8761 244.39C25.0561 244.703 25.1461 245.077 25.1461 245.51V246.98C25.1461 247.413 25.0561 247.79 24.8761 248.11C24.7028 248.423 24.4561 248.663 24.1361 248.83C23.8161 248.997 23.4361 249.08 22.9961 249.08ZM22.9961 248.28C23.3894 248.28 23.6961 248.17 23.9161 247.95C24.1361 247.73 24.2461 247.407 24.2461 246.98V245.52C24.2461 245.093 24.1361 244.77 23.9161 244.55C23.6961 244.33 23.3894 244.22 22.9961 244.22C22.6094 244.22 22.3028 244.33 22.0761 244.55C21.8561 244.77 21.7461 245.093 21.7461 245.52V246.98C21.7461 247.407 21.8561 247.73 22.0761 247.95C22.3028 248.17 22.6094 248.28 22.9961 248.28ZM29.0122 249.1C28.5722 249.1 28.1855 249.017 27.8522 248.85C27.5255 248.683 27.2722 248.443 27.0922 248.13C26.9122 247.81 26.8222 247.433 26.8222 247V245.5C26.8222 245.06 26.9122 244.683 27.0922 244.37C27.2722 244.057 27.5255 243.817 27.8522 243.65C28.1855 243.483 28.5722 243.4 29.0122 243.4C29.6455 243.4 30.1555 243.57 30.5422 243.91C30.9289 244.25 31.1322 244.713 31.1522 245.3H30.2522C30.2322 244.947 30.1122 244.677 29.8922 244.49C29.6789 244.297 29.3855 244.2 29.0122 244.2C28.6189 244.2 28.3055 244.313 28.0722 244.54C27.8389 244.76 27.7222 245.077 27.7222 245.49V247C27.7222 247.413 27.8389 247.733 28.0722 247.96C28.3055 248.187 28.6189 248.3 29.0122 248.3C29.3855 248.3 29.6789 248.203 29.8922 248.01C30.1122 247.817 30.2322 247.547 30.2522 247.2H31.1522C31.1322 247.787 30.9289 248.25 30.5422 248.59C30.1555 248.93 29.6455 249.1 29.0122 249.1ZM35.0083 249.1C34.5683 249.1 34.1816 249.017 33.8483 248.85C33.5216 248.683 33.2683 248.443 33.0883 248.13C32.9083 247.81 32.8183 247.433 32.8183 247V245.5C32.8183 245.06 32.9083 244.683 33.0883 244.37C33.2683 244.057 33.5216 243.817 33.8483 243.65C34.1816 243.483 34.5683 243.4 35.0083 243.4C35.6416 243.4 36.1516 243.57 36.5383 243.91C36.9249 244.25 37.1283 244.713 37.1483 245.3H36.2483C36.2283 244.947 36.1083 244.677 35.8883 244.49C35.6749 244.297 35.3816 244.2 35.0083 244.2C34.6149 244.2 34.3016 244.313 34.0683 244.54C33.8349 244.76 33.7183 245.077 33.7183 245.49V247C33.7183 247.413 33.8349 247.733 34.0683 247.96C34.3016 248.187 34.6149 248.3 35.0083 248.3C35.3816 248.3 35.6749 248.203 35.8883 248.01C36.1083 247.817 36.2283 247.547 36.2483 247.2H37.1483C37.1283 247.787 36.9249 248.25 36.5383 248.59C36.1516 248.93 35.6416 249.1 35.0083 249.1ZM38.9244 249V243.5H39.7844V246.5C39.7844 246.693 39.7777 246.897 39.7644 247.11C39.7577 247.323 39.7444 247.527 39.7244 247.72C39.711 247.907 39.6944 248.067 39.6744 248.2L41.8944 243.5H43.0444V249H42.1844V246C42.1844 245.807 42.1877 245.603 42.1944 245.39C42.2077 245.177 42.2244 244.973 42.2444 244.78C42.2644 244.58 42.281 244.417 42.2944 244.29L40.0744 249H38.9244ZM44.5805 249L45.9905 246.88C45.5705 246.78 45.2438 246.587 45.0105 246.3C44.7838 246.013 44.6705 245.657 44.6705 245.23C44.6705 244.69 44.8471 244.267 45.2005 243.96C45.5605 243.653 46.0505 243.5 46.6705 243.5H49.0405V249H48.1405V246.95H46.9305L45.6305 249H44.5805ZM46.6705 246.15H48.1405V244.3H46.6705C46.3371 244.3 46.0738 244.383 45.8805 244.55C45.6871 244.71 45.5905 244.937 45.5905 245.23C45.5905 245.517 45.6871 245.743 45.8805 245.91C46.0738 246.07 46.3371 246.15 46.6705 246.15ZM56.8927 249V248.08L59.1227 245.71C59.5027 245.303 59.7793 244.943 59.9527 244.63C60.126 244.31 60.2127 244.003 60.2127 243.71C60.2127 243.303 60.0993 242.983 59.8727 242.75C59.6527 242.517 59.3493 242.4 58.9627 242.4C58.536 242.4 58.1993 242.52 57.9527 242.76C57.7127 243 57.5927 243.33 57.5927 243.75H56.6927C56.706 243.31 56.806 242.93 56.9927 242.61C57.186 242.283 57.4493 242.033 57.7827 241.86C58.1227 241.687 58.516 241.6 58.9627 241.6C59.4027 241.6 59.7827 241.687 60.1027 241.86C60.4293 242.027 60.6793 242.267 60.8527 242.58C61.026 242.893 61.1127 243.267 61.1127 243.7C61.1127 244.113 61.0027 244.523 60.7827 244.93C60.5627 245.337 60.2027 245.8 59.7027 246.32L57.9027 248.18H61.2327V249H56.8927ZM64.9688 249.1C64.5221 249.1 64.1321 249.013 63.7988 248.84C63.4721 248.66 63.2188 248.41 63.0388 248.09C62.8588 247.763 62.7688 247.383 62.7688 246.95V243.75C62.7688 243.31 62.8588 242.93 63.0388 242.61C63.2188 242.29 63.4721 242.043 63.7988 241.87C64.1321 241.69 64.5221 241.6 64.9688 241.6C65.4221 241.6 65.8121 241.69 66.1388 241.87C66.4654 242.043 66.7188 242.29 66.8988 242.61C67.0788 242.93 67.1688 243.31 67.1688 243.75V246.95C67.1688 247.383 67.0788 247.763 66.8988 248.09C66.7188 248.41 66.4621 248.66 66.1288 248.84C65.8021 249.013 65.4154 249.1 64.9688 249.1ZM64.9688 248.33C65.3688 248.33 65.6888 248.203 65.9288 247.95C66.1754 247.69 66.2988 247.357 66.2988 246.95V243.75C66.2988 243.343 66.1754 243.013 65.9288 242.76C65.6888 242.5 65.3688 242.37 64.9688 242.37C64.5688 242.37 64.2454 242.5 63.9988 242.76C63.7588 243.013 63.6388 243.343 63.6388 243.75V246.95C63.6388 247.357 63.7588 247.69 63.9988 247.95C64.2454 248.203 64.5688 248.33 64.9688 248.33ZM64.9688 245.94C64.7888 245.94 64.6421 245.883 64.5288 245.77C64.4221 245.657 64.3688 245.507 64.3688 245.32C64.3688 245.14 64.4221 244.997 64.5288 244.89C64.6421 244.777 64.7888 244.72 64.9688 244.72C65.1488 244.72 65.2921 244.777 65.3988 244.89C65.5121 244.997 65.5688 245.14 65.5688 245.32C65.5688 245.507 65.5121 245.657 65.3988 245.77C65.2921 245.883 65.1488 245.94 64.9688 245.94ZM68.1048 249L73.0848 241.7H73.8248L68.8448 249H68.1048ZM72.4148 249.05C71.9948 249.05 71.6582 248.93 71.4048 248.69C71.1515 248.45 71.0248 248.12 71.0248 247.7V247.05C71.0248 246.63 71.1515 246.3 71.4048 246.06C71.6582 245.82 71.9948 245.7 72.4148 245.7C72.8348 245.7 73.1715 245.82 73.4248 246.06C73.6782 246.3 73.8048 246.63 73.8048 247.05V247.7C73.8048 248.12 73.6782 248.45 73.4248 248.69C73.1715 248.93 72.8348 249.05 72.4148 249.05ZM72.4148 248.36C72.8482 248.36 73.0648 248.14 73.0648 247.7V247.05C73.0648 246.603 72.8482 246.38 72.4148 246.38C71.9815 246.38 71.7648 246.603 71.7648 247.05V247.7C71.7648 248.14 71.9815 248.36 72.4148 248.36ZM69.5148 245C69.0948 245 68.7582 244.88 68.5048 244.64C68.2515 244.4 68.1248 244.07 68.1248 243.65V243C68.1248 242.58 68.2515 242.25 68.5048 242.01C68.7582 241.77 69.0948 241.65 69.5148 241.65C69.9348 241.65 70.2715 241.77 70.5248 242.01C70.7782 242.25 70.9048 242.58 70.9048 243V243.65C70.9048 244.07 70.7782 244.4 70.5248 244.64C70.2715 244.88 69.9348 245 69.5148 245ZM69.5148 244.32C69.9482 244.32 70.1648 244.097 70.1648 243.65V243C70.1648 242.553 69.9482 242.33 69.5148 242.33C69.3015 242.33 69.1382 242.387 69.0248 242.5C68.9182 242.607 68.8648 242.773 68.8648 243V243.65C68.8648 243.877 68.9182 244.047 69.0248 244.16C69.1382 244.267 69.3015 244.32 69.5148 244.32ZM84.807 250.2C83.8604 249.967 83.1237 249.507 82.597 248.82C82.0704 248.133 81.807 247.293 81.807 246.3V244.5C81.807 243.847 81.927 243.257 82.167 242.73C82.4137 242.197 82.7604 241.747 83.207 241.38C83.6604 241.013 84.1937 240.753 84.807 240.6V241.45C84.3804 241.55 84.0104 241.743 83.697 242.03C83.3837 242.31 83.1404 242.66 82.967 243.08C82.7937 243.5 82.707 243.973 82.707 244.5V246.3C82.707 246.813 82.7904 247.28 82.957 247.7C83.1304 248.12 83.3737 248.47 83.687 248.75C84.007 249.023 84.3804 249.21 84.807 249.31V250.2ZM87.8031 249L90.4131 242.52H87.6531V243.6H86.7531V241.7H91.3031V242.58L88.7731 249H87.8031ZM93.5992 250.6L94.3992 247.49H95.6992L94.3992 250.6H93.5992ZM98.8653 249V248.08L101.095 245.71C101.475 245.303 101.752 244.943 101.925 244.63C102.099 244.31 102.185 244.003 102.185 243.71C102.185 243.303 102.072 242.983 101.845 242.75C101.625 242.517 101.322 242.4 100.935 242.4C100.509 242.4 100.172 242.52 99.9253 242.76C99.6853 243 99.5653 243.33 99.5653 243.75H98.6653C98.6786 243.31 98.7786 242.93 98.9653 242.61C99.1586 242.283 99.422 242.033 99.7553 241.86C100.095 241.687 100.489 241.6 100.935 241.6C101.375 241.6 101.755 241.687 102.075 241.86C102.402 242.027 102.652 242.267 102.825 242.58C102.999 242.893 103.085 243.267 103.085 243.7C103.085 244.113 102.975 244.523 102.755 244.93C102.535 245.337 102.175 245.8 101.675 246.32L99.8753 248.18H103.205V249H98.8653ZM110.698 249V243.5H111.918L112.638 245.61C112.711 245.823 112.778 246.037 112.838 246.25C112.898 246.457 112.941 246.617 112.968 246.73C112.994 246.617 113.034 246.457 113.088 246.25C113.148 246.037 113.211 245.82 113.278 245.6L113.958 243.5H115.178V249H114.308V248.15C114.308 247.85 114.311 247.523 114.318 247.17C114.324 246.817 114.331 246.46 114.338 246.1C114.351 245.74 114.364 245.4 114.378 245.08C114.391 244.753 114.401 244.467 114.408 244.22L113.428 247.35H112.478L111.488 244.24C111.501 244.54 111.511 244.913 111.518 245.36C111.531 245.807 111.541 246.273 111.548 246.76C111.561 247.247 111.568 247.71 111.568 248.15V249H110.698ZM116.184 249.07V248.23H116.364C116.67 248.23 116.884 248.11 117.004 247.87C117.13 247.63 117.197 247.2 117.204 246.58L117.264 243.5H120.994V249H120.094V244.32H118.154L118.104 246.62C118.09 247.2 118.024 247.67 117.904 248.03C117.79 248.39 117.61 248.653 117.364 248.82C117.124 248.987 116.807 249.07 116.414 249.07H116.184ZM122.87 249V243.5H123.77V245.79H126.09V243.5H126.99V249H126.09V246.61H123.77V249H122.87ZM129.076 250.2V249.31C129.509 249.21 129.882 249.023 130.196 248.75C130.509 248.47 130.749 248.12 130.916 247.7C131.089 247.28 131.176 246.813 131.176 246.3V244.5C131.176 243.973 131.089 243.5 130.916 243.08C130.742 242.66 130.499 242.31 130.186 242.03C129.872 241.743 129.502 241.55 129.076 241.45V240.6C129.696 240.753 130.229 241.013 130.676 241.38C131.122 241.747 131.466 242.197 131.706 242.73C131.952 243.257 132.076 243.847 132.076 244.5V246.3C132.076 247.293 131.812 248.133 131.286 248.82C130.759 249.507 130.022 249.967 129.076 250.2Z" fill="white"/>
<circle cx="4" cy="246" r="4" fill="#4DC23D"/>
<path d="M14.9 276V268.7H15.77V272.8C15.77 273.04 15.7633 273.297 15.75 273.57C15.7433 273.837 15.7333 274.093 15.72 274.34C15.7067 274.58 15.6933 274.783 15.68 274.95L17.9 268.7H19.1V276H18.23V271.9C18.23 271.653 18.2333 271.397 18.24 271.13C18.2533 270.857 18.2667 270.6 18.28 270.36C18.3 270.113 18.3167 269.91 18.33 269.75L16.1 276H14.9ZM20.9161 277.8V270.5H21.8161V271.55H21.9961L21.8161 271.76C21.8161 271.34 21.9528 271.01 22.2261 270.77C22.5061 270.523 22.8728 270.4 23.3261 270.4C23.8794 270.4 24.3194 270.583 24.6461 270.95C24.9794 271.31 25.1461 271.807 25.1461 272.44V274.05C25.1461 274.47 25.0694 274.833 24.9161 275.14C24.7694 275.447 24.5594 275.683 24.2861 275.85C24.0194 276.017 23.6994 276.1 23.3261 276.1C22.8794 276.1 22.5161 275.977 22.2361 275.73C21.9561 275.483 21.8161 275.153 21.8161 274.74L21.9961 274.95H21.7961L21.8161 276.2V277.8H20.9161ZM23.0261 275.32C23.4061 275.32 23.7028 275.207 23.9161 274.98C24.1361 274.753 24.2461 274.427 24.2461 274V272.5C24.2461 272.073 24.1361 271.747 23.9161 271.52C23.7028 271.293 23.4061 271.18 23.0261 271.18C22.6594 271.18 22.3661 271.297 22.1461 271.53C21.9261 271.763 21.8161 272.087 21.8161 272.5V274C21.8161 274.413 21.9261 274.737 22.1461 274.97C22.3661 275.203 22.6594 275.32 23.0261 275.32ZM28.5122 276.1C27.9322 276.1 27.4755 275.953 27.1422 275.66C26.8089 275.36 26.6422 274.957 26.6422 274.45C26.6422 273.937 26.8089 273.533 27.1422 273.24C27.4755 272.947 27.9255 272.8 28.4922 272.8H30.1922V272.25C30.1922 271.91 30.0889 271.65 29.8822 271.47C29.6822 271.283 29.3955 271.19 29.0222 271.19C28.6955 271.19 28.4222 271.26 28.2022 271.4C27.9822 271.533 27.8555 271.717 27.8222 271.95H26.9222C26.9822 271.477 27.2055 271.1 27.5922 270.82C27.9789 270.54 28.4622 270.4 29.0422 270.4C29.6755 270.4 30.1755 270.563 30.5422 270.89C30.9089 271.217 31.0922 271.66 31.0922 272.22V276H30.2122V274.95H30.0622L30.2122 274.8C30.2122 275.2 30.0555 275.517 29.7422 275.75C29.4355 275.983 29.0255 276.1 28.5122 276.1ZM28.7322 275.39C29.1589 275.39 29.5089 275.283 29.7822 275.07C30.0555 274.857 30.1922 274.583 30.1922 274.25V273.47H28.5122C28.2122 273.47 27.9755 273.553 27.8022 273.72C27.6289 273.887 27.5422 274.113 27.5422 274.4C27.5422 274.707 27.6455 274.95 27.8522 275.13C28.0655 275.303 28.3589 275.39 28.7322 275.39ZM32.9283 276V270.5H33.8283V272.79H36.1483V270.5H37.0483V276H36.1483V273.61H33.8283V276H32.9283ZM44.8805 276V275.18H46.8605V269.45L44.8805 270.93V269.93L46.5305 268.7H47.7605V275.18H49.3805V276H44.8805ZM50.8966 276V275.08L53.1266 272.71C53.5066 272.303 53.7832 271.943 53.9566 271.63C54.1299 271.31 54.2166 271.003 54.2166 270.71C54.2166 270.303 54.1032 269.983 53.8766 269.75C53.6566 269.517 53.3532 269.4 52.9666 269.4C52.5399 269.4 52.2032 269.52 51.9566 269.76C51.7166 270 51.5966 270.33 51.5966 270.75H50.6966C50.7099 270.31 50.8099 269.93 50.9966 269.61C51.1899 269.283 51.4532 269.033 51.7866 268.86C52.1266 268.687 52.5199 268.6 52.9666 268.6C53.4066 268.6 53.7866 268.687 54.1066 268.86C54.4332 269.027 54.6832 269.267 54.8566 269.58C55.0299 269.893 55.1166 270.267 55.1166 270.7C55.1166 271.113 55.0066 271.523 54.7866 271.93C54.5666 272.337 54.2066 272.8 53.7066 273.32L51.9066 275.18H55.2366V276H50.8966ZM56.1127 276L61.0927 268.7H61.8327L56.8527 276H56.1127ZM60.4227 276.05C60.0027 276.05 59.666 275.93 59.4127 275.69C59.1593 275.45 59.0327 275.12 59.0327 274.7V274.05C59.0327 273.63 59.1593 273.3 59.4127 273.06C59.666 272.82 60.0027 272.7 60.4227 272.7C60.8427 272.7 61.1793 272.82 61.4327 273.06C61.686 273.3 61.8127 273.63 61.8127 274.05V274.7C61.8127 275.12 61.686 275.45 61.4327 275.69C61.1793 275.93 60.8427 276.05 60.4227 276.05ZM60.4227 275.36C60.856 275.36 61.0727 275.14 61.0727 274.7V274.05C61.0727 273.603 60.856 273.38 60.4227 273.38C59.9893 273.38 59.7727 273.603 59.7727 274.05V274.7C59.7727 275.14 59.9893 275.36 60.4227 275.36ZM57.5227 272C57.1027 272 56.766 271.88 56.5127 271.64C56.2593 271.4 56.1327 271.07 56.1327 270.65V270C56.1327 269.58 56.2593 269.25 56.5127 269.01C56.766 268.77 57.1027 268.65 57.5227 268.65C57.9427 268.65 58.2793 268.77 58.5327 269.01C58.786 269.25 58.9127 269.58 58.9127 270V270.65C58.9127 271.07 58.786 271.4 58.5327 271.64C58.2793 271.88 57.9427 272 57.5227 272ZM57.5227 271.32C57.956 271.32 58.1727 271.097 58.1727 270.65V270C58.1727 269.553 57.956 269.33 57.5227 269.33C57.3093 269.33 57.146 269.387 57.0327 269.5C56.926 269.607 56.8727 269.773 56.8727 270V270.65C56.8727 270.877 56.926 271.047 57.0327 271.16C57.146 271.267 57.3093 271.32 57.5227 271.32ZM72.8148 277.2C71.8682 276.967 71.1315 276.507 70.6048 275.82C70.0782 275.133 69.8148 274.293 69.8148 273.3V271.5C69.8148 270.847 69.9348 270.257 70.1748 269.73C70.4215 269.197 70.7682 268.747 71.2148 268.38C71.6682 268.013 72.2015 267.753 72.8148 267.6V268.45C72.3882 268.55 72.0182 268.743 71.7048 269.03C71.3915 269.31 71.1482 269.66 70.9748 270.08C70.8015 270.5 70.7148 270.973 70.7148 271.5V273.3C70.7148 273.813 70.7982 274.28 70.9648 274.7C71.1382 275.12 71.3815 275.47 71.6948 275.75C72.0148 276.023 72.3882 276.21 72.8148 276.31V277.2ZM78.0609 276V274.4H74.7609V272.99L77.6509 268.7H78.6309L75.6609 273.18V273.58H78.0609V271.8H78.9609V276H78.0609ZM81.607 277.6L82.407 274.49H83.707L82.407 277.6H81.607ZM88.8431 276.1C88.4031 276.1 88.0165 276.013 87.6831 275.84C87.3565 275.66 87.1031 275.413 86.9231 275.1C86.7431 274.787 86.6531 274.42 86.6531 274H87.5531C87.5531 274.407 87.6665 274.727 87.8931 274.96C88.1265 275.187 88.4465 275.3 88.8531 275.3C89.2665 275.3 89.5865 275.18 89.8131 274.94C90.0398 274.7 90.1531 274.387 90.1531 274V273.48C90.1531 273.067 90.0398 272.747 89.8131 272.52C89.5865 272.293 89.2665 272.18 88.8531 272.18H88.1031V271.28L89.9131 269.52H86.9531V268.7H90.8231V269.6L88.8731 271.49V271.38C89.5398 271.38 90.0698 271.57 90.4631 271.95C90.8565 272.33 91.0531 272.84 91.0531 273.48V274C91.0531 274.42 90.9598 274.787 90.7731 275.1C90.5931 275.413 90.3365 275.66 90.0031 275.84C89.6698 276.013 89.2831 276.1 88.8431 276.1ZM92.8692 276V275.08L95.0992 272.71C95.4792 272.303 95.7559 271.943 95.9292 271.63C96.1026 271.31 96.1892 271.003 96.1892 270.71C96.1892 270.303 96.0759 269.983 95.8492 269.75C95.6292 269.517 95.3259 269.4 94.9392 269.4C94.5126 269.4 94.1759 269.52 93.9292 269.76C93.6892 270 93.5692 270.33 93.5692 270.75H92.6692C92.6826 270.31 92.7826 269.93 92.9692 269.61C93.1626 269.283 93.4259 269.033 93.7592 268.86C94.0992 268.687 94.4926 268.6 94.9392 268.6C95.3792 268.6 95.7592 268.687 96.0792 268.86C96.4059 269.027 96.6559 269.267 96.8292 269.58C97.0026 269.893 97.0892 270.267 97.0892 270.7C97.0892 271.113 96.9792 271.523 96.7592 271.93C96.5392 272.337 96.1792 272.8 95.6792 273.32L93.8792 275.18H97.2092V276H92.8692ZM104.701 276V270.5H105.921L106.641 272.61C106.715 272.823 106.781 273.037 106.841 273.25C106.901 273.457 106.945 273.617 106.971 273.73C106.998 273.617 107.038 273.457 107.091 273.25C107.151 273.037 107.215 272.82 107.281 272.6L107.961 270.5H109.181V276H108.311V275.15C108.311 274.85 108.315 274.523 108.321 274.17C108.328 273.817 108.335 273.46 108.341 273.1C108.355 272.74 108.368 272.4 108.381 272.08C108.395 271.753 108.405 271.467 108.411 271.22L107.431 274.35H106.481L105.491 271.24C105.505 271.54 105.515 271.913 105.521 272.36C105.535 272.807 105.545 273.273 105.551 273.76C105.565 274.247 105.571 274.71 105.571 275.15V276H104.701ZM110.188 276.07V275.23H110.368C110.674 275.23 110.888 275.11 111.008 274.87C111.134 274.63 111.201 274.2 111.208 273.58L111.268 270.5H114.998V276H114.098V271.32H112.158L112.108 273.62C112.094 274.2 112.028 274.67 111.908 275.03C111.794 275.39 111.614 275.653 111.368 275.82C111.128 275.987 110.811 276.07 110.418 276.07H110.188ZM116.874 276V270.5H117.774V272.79H120.094V270.5H120.994V276H120.094V273.61H117.774V276H116.874ZM123.08 277.2V276.31C123.513 276.21 123.886 276.023 124.2 275.75C124.513 275.47 124.753 275.12 124.92 274.7C125.093 274.28 125.18 273.813 125.18 273.3V271.5C125.18 270.973 125.093 270.5 124.92 270.08C124.746 269.66 124.503 269.31 124.19 269.03C123.876 268.743 123.506 268.55 123.08 268.45V267.6C123.7 267.753 124.233 268.013 124.68 268.38C125.126 268.747 125.47 269.197 125.71 269.73C125.956 270.257 126.08 270.847 126.08 271.5V273.3C126.08 274.293 125.816 275.133 125.29 275.82C124.763 276.507 124.026 276.967 123.08 277.2Z" fill="white"/>
<circle cx="4" cy="273" r="4" fill="#0053F3"/>
<circle cx="4" cy="300" r="4" fill="#032C7C"/>
<path d="M15.91 303L16.65 301.11L14.5 295.7H15.48L16.79 299.27C16.8767 299.497 16.9467 299.713 17 299.92C17.0533 300.12 17.0867 300.27 17.1 300.37C17.1133 300.27 17.1433 300.12 17.19 299.92C17.2367 299.713 17.2967 299.497 17.37 299.27L18.52 295.7H19.5L16.87 303H15.91ZM22.7361 303.07C22.1561 303.07 21.6794 302.947 21.3061 302.7C20.9394 302.453 20.7194 302.12 20.6461 301.7H21.5961C21.6428 301.867 21.7661 302.003 21.9661 302.11C22.1728 302.217 22.4294 302.27 22.7361 302.27H23.2061C23.5328 302.27 23.7861 302.193 23.9661 302.04C24.1528 301.887 24.2461 301.687 24.2461 301.44C24.2461 301.173 24.1561 300.963 23.9761 300.81C23.8028 300.657 23.5461 300.58 23.2061 300.58H21.9961V299.8H23.1761C23.4828 299.8 23.7161 299.727 23.8761 299.58C24.0361 299.433 24.1161 299.24 24.1161 299C24.1161 298.833 24.0794 298.693 24.0061 298.58C23.9394 298.467 23.8361 298.38 23.6961 298.32C23.5561 298.26 23.3861 298.23 23.1861 298.23H22.6861C22.4194 298.23 22.1894 298.29 21.9961 298.41C21.8028 298.53 21.6861 298.677 21.6461 298.85H20.6961C20.7628 298.437 20.9794 298.097 21.3461 297.83C21.7128 297.563 22.1594 297.43 22.6861 297.43H23.1861C23.5794 297.43 23.9161 297.493 24.1961 297.62C24.4761 297.74 24.6894 297.913 24.8361 298.14C24.9894 298.367 25.0661 298.637 25.0661 298.95C25.0661 299.277 24.9594 299.547 24.7461 299.76C24.5328 299.967 24.2328 300.083 23.8461 300.11V300.15C24.3194 300.183 24.6628 300.31 24.8761 300.53C25.0894 300.75 25.1961 301.067 25.1961 301.48C25.1961 301.967 25.0161 302.353 24.6561 302.64C24.2961 302.927 23.8128 303.07 23.2061 303.07H22.7361ZM28.9922 303.1C28.3455 303.1 27.8322 302.91 27.4522 302.53C27.0789 302.143 26.8922 301.617 26.8922 300.95V298.45C26.8922 297.57 27.1122 296.893 27.5522 296.42C27.9922 295.94 28.6222 295.7 29.4422 295.7H30.8422V296.6H29.4422C28.9022 296.6 28.4922 296.76 28.2122 297.08C27.9322 297.393 27.7922 297.85 27.7922 298.45V299.1H27.9322L27.7922 299.3C27.7989 298.907 27.9322 298.6 28.1922 298.38C28.4522 298.16 28.8055 298.05 29.2522 298.05C29.8322 298.05 30.2822 298.237 30.6022 298.61C30.9289 298.983 31.0922 299.497 31.0922 300.15V300.95C31.0922 301.397 31.0089 301.78 30.8422 302.1C30.6755 302.42 30.4355 302.667 30.1222 302.84C29.8089 303.013 29.4322 303.1 28.9922 303.1ZM28.9922 302.3C29.3789 302.3 29.6755 302.183 29.8822 301.95C30.0889 301.717 30.1922 301.383 30.1922 300.95V300.15C30.1922 299.717 30.0889 299.383 29.8822 299.15C29.6755 298.917 29.3789 298.8 28.9922 298.8C28.6055 298.8 28.3089 298.917 28.1022 299.15C27.8955 299.377 27.7922 299.71 27.7922 300.15V300.95C27.7922 301.383 27.8955 301.717 28.1022 301.95C28.3089 302.183 28.6055 302.3 28.9922 302.3ZM34.9883 303.1C34.5549 303.1 34.1749 303.013 33.8483 302.84C33.5283 302.667 33.2783 302.423 33.0983 302.11C32.9249 301.79 32.8383 301.42 32.8383 301V299.5C32.8383 299.073 32.9249 298.703 33.0983 298.39C33.2783 298.077 33.5283 297.833 33.8483 297.66C34.1749 297.487 34.5549 297.4 34.9883 297.4C35.4216 297.4 35.7983 297.487 36.1183 297.66C36.4449 297.833 36.6949 298.077 36.8683 298.39C37.0483 298.703 37.1383 299.073 37.1383 299.5V300.47H33.7183V301C33.7183 301.433 33.8283 301.767 34.0483 302C34.2683 302.227 34.5816 302.34 34.9883 302.34C35.3349 302.34 35.6149 302.28 35.8283 302.16C36.0416 302.033 36.1716 301.847 36.2183 301.6H37.1183C37.0583 302.06 36.8316 302.427 36.4383 302.7C36.0516 302.967 35.5683 303.1 34.9883 303.1ZM36.2583 299.87V299.5C36.2583 299.067 36.1483 298.733 35.9283 298.5C35.7149 298.267 35.4016 298.15 34.9883 298.15C34.5816 298.15 34.2683 298.267 34.0483 298.5C33.8283 298.733 33.7183 299.067 33.7183 299.5V299.79H36.3283L36.2583 299.87ZM38.9544 303V297.5H39.8544V299.77H40.7944L42.3944 297.5H43.4244L41.5744 300.12L43.4544 303H42.4044L40.8044 300.55H39.8544V303H38.9544ZM44.9205 303V297.5H45.7805V300.5C45.7805 300.693 45.7738 300.897 45.7605 301.11C45.7538 301.323 45.7405 301.527 45.7205 301.72C45.7071 301.907 45.6905 302.067 45.6705 302.2L47.8905 297.5H49.0405V303H48.1805V300C48.1805 299.807 48.1838 299.603 48.1905 299.39C48.2038 299.177 48.2205 298.973 48.2405 298.78C48.2605 298.58 48.2771 298.417 48.2905 298.29L46.0705 303H44.9205ZM52.9966 303.1C52.5566 303.1 52.1699 303.017 51.8366 302.85C51.5099 302.683 51.2566 302.443 51.0766 302.13C50.8966 301.81 50.8066 301.433 50.8066 301V299.5C50.8066 299.06 50.8966 298.683 51.0766 298.37C51.2566 298.057 51.5099 297.817 51.8366 297.65C52.1699 297.483 52.5566 297.4 52.9966 297.4C53.6299 297.4 54.1399 297.57 54.5266 297.91C54.9132 298.25 55.1166 298.713 55.1366 299.3H54.2366C54.2166 298.947 54.0966 298.677 53.8766 298.49C53.6632 298.297 53.3699 298.2 52.9966 298.2C52.6032 298.2 52.2899 298.313 52.0566 298.54C51.8232 298.76 51.7066 299.077 51.7066 299.49V301C51.7066 301.413 51.8232 301.733 52.0566 301.96C52.2899 302.187 52.6032 302.3 52.9966 302.3C53.3699 302.3 53.6632 302.203 53.8766 302.01C54.0966 301.817 54.2166 301.547 54.2366 301.2H55.1366C55.1166 301.787 54.9132 302.25 54.5266 302.59C54.1399 302.93 53.6299 303.1 52.9966 303.1ZM58.5227 303V298.29H56.5227V297.5H61.4227V298.29H59.4227V303H58.5227ZM64.4888 303.1C63.9088 303.1 63.4521 302.953 63.1188 302.66C62.7854 302.36 62.6188 301.957 62.6188 301.45C62.6188 300.937 62.7854 300.533 63.1188 300.24C63.4521 299.947 63.9021 299.8 64.4688 299.8H66.1688V299.25C66.1688 298.91 66.0654 298.65 65.8588 298.47C65.6588 298.283 65.3721 298.19 64.9988 298.19C64.6721 298.19 64.3988 298.26 64.1788 298.4C63.9588 298.533 63.8321 298.717 63.7988 298.95H62.8988C62.9588 298.477 63.1821 298.1 63.5688 297.82C63.9554 297.54 64.4388 297.4 65.0188 297.4C65.6521 297.4 66.1521 297.563 66.5188 297.89C66.8854 298.217 67.0688 298.66 67.0688 299.22V303H66.1888V301.95H66.0388L66.1888 301.8C66.1888 302.2 66.0321 302.517 65.7188 302.75C65.4121 302.983 65.0021 303.1 64.4888 303.1ZM64.7088 302.39C65.1354 302.39 65.4854 302.283 65.7588 302.07C66.0321 301.857 66.1688 301.583 66.1688 301.25V300.47H64.4888C64.1888 300.47 63.9521 300.553 63.7788 300.72C63.6054 300.887 63.5188 301.113 63.5188 301.4C63.5188 301.707 63.6221 301.95 63.8288 302.13C64.0421 302.303 64.3354 302.39 64.7088 302.39ZM68.9048 303V297.5H69.8048V299.79H72.1248V297.5H73.0248V303H72.1248V300.61H69.8048V303H68.9048ZM80.857 303V302.18H82.837V296.45L80.857 297.93V296.93L82.507 295.7H83.737V302.18H85.357V303H80.857ZM88.9531 303.1C88.5065 303.1 88.1165 303.013 87.7831 302.84C87.4565 302.66 87.2031 302.41 87.0231 302.09C86.8431 301.763 86.7531 301.383 86.7531 300.95V297.75C86.7531 297.31 86.8431 296.93 87.0231 296.61C87.2031 296.29 87.4565 296.043 87.7831 295.87C88.1165 295.69 88.5065 295.6 88.9531 295.6C89.4065 295.6 89.7965 295.69 90.1231 295.87C90.4498 296.043 90.7031 296.29 90.8831 296.61C91.0631 296.93 91.1531 297.31 91.1531 297.75V300.95C91.1531 301.383 91.0631 301.763 90.8831 302.09C90.7031 302.41 90.4465 302.66 90.1131 302.84C89.7865 303.013 89.3998 303.1 88.9531 303.1ZM88.9531 302.33C89.3531 302.33 89.6731 302.203 89.9131 301.95C90.1598 301.69 90.2831 301.357 90.2831 300.95V297.75C90.2831 297.343 90.1598 297.013 89.9131 296.76C89.6731 296.5 89.3531 296.37 88.9531 296.37C88.5531 296.37 88.2298 296.5 87.9831 296.76C87.7431 297.013 87.6231 297.343 87.6231 297.75V300.95C87.6231 301.357 87.7431 301.69 87.9831 301.95C88.2298 302.203 88.5531 302.33 88.9531 302.33ZM88.9531 299.94C88.7731 299.94 88.6265 299.883 88.5131 299.77C88.4065 299.657 88.3531 299.507 88.3531 299.32C88.3531 299.14 88.4065 298.997 88.5131 298.89C88.6265 298.777 88.7731 298.72 88.9531 298.72C89.1331 298.72 89.2765 298.777 89.3831 298.89C89.4965 298.997 89.5531 299.14 89.5531 299.32C89.5531 299.507 89.4965 299.657 89.3831 299.77C89.2765 299.883 89.1331 299.94 88.9531 299.94ZM92.0892 303L97.0692 295.7H97.8092L92.8292 303H92.0892ZM96.3992 303.05C95.9792 303.05 95.6426 302.93 95.3892 302.69C95.1359 302.45 95.0092 302.12 95.0092 301.7V301.05C95.0092 300.63 95.1359 300.3 95.3892 300.06C95.6426 299.82 95.9792 299.7 96.3992 299.7C96.8192 299.7 97.1559 299.82 97.4092 300.06C97.6626 300.3 97.7892 300.63 97.7892 301.05V301.7C97.7892 302.12 97.6626 302.45 97.4092 302.69C97.1559 302.93 96.8192 303.05 96.3992 303.05ZM96.3992 302.36C96.8326 302.36 97.0492 302.14 97.0492 301.7V301.05C97.0492 300.603 96.8326 300.38 96.3992 300.38C95.9659 300.38 95.7492 300.603 95.7492 301.05V301.7C95.7492 302.14 95.9659 302.36 96.3992 302.36ZM93.4992 299C93.0792 299 92.7426 298.88 92.4892 298.64C92.2359 298.4 92.1092 298.07 92.1092 297.65V297C92.1092 296.58 92.2359 296.25 92.4892 296.01C92.7426 295.77 93.0792 295.65 93.4992 295.65C93.9192 295.65 94.2559 295.77 94.5092 296.01C94.7626 296.25 94.8892 296.58 94.8892 297V297.65C94.8892 298.07 94.7626 298.4 94.5092 298.64C94.2559 298.88 93.9192 299 93.4992 299ZM93.4992 298.32C93.9326 298.32 94.1492 298.097 94.1492 297.65V297C94.1492 296.553 93.9326 296.33 93.4992 296.33C93.2859 296.33 93.1226 296.387 93.0092 296.5C92.9026 296.607 92.8492 296.773 92.8492 297V297.65C92.8492 297.877 92.9026 298.047 93.0092 298.16C93.1226 298.267 93.2859 298.32 93.4992 298.32ZM108.791 304.2C107.845 303.967 107.108 303.507 106.581 302.82C106.055 302.133 105.791 301.293 105.791 300.3V298.5C105.791 297.847 105.911 297.257 106.151 296.73C106.398 296.197 106.745 295.747 107.191 295.38C107.645 295.013 108.178 294.753 108.791 294.6V295.45C108.365 295.55 107.995 295.743 107.681 296.03C107.368 296.31 107.125 296.66 106.951 297.08C106.778 297.5 106.691 297.973 106.691 298.5V300.3C106.691 300.813 106.775 301.28 106.941 301.7C107.115 302.12 107.358 302.47 107.671 302.75C107.991 303.023 108.365 303.21 108.791 303.31V304.2ZM112.828 303.1C112.388 303.1 112.001 303.013 111.668 302.84C111.341 302.66 111.088 302.413 110.908 302.1C110.728 301.787 110.638 301.42 110.638 301H111.538C111.538 301.407 111.651 301.727 111.878 301.96C112.111 302.187 112.431 302.3 112.838 302.3C113.251 302.3 113.571 302.18 113.798 301.94C114.024 301.7 114.138 301.387 114.138 301V300.48C114.138 300.067 114.024 299.747 113.798 299.52C113.571 299.293 113.251 299.18 112.838 299.18H112.088V298.28L113.898 296.52H110.938V295.7H114.808V296.6L112.858 298.49V298.38C113.524 298.38 114.054 298.57 114.448 298.95C114.841 299.33 115.038 299.84 115.038 300.48V301C115.038 301.42 114.944 301.787 114.758 302.1C114.578 302.413 114.321 302.66 113.988 302.84C113.654 303.013 113.268 303.1 112.828 303.1ZM117.584 304.6L118.384 301.49H119.684L118.384 304.6H117.584ZM124.94 303.1C124.473 303.1 124.063 303.003 123.71 302.81C123.363 302.61 123.093 302.333 122.9 301.98C122.706 301.627 122.61 301.217 122.61 300.75C122.61 300.383 122.66 300.023 122.76 299.67C122.866 299.317 123.023 298.977 123.23 298.65L125.06 295.7H126.06L123.99 299.02L124.03 299.05C124.156 298.863 124.33 298.72 124.55 298.62C124.77 298.52 125.016 298.47 125.29 298.47C125.69 298.47 126.036 298.563 126.33 298.75C126.623 298.937 126.85 299.2 127.01 299.54C127.17 299.88 127.25 300.283 127.25 300.75C127.25 301.217 127.153 301.627 126.96 301.98C126.766 302.333 126.496 302.61 126.15 302.81C125.81 303.003 125.406 303.1 124.94 303.1ZM124.93 302.3C125.356 302.3 125.7 302.16 125.96 301.88C126.22 301.593 126.35 301.217 126.35 300.75C126.35 300.283 126.22 299.91 125.96 299.63C125.7 299.343 125.356 299.2 124.93 299.2C124.503 299.2 124.16 299.343 123.9 299.63C123.64 299.91 123.51 300.283 123.51 300.75C123.51 301.217 123.64 301.593 123.9 301.88C124.16 302.16 124.503 302.3 124.93 302.3ZM134.682 303V297.5H135.902L136.622 299.61C136.695 299.823 136.762 300.037 136.822 300.25C136.882 300.457 136.925 300.617 136.952 300.73C136.979 300.617 137.019 300.457 137.072 300.25C137.132 300.037 137.195 299.82 137.262 299.6L137.942 297.5H139.162V303H138.292V302.15C138.292 301.85 138.295 301.523 138.302 301.17C138.309 300.817 138.315 300.46 138.322 300.1C138.335 299.74 138.349 299.4 138.362 299.08C138.375 298.753 138.385 298.467 138.392 298.22L137.412 301.35H136.462L135.472 298.24C135.485 298.54 135.495 298.913 135.502 299.36C135.515 299.807 135.525 300.273 135.532 300.76C135.545 301.247 135.552 301.71 135.552 302.15V303H134.682ZM140.168 303.07V302.23H140.348C140.655 302.23 140.868 302.11 140.988 301.87C141.115 301.63 141.181 301.2 141.188 300.58L141.248 297.5H144.978V303H144.078V298.32H142.138L142.088 300.62C142.075 301.2 142.008 301.67 141.888 302.03C141.775 302.39 141.595 302.653 141.348 302.82C141.108 302.987 140.791 303.07 140.398 303.07H140.168ZM146.854 303V297.5H147.754V299.79H150.074V297.5H150.974V303H150.074V300.61H147.754V303H146.854ZM153.06 304.2V303.31C153.493 303.21 153.867 303.023 154.18 302.75C154.493 302.47 154.733 302.12 154.9 301.7C155.073 301.28 155.16 300.813 155.16 300.3V298.5C155.16 297.973 155.073 297.5 154.9 297.08C154.727 296.66 154.483 296.31 154.17 296.03C153.857 295.743 153.487 295.55 153.06 295.45V294.6C153.68 294.753 154.213 295.013 154.66 295.38C155.107 295.747 155.45 296.197 155.69 296.73C155.937 297.257 156.06 297.847 156.06 298.5V300.3C156.06 301.293 155.797 302.133 155.27 302.82C154.743 303.507 154.007 303.967 153.06 304.2Z" fill="white"/>
<path d="M17.04 330.1C16.6 330.1 16.2167 330.017 15.89 329.85C15.57 329.683 15.32 329.443 15.14 329.13C14.9667 328.81 14.88 328.433 14.88 328V324.7C14.88 324.26 14.9667 323.883 15.14 323.57C15.32 323.257 15.57 323.017 15.89 322.85C16.2167 322.683 16.6 322.6 17.04 322.6C17.48 322.6 17.86 322.687 18.18 322.86C18.5 323.027 18.7467 323.267 18.92 323.58C19.0933 323.893 19.18 324.267 19.18 324.7H18.28C18.28 324.287 18.17 323.97 17.95 323.75C17.7367 323.523 17.4333 323.41 17.04 323.41C16.6467 323.41 16.3367 323.52 16.11 323.74C15.89 323.96 15.78 324.277 15.78 324.69V328C15.78 328.413 15.89 328.733 16.11 328.96C16.3367 329.18 16.6467 329.29 17.04 329.29C17.4333 329.29 17.7367 329.18 17.95 328.96C18.17 328.733 18.28 328.413 18.28 328H19.18C19.18 328.427 19.0933 328.8 18.92 329.12C18.7467 329.433 18.5 329.677 18.18 329.85C17.86 330.017 17.48 330.1 17.04 330.1ZM20.6561 330L20.6361 322.7H21.4761V329.32H22.6461V322.7H23.3661V329.32H24.5261V322.7H25.3561V330H20.6561ZM26.4922 330L28.3922 322.7H29.6022L31.4922 330H30.5822L30.1022 328.06H27.8922L27.4122 330H26.4922ZM28.0722 327.3H29.9122L29.3522 325.05C29.2455 324.623 29.1622 324.267 29.1022 323.98C29.0422 323.693 29.0055 323.507 28.9922 323.42C28.9789 323.507 28.9422 323.693 28.8822 323.98C28.8222 324.267 28.7389 324.62 28.6322 325.04L28.0722 327.3ZM38.8844 330V329.18H40.8644V323.45L38.8844 324.93V323.93L40.5344 322.7H41.7644V329.18H43.3844V330H38.8844ZM46.9805 330.1C46.5338 330.1 46.1438 330.013 45.8105 329.84C45.4838 329.66 45.2305 329.41 45.0505 329.09C44.8705 328.763 44.7805 328.383 44.7805 327.95V324.75C44.7805 324.31 44.8705 323.93 45.0505 323.61C45.2305 323.29 45.4838 323.043 45.8105 322.87C46.1438 322.69 46.5338 322.6 46.9805 322.6C47.4338 322.6 47.8238 322.69 48.1505 322.87C48.4771 323.043 48.7305 323.29 48.9105 323.61C49.0905 323.93 49.1805 324.31 49.1805 324.75V327.95C49.1805 328.383 49.0905 328.763 48.9105 329.09C48.7305 329.41 48.4738 329.66 48.1405 329.84C47.8138 330.013 47.4271 330.1 46.9805 330.1ZM46.9805 329.33C47.3805 329.33 47.7005 329.203 47.9405 328.95C48.1871 328.69 48.3105 328.357 48.3105 327.95V324.75C48.3105 324.343 48.1871 324.013 47.9405 323.76C47.7005 323.5 47.3805 323.37 46.9805 323.37C46.5805 323.37 46.2571 323.5 46.0105 323.76C45.7705 324.013 45.6505 324.343 45.6505 324.75V327.95C45.6505 328.357 45.7705 328.69 46.0105 328.95C46.2571 329.203 46.5805 329.33 46.9805 329.33ZM46.9805 326.94C46.8005 326.94 46.6538 326.883 46.5405 326.77C46.4338 326.657 46.3805 326.507 46.3805 326.32C46.3805 326.14 46.4338 325.997 46.5405 325.89C46.6538 325.777 46.8005 325.72 46.9805 325.72C47.1605 325.72 47.3038 325.777 47.4105 325.89C47.5238 325.997 47.5805 326.14 47.5805 326.32C47.5805 326.507 47.5238 326.657 47.4105 326.77C47.3038 326.883 47.1605 326.94 46.9805 326.94ZM50.1166 330L55.0966 322.7H55.8366L50.8566 330H50.1166ZM54.4266 330.05C54.0066 330.05 53.6699 329.93 53.4166 329.69C53.1632 329.45 53.0366 329.12 53.0366 328.7V328.05C53.0366 327.63 53.1632 327.3 53.4166 327.06C53.6699 326.82 54.0066 326.7 54.4266 326.7C54.8466 326.7 55.1832 326.82 55.4366 327.06C55.6899 327.3 55.8166 327.63 55.8166 328.05V328.7C55.8166 329.12 55.6899 329.45 55.4366 329.69C55.1832 329.93 54.8466 330.05 54.4266 330.05ZM54.4266 329.36C54.8599 329.36 55.0766 329.14 55.0766 328.7V328.05C55.0766 327.603 54.8599 327.38 54.4266 327.38C53.9932 327.38 53.7766 327.603 53.7766 328.05V328.7C53.7766 329.14 53.9932 329.36 54.4266 329.36ZM51.5266 326C51.1066 326 50.7699 325.88 50.5166 325.64C50.2632 325.4 50.1366 325.07 50.1366 324.65V324C50.1366 323.58 50.2632 323.25 50.5166 323.01C50.7699 322.77 51.1066 322.65 51.5266 322.65C51.9466 322.65 52.2832 322.77 52.5366 323.01C52.7899 323.25 52.9166 323.58 52.9166 324V324.65C52.9166 325.07 52.7899 325.4 52.5366 325.64C52.2832 325.88 51.9466 326 51.5266 326ZM51.5266 325.32C51.9599 325.32 52.1766 325.097 52.1766 324.65V324C52.1766 323.553 51.9599 323.33 51.5266 323.33C51.3132 323.33 51.1499 323.387 51.0366 323.5C50.9299 323.607 50.8766 323.773 50.8766 324V324.65C50.8766 324.877 50.9299 325.047 51.0366 325.16C51.1499 325.267 51.3132 325.32 51.5266 325.32ZM66.8188 331.2C65.8721 330.967 65.1354 330.507 64.6087 329.82C64.0821 329.133 63.8188 328.293 63.8188 327.3V325.5C63.8188 324.847 63.9388 324.257 64.1788 323.73C64.4254 323.197 64.7721 322.747 65.2188 322.38C65.6721 322.013 66.2054 321.753 66.8188 321.6V322.45C66.3921 322.55 66.0221 322.743 65.7088 323.03C65.3954 323.31 65.1521 323.66 64.9788 324.08C64.8054 324.5 64.7188 324.973 64.7188 325.5V327.3C64.7188 327.813 64.8021 328.28 64.9688 328.7C65.1421 329.12 65.3854 329.47 65.6988 329.75C66.0188 330.023 66.3921 330.21 66.8188 330.31V331.2ZM70.8548 330.1C70.4148 330.1 70.0282 330.013 69.6948 329.84C69.3682 329.66 69.1148 329.413 68.9348 329.1C68.7548 328.787 68.6648 328.42 68.6648 328H69.5648C69.5648 328.407 69.6782 328.727 69.9048 328.96C70.1382 329.187 70.4582 329.3 70.8648 329.3C71.2782 329.3 71.5982 329.18 71.8248 328.94C72.0515 328.7 72.1648 328.387 72.1648 328V327.48C72.1648 327.067 72.0515 326.747 71.8248 326.52C71.5982 326.293 71.2782 326.18 70.8648 326.18H70.1148V325.28L71.9248 323.52H68.9648V322.7H72.8348V323.6L70.8848 325.49V325.38C71.5515 325.38 72.0815 325.57 72.4748 325.95C72.8682 326.33 73.0648 326.84 73.0648 327.48V328C73.0648 328.42 72.9715 328.787 72.7848 329.1C72.6048 329.413 72.3482 329.66 72.0148 329.84C71.6815 330.013 71.2948 330.1 70.8548 330.1ZM75.6109 331.6L76.4109 328.49H77.7109L76.4109 331.6H75.6109ZM82.967 330.1C82.5004 330.1 82.0904 330.003 81.737 329.81C81.3904 329.61 81.1204 329.333 80.927 328.98C80.7337 328.627 80.637 328.217 80.637 327.75C80.637 327.383 80.687 327.023 80.787 326.67C80.8937 326.317 81.0504 325.977 81.257 325.65L83.087 322.7H84.087L82.017 326.02L82.057 326.05C82.1837 325.863 82.357 325.72 82.577 325.62C82.797 325.52 83.0437 325.47 83.317 325.47C83.717 325.47 84.0637 325.563 84.357 325.75C84.6504 325.937 84.877 326.2 85.037 326.54C85.197 326.88 85.277 327.283 85.277 327.75C85.277 328.217 85.1804 328.627 84.987 328.98C84.7937 329.333 84.5237 329.61 84.177 329.81C83.837 330.003 83.4337 330.1 82.967 330.1ZM82.957 329.3C83.3837 329.3 83.727 329.16 83.987 328.88C84.247 328.593 84.377 328.217 84.377 327.75C84.377 327.283 84.247 326.91 83.987 326.63C83.727 326.343 83.3837 326.2 82.957 326.2C82.5304 326.2 82.187 326.343 81.927 326.63C81.667 326.91 81.537 327.283 81.537 327.75C81.537 328.217 81.667 328.593 81.927 328.88C82.187 329.16 82.5304 329.3 82.957 329.3ZM92.7092 330V324.5H93.9292L94.6492 326.61C94.7226 326.823 94.7892 327.037 94.8492 327.25C94.9092 327.457 94.9526 327.617 94.9792 327.73C95.0059 327.617 95.0459 327.457 95.0992 327.25C95.1592 327.037 95.2226 326.82 95.2892 326.6L95.9692 324.5H97.1892V330H96.3192V329.15C96.3192 328.85 96.3226 328.523 96.3292 328.17C96.3359 327.817 96.3426 327.46 96.3492 327.1C96.3626 326.74 96.3759 326.4 96.3892 326.08C96.4026 325.753 96.4126 325.467 96.4192 325.22L95.4392 328.35H94.4892L93.4992 325.24C93.5126 325.54 93.5226 325.913 93.5292 326.36C93.5426 326.807 93.5526 327.273 93.5592 327.76C93.5726 328.247 93.5792 328.71 93.5792 329.15V330H92.7092ZM98.1953 330.07V329.23H98.3753C98.682 329.23 98.8953 329.11 99.0153 328.87C99.142 328.63 99.2086 328.2 99.2153 327.58L99.2753 324.5H103.005V330H102.105V325.32H100.165L100.115 327.62C100.102 328.2 100.035 328.67 99.9153 329.03C99.802 329.39 99.622 329.653 99.3753 329.82C99.1353 329.987 98.8186 330.07 98.4253 330.07H98.1953ZM104.881 330V324.5H105.781V326.79H108.101V324.5H109.001V330H108.101V327.61H105.781V330H104.881ZM111.088 331.2V330.31C111.521 330.21 111.894 330.023 112.208 329.75C112.521 329.47 112.761 329.12 112.928 328.7C113.101 328.28 113.188 327.813 113.188 327.3V325.5C113.188 324.973 113.101 324.5 112.928 324.08C112.754 323.66 112.511 323.31 112.198 323.03C111.884 322.743 111.514 322.55 111.088 322.45V321.6C111.708 321.753 112.241 322.013 112.688 322.38C113.134 322.747 113.478 323.197 113.718 323.73C113.964 324.257 114.088 324.847 114.088 325.5V327.3C114.088 328.293 113.824 329.133 113.298 329.82C112.771 330.507 112.034 330.967 111.088 331.2Z" fill="white"/>
<circle cx="4" cy="327" r="4" fill="#035432"/>
<path d="M14.93 357V349.7H15.83V352.82H18.17V349.7H19.07V357H18.17V353.64H15.83V357H14.93ZM20.9361 357V351.5H21.7961V354.5C21.7961 354.693 21.7894 354.897 21.7761 355.11C21.7694 355.323 21.7561 355.527 21.7361 355.72C21.7228 355.907 21.7061 356.067 21.6861 356.2L23.9061 351.5H25.0561V357H24.1961V354C24.1961 353.807 24.1994 353.603 24.2061 353.39C24.2194 353.177 24.2361 352.973 24.2561 352.78C24.2761 352.58 24.2928 352.417 24.3061 352.29L22.0861 357H20.9361ZM27.2922 357V351.5H31.2422V352.32H28.1922V357H27.2922ZM34.9883 357.1C34.5549 357.1 34.1749 357.013 33.8483 356.84C33.5283 356.667 33.2783 356.423 33.0983 356.11C32.9249 355.79 32.8383 355.42 32.8383 355V353.5C32.8383 353.073 32.9249 352.703 33.0983 352.39C33.2783 352.077 33.5283 351.833 33.8483 351.66C34.1749 351.487 34.5549 351.4 34.9883 351.4C35.4216 351.4 35.7983 351.487 36.1183 351.66C36.4449 351.833 36.6949 352.077 36.8683 352.39C37.0483 352.703 37.1383 353.073 37.1383 353.5V354.47H33.7183V355C33.7183 355.433 33.8283 355.767 34.0483 356C34.2683 356.227 34.5816 356.34 34.9883 356.34C35.3349 356.34 35.6149 356.28 35.8283 356.16C36.0416 356.033 36.1716 355.847 36.2183 355.6H37.1183C37.0583 356.06 36.8316 356.427 36.4383 356.7C36.0516 356.967 35.5683 357.1 34.9883 357.1ZM36.2583 353.87V353.5C36.2583 353.067 36.1483 352.733 35.9283 352.5C35.7149 352.267 35.4016 352.15 34.9883 352.15C34.5816 352.15 34.2683 352.267 34.0483 352.5C33.8283 352.733 33.7183 353.067 33.7183 353.5V353.79H36.3283L36.2583 353.87ZM38.9044 358.8V351.5H39.8044V352.55H39.9844L39.8044 352.76C39.8044 352.34 39.941 352.01 40.2144 351.77C40.4944 351.523 40.861 351.4 41.3144 351.4C41.8677 351.4 42.3077 351.583 42.6344 351.95C42.9677 352.31 43.1344 352.807 43.1344 353.44V355.05C43.1344 355.47 43.0577 355.833 42.9044 356.14C42.7577 356.447 42.5477 356.683 42.2744 356.85C42.0077 357.017 41.6877 357.1 41.3144 357.1C40.8677 357.1 40.5044 356.977 40.2244 356.73C39.9444 356.483 39.8044 356.153 39.8044 355.74L39.9844 355.95H39.7844L39.8044 357.2V358.8H38.9044ZM41.0144 356.32C41.3944 356.32 41.691 356.207 41.9044 355.98C42.1244 355.753 42.2344 355.427 42.2344 355V353.5C42.2344 353.073 42.1244 352.747 41.9044 352.52C41.691 352.293 41.3944 352.18 41.0144 352.18C40.6477 352.18 40.3544 352.297 40.1344 352.53C39.9144 352.763 39.8044 353.087 39.8044 353.5V355C39.8044 355.413 39.9144 355.737 40.1344 355.97C40.3544 356.203 40.6477 356.32 41.0144 356.32ZM44.9205 357V351.5H45.7805V354.5C45.7805 354.693 45.7738 354.897 45.7605 355.11C45.7538 355.323 45.7405 355.527 45.7205 355.72C45.7071 355.907 45.6905 356.067 45.6705 356.2L47.8905 351.5H49.0405V357H48.1805V354C48.1805 353.807 48.1838 353.603 48.1905 353.39C48.2038 353.177 48.2205 352.973 48.2405 352.78C48.2605 352.58 48.2771 352.417 48.2905 352.29L46.0705 357H44.9205ZM50.5766 357L51.9866 354.88C51.5666 354.78 51.2399 354.587 51.0066 354.3C50.7799 354.013 50.6666 353.657 50.6666 353.23C50.6666 352.69 50.8432 352.267 51.1966 351.96C51.5566 351.653 52.0466 351.5 52.6666 351.5H55.0366V357H54.1366V354.95H52.9266L51.6266 357H50.5766ZM52.6666 354.15H54.1366V352.3H52.6666C52.3332 352.3 52.0699 352.383 51.8766 352.55C51.6832 352.71 51.5866 352.937 51.5866 353.23C51.5866 353.517 51.6832 353.743 51.8766 353.91C52.0699 354.07 52.3332 354.15 52.6666 354.15ZM66.8188 358.2C65.8721 357.967 65.1354 357.507 64.6087 356.82C64.0821 356.133 63.8188 355.293 63.8188 354.3V352.5C63.8188 351.847 63.9388 351.257 64.1788 350.73C64.4254 350.197 64.7721 349.747 65.2188 349.38C65.6721 349.013 66.2054 348.753 66.8188 348.6V349.45C66.3921 349.55 66.0221 349.743 65.7088 350.03C65.3954 350.31 65.1521 350.66 64.9788 351.08C64.8054 351.5 64.7188 351.973 64.7188 352.5V354.3C64.7188 354.813 64.8021 355.28 64.9688 355.7C65.1421 356.12 65.3854 356.47 65.6988 356.75C66.0188 357.023 66.3921 357.21 66.8188 357.31V358.2ZM70.9648 357.1C70.3182 357.1 69.8048 356.91 69.4248 356.53C69.0515 356.143 68.8648 355.617 68.8648 354.95V352.45C68.8648 351.57 69.0848 350.893 69.5248 350.42C69.9648 349.94 70.5948 349.7 71.4148 349.7H72.8148V350.6H71.4148C70.8748 350.6 70.4648 350.76 70.1848 351.08C69.9048 351.393 69.7648 351.85 69.7648 352.45V353.1H69.9048L69.7648 353.3C69.7715 352.907 69.9048 352.6 70.1648 352.38C70.4248 352.16 70.7782 352.05 71.2248 352.05C71.8048 352.05 72.2548 352.237 72.5748 352.61C72.9015 352.983 73.0648 353.497 73.0648 354.15V354.95C73.0648 355.397 72.9815 355.78 72.8148 356.1C72.6482 356.42 72.4082 356.667 72.0948 356.84C71.7815 357.013 71.4048 357.1 70.9648 357.1ZM70.9648 356.3C71.3515 356.3 71.6482 356.183 71.8548 355.95C72.0615 355.717 72.1648 355.383 72.1648 354.95V354.15C72.1648 353.717 72.0615 353.383 71.8548 353.15C71.6482 352.917 71.3515 352.8 70.9648 352.8C70.5782 352.8 70.2815 352.917 70.0748 353.15C69.8682 353.377 69.7648 353.71 69.7648 354.15V354.95C69.7648 355.383 69.8682 355.717 70.0748 355.95C70.2815 356.183 70.5782 356.3 70.9648 356.3ZM76.9609 357.08C76.5209 357.08 76.1409 356.997 75.8209 356.83C75.5009 356.663 75.2509 356.423 75.0709 356.11C74.8976 355.79 74.8109 355.413 74.8109 354.98V353.52C74.8109 353.08 74.8976 352.703 75.0709 352.39C75.2509 352.077 75.5009 351.837 75.8209 351.67C76.1409 351.503 76.5209 351.42 76.9609 351.42C77.4009 351.42 77.7809 351.503 78.1009 351.67C78.4209 351.837 78.6676 352.077 78.8409 352.39C79.0209 352.703 79.1109 353.077 79.1109 353.51V354.98C79.1109 355.413 79.0209 355.79 78.8409 356.11C78.6676 356.423 78.4209 356.663 78.1009 356.83C77.7809 356.997 77.4009 357.08 76.9609 357.08ZM76.9609 356.28C77.3543 356.28 77.6609 356.17 77.8809 355.95C78.1009 355.73 78.2109 355.407 78.2109 354.98V353.52C78.2109 353.093 78.1009 352.77 77.8809 352.55C77.6609 352.33 77.3543 352.22 76.9609 352.22C76.5743 352.22 76.2676 352.33 76.0409 352.55C75.8209 352.77 75.7109 353.093 75.7109 353.52V354.98C75.7109 355.407 75.8209 355.73 76.0409 355.95C76.2676 356.17 76.5743 356.28 76.9609 356.28ZM82.507 357V352.29H80.507V351.5H85.407V352.29H83.407V357H82.507ZM86.6031 357V351.5H87.4431V353.52H87.8931C88.4865 353.52 88.9531 353.677 89.2931 353.99C89.6398 354.297 89.8131 354.72 89.8131 355.26C89.8131 355.8 89.6398 356.227 89.2931 356.54C88.9531 356.847 88.4865 357 87.8931 357H86.6031ZM87.4431 356.28H87.8931C88.2465 356.28 88.5198 356.19 88.7131 356.01C88.9131 355.83 89.0131 355.58 89.0131 355.26C89.0131 354.94 88.9131 354.69 88.7131 354.51C88.5198 354.33 88.2465 354.24 87.8931 354.24H87.4431V356.28ZM90.4631 357V351.5H91.3031V357H90.4631ZM93.0992 358.2V357.31C93.5326 357.21 93.9059 357.023 94.2192 356.75C94.5326 356.47 94.7726 356.12 94.9392 355.7C95.1126 355.28 95.1992 354.813 95.1992 354.3V352.5C95.1992 351.973 95.1126 351.5 94.9392 351.08C94.7659 350.66 94.5226 350.31 94.2092 350.03C93.8959 349.743 93.5259 349.55 93.0992 349.45V348.6C93.7192 348.753 94.2526 349.013 94.6992 349.38C95.1459 349.747 95.4892 350.197 95.7292 350.73C95.9759 351.257 96.0992 351.847 96.0992 352.5V354.3C96.0992 355.293 95.8359 356.133 95.3092 356.82C94.7826 357.507 94.0459 357.967 93.0992 358.2ZM106.941 357.1C106.495 357.1 106.105 357.023 105.771 356.87C105.445 356.71 105.191 356.483 105.011 356.19C104.831 355.897 104.741 355.553 104.741 355.16C104.741 354.727 104.858 354.353 105.091 354.04C105.331 353.727 105.708 353.447 106.221 353.2L107.191 352.73C107.485 352.59 107.711 352.407 107.871 352.18C108.031 351.953 108.111 351.703 108.111 351.43C108.111 351.11 108.005 350.857 107.791 350.67C107.585 350.483 107.301 350.39 106.941 350.39C106.581 350.39 106.295 350.487 106.081 350.68C105.875 350.867 105.771 351.12 105.771 351.44C105.771 351.707 105.848 351.953 106.001 352.18C106.161 352.407 106.378 352.587 106.651 352.72L107.621 353.18C108.155 353.427 108.541 353.71 108.781 354.03C109.021 354.343 109.141 354.72 109.141 355.16C109.141 355.753 108.941 356.227 108.541 356.58C108.148 356.927 107.615 357.1 106.941 357.1ZM106.941 356.3C107.348 356.3 107.668 356.197 107.901 355.99C108.141 355.777 108.261 355.493 108.261 355.14C108.261 354.853 108.185 354.593 108.031 354.36C107.878 354.127 107.658 353.94 107.371 353.8L106.411 353.33C105.878 353.07 105.491 352.79 105.251 352.49C105.011 352.19 104.891 351.83 104.891 351.41C104.891 351.037 104.975 350.713 105.141 350.44C105.308 350.167 105.545 349.957 105.851 349.81C106.158 349.663 106.521 349.59 106.941 349.59C107.361 349.59 107.725 349.663 108.031 349.81C108.338 349.957 108.575 350.167 108.741 350.44C108.908 350.713 108.991 351.037 108.991 351.41C108.991 351.83 108.871 352.19 108.631 352.49C108.391 352.783 107.995 353.067 107.441 353.34L106.481 353.81C106.208 353.943 105.995 354.127 105.841 354.36C105.695 354.587 105.621 354.84 105.621 355.12C105.621 355.48 105.738 355.767 105.971 355.98C106.211 356.193 106.535 356.3 106.941 356.3ZM110.078 357L115.058 349.7H115.798L110.818 357H110.078ZM114.388 357.05C113.968 357.05 113.631 356.93 113.378 356.69C113.124 356.45 112.998 356.12 112.998 355.7V355.05C112.998 354.63 113.124 354.3 113.378 354.06C113.631 353.82 113.968 353.7 114.388 353.7C114.808 353.7 115.144 353.82 115.398 354.06C115.651 354.3 115.778 354.63 115.778 355.05V355.7C115.778 356.12 115.651 356.45 115.398 356.69C115.144 356.93 114.808 357.05 114.388 357.05ZM114.388 356.36C114.821 356.36 115.038 356.14 115.038 355.7V355.05C115.038 354.603 114.821 354.38 114.388 354.38C113.954 354.38 113.738 354.603 113.738 355.05V355.7C113.738 356.14 113.954 356.36 114.388 356.36ZM111.488 353C111.068 353 110.731 352.88 110.478 352.64C110.224 352.4 110.098 352.07 110.098 351.65V351C110.098 350.58 110.224 350.25 110.478 350.01C110.731 349.77 111.068 349.65 111.488 349.65C111.908 349.65 112.244 349.77 112.498 350.01C112.751 350.25 112.877 350.58 112.877 351V351.65C112.877 352.07 112.751 352.4 112.498 352.64C112.244 352.88 111.908 353 111.488 353ZM111.488 352.32C111.921 352.32 112.138 352.097 112.138 351.65V351C112.138 350.553 111.921 350.33 111.488 350.33C111.274 350.33 111.111 350.387 110.998 350.5C110.891 350.607 110.838 350.773 110.838 351V351.65C110.838 351.877 110.891 352.047 110.998 352.16C111.111 352.267 111.274 352.32 111.488 352.32ZM126.78 358.2C125.833 357.967 125.096 357.507 124.57 356.82C124.043 356.133 123.78 355.293 123.78 354.3V352.5C123.78 351.847 123.9 351.257 124.14 350.73C124.386 350.197 124.733 349.747 125.18 349.38C125.633 349.013 126.166 348.753 126.78 348.6V349.45C126.353 349.55 125.983 349.743 125.67 350.03C125.356 350.31 125.113 350.66 124.94 351.08C124.766 351.5 124.68 351.973 124.68 352.5V354.3C124.68 354.813 124.763 355.28 124.93 355.7C125.103 356.12 125.346 356.47 125.66 356.75C125.98 357.023 126.353 357.21 126.78 357.31V358.2ZM128.846 357V356.08L131.076 353.71C131.456 353.303 131.732 352.943 131.906 352.63C132.079 352.31 132.166 352.003 132.166 351.71C132.166 351.303 132.052 350.983 131.826 350.75C131.606 350.517 131.302 350.4 130.916 350.4C130.489 350.4 130.152 350.52 129.906 350.76C129.666 351 129.546 351.33 129.546 351.75H128.646C128.659 351.31 128.759 350.93 128.946 350.61C129.139 350.283 129.402 350.033 129.736 349.86C130.076 349.687 130.469 349.6 130.916 349.6C131.356 349.6 131.736 349.687 132.056 349.86C132.382 350.027 132.632 350.267 132.806 350.58C132.979 350.893 133.066 351.267 133.066 351.7C133.066 352.113 132.956 352.523 132.736 352.93C132.516 353.337 132.156 353.8 131.656 354.32L129.856 356.18H133.186V357H128.846ZM135.572 358.6L136.372 355.49H137.672L136.372 358.6H135.572ZM141.788 357L143.858 353.68L143.818 353.65C143.691 353.837 143.518 353.98 143.298 354.08C143.078 354.18 142.831 354.23 142.558 354.23C142.165 354.23 141.818 354.137 141.518 353.95C141.225 353.763 140.998 353.5 140.838 353.16C140.678 352.813 140.598 352.41 140.598 351.95C140.598 351.477 140.695 351.067 140.888 350.72C141.081 350.367 141.351 350.093 141.698 349.9C142.045 349.7 142.448 349.6 142.908 349.6C143.375 349.6 143.781 349.7 144.128 349.9C144.481 350.093 144.755 350.367 144.948 350.72C145.141 351.067 145.238 351.477 145.238 351.95C145.238 352.317 145.185 352.677 145.078 353.03C144.978 353.383 144.825 353.723 144.618 354.05L142.788 357H141.788ZM142.918 353.5C143.345 353.5 143.688 353.36 143.948 353.08C144.208 352.793 144.338 352.417 144.338 351.95C144.338 351.483 144.208 351.11 143.948 350.83C143.688 350.543 143.345 350.4 142.918 350.4C142.491 350.4 142.148 350.543 141.888 350.83C141.628 351.11 141.498 351.483 141.498 351.95C141.498 352.417 141.628 352.793 141.888 353.08C142.148 353.36 142.491 353.5 142.918 353.5ZM152.67 357V351.5H153.89L154.61 353.61C154.683 353.823 154.75 354.037 154.81 354.25C154.87 354.457 154.913 354.617 154.94 354.73C154.967 354.617 155.007 354.457 155.06 354.25C155.12 354.037 155.183 353.82 155.25 353.6L155.93 351.5H157.15V357H156.28V356.15C156.28 355.85 156.283 355.523 156.29 355.17C156.297 354.817 156.303 354.46 156.31 354.1C156.323 353.74 156.337 353.4 156.35 353.08C156.363 352.753 156.373 352.467 156.38 352.22L155.4 355.35H154.45L153.46 352.24C153.473 352.54 153.483 352.913 153.49 353.36C153.503 353.807 153.513 354.273 153.52 354.76C153.533 355.247 153.54 355.71 153.54 356.15V357H152.67ZM158.156 357.07V356.23H158.336C158.643 356.23 158.856 356.11 158.976 355.87C159.103 355.63 159.17 355.2 159.176 354.58L159.236 351.5H162.966V357H162.066V352.32H160.126L160.076 354.62C160.063 355.2 159.996 355.67 159.876 356.03C159.763 356.39 159.583 356.653 159.336 356.82C159.096 356.987 158.78 357.07 158.386 357.07H158.156ZM164.842 357V351.5H165.742V353.79H168.062V351.5H168.962V357H168.062V354.61H165.742V357H164.842ZM171.048 358.2V357.31C171.482 357.21 171.855 357.023 172.168 356.75C172.482 356.47 172.722 356.12 172.888 355.7C173.062 355.28 173.148 354.813 173.148 354.3V352.5C173.148 351.973 173.062 351.5 172.888 351.08C172.715 350.66 172.472 350.31 172.158 350.03C171.845 349.743 171.475 349.55 171.048 349.45V348.6C171.668 348.753 172.202 349.013 172.648 349.38C173.095 349.747 173.438 350.197 173.678 350.73C173.925 351.257 174.048 351.847 174.048 352.5V354.3C174.048 355.293 173.785 356.133 173.258 356.82C172.732 357.507 171.995 357.967 171.048 358.2Z" fill="white"/>
<circle cx="4" cy="354" r="4" fill="#AA01E6"/>
<path d="M17 384.1C16.56 384.1 16.18 384.017 15.86 383.85C15.5467 383.683 15.3033 383.443 15.13 383.13C14.9633 382.81 14.88 382.433 14.88 382V378.7C14.88 378.26 14.9633 377.883 15.13 377.57C15.3033 377.257 15.5467 377.017 15.86 376.85C16.18 376.683 16.56 376.6 17 376.6C17.44 376.6 17.8167 376.683 18.13 376.85C18.45 377.017 18.6933 377.257 18.86 377.57C19.0333 377.883 19.12 378.257 19.12 378.69V382C19.12 382.433 19.0333 382.81 18.86 383.13C18.6933 383.443 18.45 383.683 18.13 383.85C17.8167 384.017 17.44 384.1 17 384.1ZM17 383.29C17.3933 383.29 17.6933 383.18 17.9 382.96C18.1133 382.733 18.22 382.413 18.22 382V378.7C18.22 378.287 18.1133 377.97 17.9 377.75C17.6933 377.523 17.3933 377.41 17 377.41C16.6133 377.41 16.3133 377.523 16.1 377.75C15.8867 377.97 15.78 378.287 15.78 378.7V382C15.78 382.413 15.8867 382.733 16.1 382.96C16.3133 383.18 16.6133 383.29 17 383.29ZM23.0161 384.1C22.5761 384.1 22.1894 384.017 21.8561 383.85C21.5294 383.683 21.2761 383.443 21.0961 383.13C20.9161 382.81 20.8261 382.433 20.8261 382V380.5C20.8261 380.06 20.9161 379.683 21.0961 379.37C21.2761 379.057 21.5294 378.817 21.8561 378.65C22.1894 378.483 22.5761 378.4 23.0161 378.4C23.6494 378.4 24.1594 378.57 24.5461 378.91C24.9328 379.25 25.1361 379.713 25.1561 380.3H24.2561C24.2361 379.947 24.1161 379.677 23.8961 379.49C23.6828 379.297 23.3894 379.2 23.0161 379.2C22.6228 379.2 22.3094 379.313 22.0761 379.54C21.8428 379.76 21.7261 380.077 21.7261 380.49V382C21.7261 382.413 21.8428 382.733 22.0761 382.96C22.3094 383.187 22.6228 383.3 23.0161 383.3C23.3894 383.3 23.6828 383.203 23.8961 383.01C24.1161 382.817 24.2361 382.547 24.2561 382.2H25.1561C25.1361 382.787 24.9328 383.25 24.5461 383.59C24.1594 383.93 23.6494 384.1 23.0161 384.1ZM28.5422 384V379.29H26.5422V378.5H31.4422V379.29H29.4422V384H28.5422ZM34.5083 384.1C33.9283 384.1 33.4716 383.953 33.1383 383.66C32.8049 383.36 32.6383 382.957 32.6383 382.45C32.6383 381.937 32.8049 381.533 33.1383 381.24C33.4716 380.947 33.9216 380.8 34.4883 380.8H36.1883V380.25C36.1883 379.91 36.0849 379.65 35.8783 379.47C35.6783 379.283 35.3916 379.19 35.0183 379.19C34.6916 379.19 34.4183 379.26 34.1983 379.4C33.9783 379.533 33.8516 379.717 33.8183 379.95H32.9183C32.9783 379.477 33.2016 379.1 33.5883 378.82C33.9749 378.54 34.4583 378.4 35.0383 378.4C35.6716 378.4 36.1716 378.563 36.5383 378.89C36.9049 379.217 37.0883 379.66 37.0883 380.22V384H36.2083V382.95H36.0583L36.2083 382.8C36.2083 383.2 36.0516 383.517 35.7383 383.75C35.4316 383.983 35.0216 384.1 34.5083 384.1ZM34.7283 383.39C35.1549 383.39 35.5049 383.283 35.7783 383.07C36.0516 382.857 36.1883 382.583 36.1883 382.25V381.47H34.5083C34.2083 381.47 33.9716 381.553 33.7983 381.72C33.6249 381.887 33.5383 382.113 33.5383 382.4C33.5383 382.707 33.6416 382.95 33.8483 383.13C34.0616 383.303 34.3549 383.39 34.7283 383.39ZM38.2344 384.07V383.23H38.4144C38.721 383.23 38.9344 383.11 39.0544 382.87C39.181 382.63 39.2477 382.2 39.2544 381.58L39.3144 378.5H43.0444V384H42.1444V379.32H40.2044L40.1544 381.62C40.141 382.2 40.0744 382.67 39.9544 383.03C39.841 383.39 39.661 383.653 39.4144 383.82C39.1744 383.987 38.8577 384.07 38.4644 384.07H38.2344ZM44.9605 384V378.5H45.8605V380.52H47.4805C48.1005 380.52 48.5871 380.677 48.9405 380.99C49.3005 381.297 49.4805 381.72 49.4805 382.26C49.4805 382.793 49.3005 383.217 48.9405 383.53C48.5805 383.843 48.0938 384 47.4805 384H44.9605ZM45.8605 383.18H47.4805C47.8271 383.18 48.0905 383.103 48.2705 382.95C48.4571 382.79 48.5505 382.56 48.5505 382.26C48.5505 381.96 48.4571 381.733 48.2705 381.58C48.0905 381.42 47.8271 381.34 47.4805 381.34H45.8605V383.18ZM50.9166 384V378.5H51.8166V380.79H54.1366V378.5H55.0366V384H54.1366V381.61H51.8166V384H50.9166ZM58.9727 384.08C58.5327 384.08 58.1527 383.997 57.8327 383.83C57.5127 383.663 57.2627 383.423 57.0827 383.11C56.9093 382.79 56.8227 382.413 56.8227 381.98V380.52C56.8227 380.08 56.9093 379.703 57.0827 379.39C57.2627 379.077 57.5127 378.837 57.8327 378.67C58.1527 378.503 58.5327 378.42 58.9727 378.42C59.4127 378.42 59.7927 378.503 60.1127 378.67C60.4327 378.837 60.6793 379.077 60.8527 379.39C61.0327 379.703 61.1227 380.077 61.1227 380.51V381.98C61.1227 382.413 61.0327 382.79 60.8527 383.11C60.6793 383.423 60.4327 383.663 60.1127 383.83C59.7927 383.997 59.4127 384.08 58.9727 384.08ZM58.9727 383.28C59.366 383.28 59.6727 383.17 59.8927 382.95C60.1127 382.73 60.2227 382.407 60.2227 381.98V380.52C60.2227 380.093 60.1127 379.77 59.8927 379.55C59.6727 379.33 59.366 379.22 58.9727 379.22C58.586 379.22 58.2793 379.33 58.0527 379.55C57.8327 379.77 57.7227 380.093 57.7227 380.52V381.98C57.7227 382.407 57.8327 382.73 58.0527 382.95C58.2793 383.17 58.586 383.28 58.9727 383.28ZM62.9088 384V378.5H63.7688V381.5C63.7688 381.693 63.7621 381.897 63.7488 382.11C63.7421 382.323 63.7288 382.527 63.7088 382.72C63.6954 382.907 63.6788 383.067 63.6588 383.2L65.8788 378.5H67.0288V384H66.1688V381C66.1688 380.807 66.1721 380.603 66.1788 380.39C66.1921 380.177 66.2088 379.973 66.2288 379.78C66.2488 379.58 66.2654 379.417 66.2788 379.29L64.0588 384H62.9088ZM65.0088 377.6C64.5288 377.6 64.1421 377.467 63.8488 377.2C63.5554 376.933 63.4088 376.583 63.4088 376.15H64.1188C64.1188 376.41 64.1988 376.62 64.3588 376.78C64.5188 376.94 64.7321 377.02 64.9988 377.02C65.2721 377.02 65.4888 376.94 65.6488 376.78C65.8154 376.62 65.8988 376.41 65.8988 376.15H66.6088C66.6088 376.583 66.4621 376.933 66.1688 377.2C65.8754 377.467 65.4888 377.6 65.0088 377.6ZM74.7209 384V378.5H75.9409L76.6609 380.61C76.7343 380.823 76.8009 381.037 76.8609 381.25C76.9209 381.457 76.9643 381.617 76.9909 381.73C77.0176 381.617 77.0576 381.457 77.1109 381.25C77.1709 381.037 77.2343 380.82 77.3009 380.6L77.9809 378.5H79.2009V384H78.3309V383.15C78.3309 382.85 78.3343 382.523 78.3409 382.17C78.3476 381.817 78.3543 381.46 78.3609 381.1C78.3743 380.74 78.3876 380.4 78.4009 380.08C78.4143 379.753 78.4243 379.467 78.4309 379.22L77.4509 382.35H76.5009L75.5109 379.24C75.5243 379.54 75.5343 379.913 75.5409 380.36C75.5543 380.807 75.5643 381.273 75.5709 381.76C75.5843 382.247 75.5909 382.71 75.5909 383.15V384H74.7209ZM80.897 384V378.5H81.757V381.5C81.757 381.693 81.7504 381.897 81.737 382.11C81.7304 382.323 81.717 382.527 81.697 382.72C81.6837 382.907 81.667 383.067 81.647 383.2L83.867 378.5H85.017V384H84.157V381C84.157 380.807 84.1604 380.603 84.167 380.39C84.1804 380.177 84.197 379.973 84.217 379.78C84.237 379.58 84.2537 379.417 84.267 379.29L82.047 384H80.897ZM86.8731 385.8V378.5H87.7731V379.55H87.9531L87.7731 379.76C87.7731 379.34 87.9098 379.01 88.1831 378.77C88.4631 378.523 88.8298 378.4 89.2831 378.4C89.8365 378.4 90.2765 378.583 90.6031 378.95C90.9365 379.31 91.1031 379.807 91.1031 380.44V382.05C91.1031 382.47 91.0265 382.833 90.8731 383.14C90.7265 383.447 90.5165 383.683 90.2431 383.85C89.9765 384.017 89.6565 384.1 89.2831 384.1C88.8365 384.1 88.4731 383.977 88.1931 383.73C87.9131 383.483 87.7731 383.153 87.7731 382.74L87.9531 382.95H87.7531L87.7731 384.2V385.8H86.8731ZM88.9831 383.32C89.3631 383.32 89.6598 383.207 89.8731 382.98C90.0931 382.753 90.2031 382.427 90.2031 382V380.5C90.2031 380.073 90.0931 379.747 89.8731 379.52C89.6598 379.293 89.3631 379.18 88.9831 379.18C88.6165 379.18 88.3231 379.297 88.1031 379.53C87.8831 379.763 87.7731 380.087 87.7731 380.5V382C87.7731 382.413 87.8831 382.737 88.1031 382.97C88.3231 383.203 88.6165 383.32 88.9831 383.32ZM100.835 384.1C100.395 384.1 100.009 384.013 99.6753 383.84C99.3486 383.66 99.0953 383.413 98.9153 383.1C98.7353 382.787 98.6453 382.42 98.6453 382H99.5453C99.5453 382.407 99.6586 382.727 99.8853 382.96C100.119 383.187 100.439 383.3 100.845 383.3C101.259 383.3 101.579 383.18 101.805 382.94C102.032 382.7 102.145 382.387 102.145 382V381.48C102.145 381.067 102.032 380.747 101.805 380.52C101.579 380.293 101.259 380.18 100.845 380.18H100.095V379.28L101.905 377.52H98.9453V376.7H102.815V377.6L100.865 379.49V379.38C101.532 379.38 102.062 379.57 102.455 379.95C102.849 380.33 103.045 380.84 103.045 381.48V382C103.045 382.42 102.952 382.787 102.765 383.1C102.585 383.413 102.329 383.66 101.995 383.84C101.662 384.013 101.275 384.1 100.835 384.1ZM106.941 384.1C106.495 384.1 106.105 384.013 105.771 383.84C105.445 383.66 105.191 383.41 105.011 383.09C104.831 382.763 104.741 382.383 104.741 381.95V378.75C104.741 378.31 104.831 377.93 105.011 377.61C105.191 377.29 105.445 377.043 105.771 376.87C106.105 376.69 106.495 376.6 106.941 376.6C107.395 376.6 107.785 376.69 108.111 376.87C108.438 377.043 108.691 377.29 108.871 377.61C109.051 377.93 109.141 378.31 109.141 378.75V381.95C109.141 382.383 109.051 382.763 108.871 383.09C108.691 383.41 108.435 383.66 108.101 383.84C107.775 384.013 107.388 384.1 106.941 384.1ZM106.941 383.33C107.341 383.33 107.661 383.203 107.901 382.95C108.148 382.69 108.271 382.357 108.271 381.95V378.75C108.271 378.343 108.148 378.013 107.901 377.76C107.661 377.5 107.341 377.37 106.941 377.37C106.541 377.37 106.218 377.5 105.971 377.76C105.731 378.013 105.611 378.343 105.611 378.75V381.95C105.611 382.357 105.731 382.69 105.971 382.95C106.218 383.203 106.541 383.33 106.941 383.33ZM106.941 380.94C106.761 380.94 106.615 380.883 106.501 380.77C106.395 380.657 106.341 380.507 106.341 380.32C106.341 380.14 106.395 379.997 106.501 379.89C106.615 379.777 106.761 379.72 106.941 379.72C107.121 379.72 107.265 379.777 107.371 379.89C107.485 379.997 107.541 380.14 107.541 380.32C107.541 380.507 107.485 380.657 107.371 380.77C107.265 380.883 107.121 380.94 106.941 380.94ZM110.078 384L115.058 376.7H115.798L110.818 384H110.078ZM114.388 384.05C113.968 384.05 113.631 383.93 113.378 383.69C113.124 383.45 112.998 383.12 112.998 382.7V382.05C112.998 381.63 113.124 381.3 113.378 381.06C113.631 380.82 113.968 380.7 114.388 380.7C114.808 380.7 115.144 380.82 115.398 381.06C115.651 381.3 115.778 381.63 115.778 382.05V382.7C115.778 383.12 115.651 383.45 115.398 383.69C115.144 383.93 114.808 384.05 114.388 384.05ZM114.388 383.36C114.821 383.36 115.038 383.14 115.038 382.7V382.05C115.038 381.603 114.821 381.38 114.388 381.38C113.954 381.38 113.738 381.603 113.738 382.05V382.7C113.738 383.14 113.954 383.36 114.388 383.36ZM111.488 380C111.068 380 110.731 379.88 110.478 379.64C110.224 379.4 110.098 379.07 110.098 378.65V378C110.098 377.58 110.224 377.25 110.478 377.01C110.731 376.77 111.068 376.65 111.488 376.65C111.908 376.65 112.244 376.77 112.498 377.01C112.751 377.25 112.877 377.58 112.877 378V378.65C112.877 379.07 112.751 379.4 112.498 379.64C112.244 379.88 111.908 380 111.488 380ZM111.488 379.32C111.921 379.32 112.138 379.097 112.138 378.65V378C112.138 377.553 111.921 377.33 111.488 377.33C111.274 377.33 111.111 377.387 110.998 377.5C110.891 377.607 110.838 377.773 110.838 378V378.65C110.838 378.877 110.891 379.047 110.998 379.16C111.111 379.267 111.274 379.32 111.488 379.32ZM126.78 385.2C125.833 384.967 125.096 384.507 124.57 383.82C124.043 383.133 123.78 382.293 123.78 381.3V379.5C123.78 378.847 123.9 378.257 124.14 377.73C124.386 377.197 124.733 376.747 125.18 376.38C125.633 376.013 126.166 375.753 126.78 375.6V376.45C126.353 376.55 125.983 376.743 125.67 377.03C125.356 377.31 125.113 377.66 124.94 378.08C124.766 378.5 124.68 378.973 124.68 379.5V381.3C124.68 381.813 124.763 382.28 124.93 382.7C125.103 383.12 125.346 383.47 125.66 383.75C125.98 384.023 126.353 384.21 126.78 384.31V385.2ZM128.826 384V383.18H130.806V377.45L128.826 378.93V377.93L130.476 376.7H131.706V383.18H133.326V384H128.826ZM136.922 384.1C136.475 384.1 136.085 384.013 135.752 383.84C135.425 383.66 135.172 383.41 134.992 383.09C134.812 382.763 134.722 382.383 134.722 381.95V378.75C134.722 378.31 134.812 377.93 134.992 377.61C135.172 377.29 135.425 377.043 135.752 376.87C136.085 376.69 136.475 376.6 136.922 376.6C137.375 376.6 137.765 376.69 138.092 376.87C138.419 377.043 138.672 377.29 138.852 377.61C139.032 377.93 139.122 378.31 139.122 378.75V381.95C139.122 382.383 139.032 382.763 138.852 383.09C138.672 383.41 138.415 383.66 138.082 383.84C137.755 384.013 137.369 384.1 136.922 384.1ZM136.922 383.33C137.322 383.33 137.642 383.203 137.882 382.95C138.129 382.69 138.252 382.357 138.252 381.95V378.75C138.252 378.343 138.129 378.013 137.882 377.76C137.642 377.5 137.322 377.37 136.922 377.37C136.522 377.37 136.199 377.5 135.952 377.76C135.712 378.013 135.592 378.343 135.592 378.75V381.95C135.592 382.357 135.712 382.69 135.952 382.95C136.199 383.203 136.522 383.33 136.922 383.33ZM136.922 380.94C136.742 380.94 136.595 380.883 136.482 380.77C136.375 380.657 136.322 380.507 136.322 380.32C136.322 380.14 136.375 379.997 136.482 379.89C136.595 379.777 136.742 379.72 136.922 379.72C137.102 379.72 137.245 379.777 137.352 379.89C137.465 379.997 137.522 380.14 137.522 380.32C137.522 380.507 137.465 380.657 137.352 380.77C137.245 380.883 137.102 380.94 136.922 380.94ZM141.568 385.6L142.368 382.49H143.668L142.368 385.6H141.568ZM148.914 384.1C148.467 384.1 148.077 384.023 147.744 383.87C147.417 383.71 147.164 383.483 146.984 383.19C146.804 382.897 146.714 382.553 146.714 382.16C146.714 381.727 146.831 381.353 147.064 381.04C147.304 380.727 147.681 380.447 148.194 380.2L149.164 379.73C149.457 379.59 149.684 379.407 149.844 379.18C150.004 378.953 150.084 378.703 150.084 378.43C150.084 378.11 149.977 377.857 149.764 377.67C149.557 377.483 149.274 377.39 148.914 377.39C148.554 377.39 148.267 377.487 148.054 377.68C147.847 377.867 147.744 378.12 147.744 378.44C147.744 378.707 147.821 378.953 147.974 379.18C148.134 379.407 148.351 379.587 148.624 379.72L149.594 380.18C150.127 380.427 150.514 380.71 150.754 381.03C150.994 381.343 151.114 381.72 151.114 382.16C151.114 382.753 150.914 383.227 150.514 383.58C150.121 383.927 149.587 384.1 148.914 384.1ZM148.914 383.3C149.321 383.3 149.641 383.197 149.874 382.99C150.114 382.777 150.234 382.493 150.234 382.14C150.234 381.853 150.157 381.593 150.004 381.36C149.851 381.127 149.631 380.94 149.344 380.8L148.384 380.33C147.851 380.07 147.464 379.79 147.224 379.49C146.984 379.19 146.864 378.83 146.864 378.41C146.864 378.037 146.947 377.713 147.114 377.44C147.281 377.167 147.517 376.957 147.824 376.81C148.131 376.663 148.494 376.59 148.914 376.59C149.334 376.59 149.697 376.663 150.004 376.81C150.311 376.957 150.547 377.167 150.714 377.44C150.881 377.713 150.964 378.037 150.964 378.41C150.964 378.83 150.844 379.19 150.604 379.49C150.364 379.783 149.967 380.067 149.414 380.34L148.454 380.81C148.181 380.943 147.967 381.127 147.814 381.36C147.667 381.587 147.594 381.84 147.594 382.12C147.594 382.48 147.711 382.767 147.944 382.98C148.184 383.193 148.507 383.3 148.914 383.3ZM158.666 384V378.5H159.886L160.606 380.61C160.68 380.823 160.746 381.037 160.806 381.25C160.866 381.457 160.91 381.617 160.936 381.73C160.963 381.617 161.003 381.457 161.056 381.25C161.116 381.037 161.18 380.82 161.246 380.6L161.926 378.5H163.146V384H162.276V383.15C162.276 382.85 162.28 382.523 162.286 382.17C162.293 381.817 162.3 381.46 162.306 381.1C162.32 380.74 162.333 380.4 162.346 380.08C162.36 379.753 162.37 379.467 162.376 379.22L161.396 382.35H160.446L159.456 379.24C159.47 379.54 159.48 379.913 159.486 380.36C159.5 380.807 159.51 381.273 159.516 381.76C159.53 382.247 159.536 382.71 159.536 383.15V384H158.666ZM164.152 384.07V383.23H164.332C164.639 383.23 164.852 383.11 164.972 382.87C165.099 382.63 165.166 382.2 165.172 381.58L165.232 378.5H168.962V384H168.062V379.32H166.122L166.072 381.62C166.059 382.2 165.992 382.67 165.872 383.03C165.759 383.39 165.579 383.653 165.332 383.82C165.092 383.987 164.776 384.07 164.382 384.07H164.152ZM170.838 384V378.5H171.738V380.79H174.058V378.5H174.958V384H174.058V381.61H171.738V384H170.838ZM177.045 385.2V384.31C177.478 384.21 177.851 384.023 178.165 383.75C178.478 383.47 178.718 383.12 178.885 382.7C179.058 382.28 179.145 381.813 179.145 381.3V379.5C179.145 378.973 179.058 378.5 178.885 378.08C178.711 377.66 178.468 377.31 178.155 377.03C177.841 376.743 177.471 376.55 177.045 376.45V375.6C177.665 375.753 178.198 376.013 178.645 376.38C179.091 376.747 179.435 377.197 179.675 377.73C179.921 378.257 180.045 378.847 180.045 379.5V381.3C180.045 382.293 179.781 383.133 179.255 383.82C178.728 384.507 177.991 384.967 177.045 385.2Z" fill="white"/>
<circle cx="4" cy="381" r="4" fill="#580376"/>
<path d="M79.89 188.1C79.45 188.1 79.0633 188.013 78.73 187.84C78.4033 187.66 78.15 187.413 77.97 187.1C77.79 186.787 77.7 186.42 77.7 186H78.6C78.6 186.407 78.7133 186.727 78.94 186.96C79.1733 187.187 79.4933 187.3 79.9 187.3C80.3133 187.3 80.6333 187.18 80.86 186.94C81.0867 186.7 81.2 186.387 81.2 186V185.48C81.2 185.067 81.0867 184.747 80.86 184.52C80.6333 184.293 80.3133 184.18 79.9 184.18H79.15V183.28L80.96 181.52H78V180.7H81.87V181.6L79.92 183.49V183.38C80.5867 183.38 81.1167 183.57 81.51 183.95C81.9033 184.33 82.1 184.84 82.1 185.48V186C82.1 186.42 82.0067 186.787 81.82 187.1C81.64 187.413 81.3833 187.66 81.05 187.84C80.7167 188.013 80.33 188.1 79.89 188.1ZM86.0061 188.1C85.5394 188.1 85.1294 188.003 84.7761 187.81C84.4294 187.61 84.1594 187.333 83.9661 186.98C83.7728 186.627 83.6761 186.217 83.6761 185.75C83.6761 185.383 83.7261 185.023 83.8261 184.67C83.9328 184.317 84.0894 183.977 84.2961 183.65L86.1261 180.7H87.1261L85.0561 184.02L85.0961 184.05C85.2228 183.863 85.3961 183.72 85.6161 183.62C85.8361 183.52 86.0828 183.47 86.3561 183.47C86.7561 183.47 87.1028 183.563 87.3961 183.75C87.6894 183.937 87.9161 184.2 88.0761 184.54C88.2361 184.88 88.3161 185.283 88.3161 185.75C88.3161 186.217 88.2194 186.627 88.0261 186.98C87.8328 187.333 87.5628 187.61 87.2161 187.81C86.8761 188.003 86.4728 188.1 86.0061 188.1ZM85.9961 187.3C86.4228 187.3 86.7661 187.16 87.0261 186.88C87.2861 186.593 87.4161 186.217 87.4161 185.75C87.4161 185.283 87.2861 184.91 87.0261 184.63C86.7661 184.343 86.4228 184.2 85.9961 184.2C85.5694 184.2 85.2261 184.343 84.9661 184.63C84.7061 184.91 84.5761 185.283 84.5761 185.75C84.5761 186.217 84.7061 186.593 84.9661 186.88C85.2261 187.16 85.5694 187.3 85.9961 187.3ZM89.7522 188V182.5H90.9722L91.6922 184.61C91.7655 184.823 91.8322 185.037 91.8922 185.25C91.9522 185.457 91.9955 185.617 92.0222 185.73C92.0489 185.617 92.0889 185.457 92.1422 185.25C92.2022 185.037 92.2655 184.82 92.3322 184.6L93.0122 182.5H94.2322V188H93.3622V187.15C93.3622 186.85 93.3655 186.523 93.3722 186.17C93.3789 185.817 93.3855 185.46 93.3922 185.1C93.4055 184.74 93.4189 184.4 93.4322 184.08C93.4455 183.753 93.4555 183.467 93.4622 183.22L92.4822 186.35H91.5322L90.5422 183.24C90.5555 183.54 90.5655 183.913 90.5722 184.36C90.5855 184.807 90.5955 185.273 90.6022 185.76C90.6155 186.247 90.6222 186.71 90.6222 187.15V188H89.7522ZM95.2383 188.07V187.23H95.4183C95.7249 187.23 95.9383 187.11 96.0583 186.87C96.1849 186.63 96.2516 186.2 96.2583 185.58L96.3183 182.5H100.048V188H99.1483V183.32H97.2083L97.1583 185.62C97.1449 186.2 97.0783 186.67 96.9583 187.03C96.8449 187.39 96.6649 187.653 96.4183 187.82C96.1783 187.987 95.8616 188.07 95.4683 188.07H95.2383ZM101.924 188V182.5H102.824V184.79H105.144V182.5H106.044V188H105.144V185.61H102.824V188H101.924ZM113.917 188V182.5H114.777V185.5C114.777 185.693 114.77 185.897 114.757 186.11C114.75 186.323 114.737 186.527 114.717 186.72C114.703 186.907 114.687 187.067 114.667 187.2L116.887 182.5H118.037V188H117.177V185C117.177 184.807 117.18 184.603 117.187 184.39C117.2 184.177 117.217 183.973 117.237 183.78C117.257 183.58 117.273 183.417 117.287 183.29L115.067 188H113.917ZM120.273 188V182.5H124.223V183.32H121.173V188H120.273ZM125.889 189.8V182.5H126.789V183.55H126.969L126.789 183.76C126.789 183.34 126.925 183.01 127.199 182.77C127.479 182.523 127.845 182.4 128.299 182.4C128.852 182.4 129.292 182.583 129.619 182.95C129.952 183.31 130.119 183.807 130.119 184.44V186.05C130.119 186.47 130.042 186.833 129.889 187.14C129.742 187.447 129.532 187.683 129.259 187.85C128.992 188.017 128.672 188.1 128.299 188.1C127.852 188.1 127.489 187.977 127.209 187.73C126.929 187.483 126.789 187.153 126.789 186.74L126.969 186.95H126.769L126.789 188.2V189.8H125.889ZM127.999 187.32C128.379 187.32 128.675 187.207 128.889 186.98C129.109 186.753 129.219 186.427 129.219 186V184.5C129.219 184.073 129.109 183.747 128.889 183.52C128.675 183.293 128.379 183.18 127.999 183.18C127.632 183.18 127.339 183.297 127.119 183.53C126.899 183.763 126.789 184.087 126.789 184.5V186C126.789 186.413 126.899 186.737 127.119 186.97C127.339 187.203 127.632 187.32 127.999 187.32ZM133.965 188.08C133.525 188.08 133.145 187.997 132.825 187.83C132.505 187.663 132.255 187.423 132.075 187.11C131.902 186.79 131.815 186.413 131.815 185.98V184.52C131.815 184.08 131.902 183.703 132.075 183.39C132.255 183.077 132.505 182.837 132.825 182.67C133.145 182.503 133.525 182.42 133.965 182.42C134.405 182.42 134.785 182.503 135.105 182.67C135.425 182.837 135.672 183.077 135.845 183.39C136.025 183.703 136.115 184.077 136.115 184.51V185.98C136.115 186.413 136.025 186.79 135.845 187.11C135.672 187.423 135.425 187.663 135.105 187.83C134.785 187.997 134.405 188.08 133.965 188.08ZM133.965 187.28C134.358 187.28 134.665 187.17 134.885 186.95C135.105 186.73 135.215 186.407 135.215 185.98V184.52C135.215 184.093 135.105 183.77 134.885 183.55C134.665 183.33 134.358 183.22 133.965 183.22C133.578 183.22 133.272 183.33 133.045 183.55C132.825 183.77 132.715 184.093 132.715 184.52V185.98C132.715 186.407 132.825 186.73 133.045 186.95C133.272 187.17 133.578 187.28 133.965 187.28ZM137.931 188V182.5H138.831V184.77H139.771L141.371 182.5H142.401L140.551 185.12L142.431 188H141.381L139.781 185.55H138.831V188H137.931ZM145.957 188.08C145.517 188.08 145.137 187.997 144.817 187.83C144.497 187.663 144.247 187.423 144.067 187.11C143.894 186.79 143.807 186.413 143.807 185.98V184.52C143.807 184.08 143.894 183.703 144.067 183.39C144.247 183.077 144.497 182.837 144.817 182.67C145.137 182.503 145.517 182.42 145.957 182.42C146.397 182.42 146.777 182.503 147.097 182.67C147.417 182.837 147.664 183.077 147.837 183.39C148.017 183.703 148.107 184.077 148.107 184.51V185.98C148.107 186.413 148.017 186.79 147.837 187.11C147.664 187.423 147.417 187.663 147.097 187.83C146.777 187.997 146.397 188.08 145.957 188.08ZM145.957 187.28C146.35 187.28 146.657 187.17 146.877 186.95C147.097 186.73 147.207 186.407 147.207 185.98V184.52C147.207 184.093 147.097 183.77 146.877 183.55C146.657 183.33 146.35 183.22 145.957 183.22C145.57 183.22 145.264 183.33 145.037 183.55C144.817 183.77 144.707 184.093 144.707 184.52V185.98C144.707 186.407 144.817 186.73 145.037 186.95C145.264 187.17 145.57 187.28 145.957 187.28ZM149.893 188V182.5H152.273C152.846 182.5 153.29 182.63 153.603 182.89C153.916 183.143 154.073 183.5 154.073 183.96C154.073 184.34 153.943 184.647 153.683 184.88C153.423 185.107 153.08 185.22 152.653 185.22V185.14C153.12 185.14 153.493 185.257 153.773 185.49C154.06 185.723 154.203 186.037 154.203 186.43C154.203 186.923 154.036 187.31 153.703 187.59C153.37 187.863 152.903 188 152.303 188H149.893ZM150.773 187.21H152.303C152.623 187.21 152.87 187.14 153.043 187C153.223 186.86 153.313 186.663 153.313 186.41C153.313 186.15 153.223 185.95 153.043 185.81C152.87 185.67 152.623 185.6 152.303 185.6H150.773V187.21ZM150.773 184.82H152.273C152.553 184.82 152.773 184.753 152.933 184.62C153.1 184.487 153.183 184.3 153.183 184.06C153.183 183.82 153.103 183.633 152.943 183.5C152.783 183.36 152.56 183.29 152.273 183.29H150.773V184.82ZM161.885 188V182.5H164.265C164.839 182.5 165.282 182.63 165.595 182.89C165.909 183.143 166.065 183.5 166.065 183.96C166.065 184.34 165.935 184.647 165.675 184.88C165.415 185.107 165.072 185.22 164.645 185.22V185.14C165.112 185.14 165.485 185.257 165.765 185.49C166.052 185.723 166.195 186.037 166.195 186.43C166.195 186.923 166.029 187.31 165.695 187.59C165.362 187.863 164.895 188 164.295 188H161.885ZM162.765 187.21H164.295C164.615 187.21 164.862 187.14 165.035 187C165.215 186.86 165.305 186.663 165.305 186.41C165.305 186.15 165.215 185.95 165.035 185.81C164.862 185.67 164.615 185.6 164.295 185.6H162.765V187.21ZM162.765 184.82H164.265C164.545 184.82 164.765 184.753 164.925 184.62C165.092 184.487 165.175 184.3 165.175 184.06C165.175 183.82 165.095 183.633 164.935 183.5C164.775 183.36 164.552 183.29 164.265 183.29H162.765V184.82ZM169.961 188.1C169.521 188.1 169.135 188.017 168.801 187.85C168.475 187.683 168.221 187.443 168.041 187.13C167.861 186.81 167.771 186.433 167.771 186V184.5C167.771 184.06 167.861 183.683 168.041 183.37C168.221 183.057 168.475 182.817 168.801 182.65C169.135 182.483 169.521 182.4 169.961 182.4C170.595 182.4 171.105 182.57 171.491 182.91C171.878 183.25 172.081 183.713 172.101 184.3H171.201C171.181 183.947 171.061 183.677 170.841 183.49C170.628 183.297 170.335 183.2 169.961 183.2C169.568 183.2 169.255 183.313 169.021 183.54C168.788 183.76 168.671 184.077 168.671 184.49V186C168.671 186.413 168.788 186.733 169.021 186.96C169.255 187.187 169.568 187.3 169.961 187.3C170.335 187.3 170.628 187.203 170.841 187.01C171.061 186.817 171.181 186.547 171.201 186.2H172.101C172.081 186.787 171.878 187.25 171.491 187.59C171.105 187.93 170.595 188.1 169.961 188.1ZM175.938 188.1C175.504 188.1 175.124 188.013 174.798 187.84C174.478 187.667 174.228 187.423 174.048 187.11C173.874 186.79 173.788 186.42 173.788 186V184.5C173.788 184.073 173.874 183.703 174.048 183.39C174.228 183.077 174.478 182.833 174.798 182.66C175.124 182.487 175.504 182.4 175.938 182.4C176.371 182.4 176.748 182.487 177.068 182.66C177.394 182.833 177.644 183.077 177.818 183.39C177.998 183.703 178.088 184.073 178.088 184.5V185.47H174.668V186C174.668 186.433 174.778 186.767 174.998 187C175.218 187.227 175.531 187.34 175.938 187.34C176.284 187.34 176.564 187.28 176.778 187.16C176.991 187.033 177.121 186.847 177.168 186.6H178.068C178.008 187.06 177.781 187.427 177.388 187.7C177.001 187.967 176.518 188.1 175.938 188.1ZM177.208 184.87V184.5C177.208 184.067 177.098 183.733 176.878 183.5C176.664 183.267 176.351 183.15 175.938 183.15C175.531 183.15 175.218 183.267 174.998 183.5C174.778 183.733 174.668 184.067 174.668 184.5V184.79H177.278L177.208 184.87ZM180.234 188V182.5H184.184V183.32H181.134V188H180.234ZM187.93 188.08C187.49 188.08 187.11 187.997 186.79 187.83C186.47 187.663 186.22 187.423 186.04 187.11C185.866 186.79 185.78 186.413 185.78 185.98V184.52C185.78 184.08 185.866 183.703 186.04 183.39C186.22 183.077 186.47 182.837 186.79 182.67C187.11 182.503 187.49 182.42 187.93 182.42C188.37 182.42 188.75 182.503 189.07 182.67C189.39 182.837 189.636 183.077 189.81 183.39C189.99 183.703 190.08 184.077 190.08 184.51V185.98C190.08 186.413 189.99 186.79 189.81 187.11C189.636 187.423 189.39 187.663 189.07 187.83C188.75 187.997 188.37 188.08 187.93 188.08ZM187.93 187.28C188.323 187.28 188.63 187.17 188.85 186.95C189.07 186.73 189.18 186.407 189.18 185.98V184.52C189.18 184.093 189.07 183.77 188.85 183.55C188.63 183.33 188.323 183.22 187.93 183.22C187.543 183.22 187.236 183.33 187.01 183.55C186.79 183.77 186.68 184.093 186.68 184.52V185.98C186.68 186.407 186.79 186.73 187.01 186.95C187.236 187.17 187.543 187.28 187.93 187.28Z" fill="white" fill-opacity="0.8"/>
</svg>
