<svg width="284" height="253" viewBox="0 0 284 253" fill="none" xmlns="http://www.w3.org/2000/svg">
<path d="M15.85 223L18.46 216.52H15.7V217.6H14.8V215.7H19.35V216.58L16.82 223H15.85ZM22.9761 223.1C22.3828 223.1 21.8961 222.947 21.5161 222.64C21.1361 222.333 20.9128 221.92 20.8461 221.4H21.7461C21.7794 221.687 21.9028 221.91 22.1161 222.07C22.3294 222.223 22.6194 222.3 22.9861 222.3C23.4061 222.3 23.7194 222.187 23.9261 221.96C24.1394 221.733 24.2461 221.413 24.2461 221V220.29C24.2461 219.877 24.1394 219.557 23.9261 219.33C23.7194 219.103 23.4094 218.99 22.9961 218.99C22.7361 218.99 22.5094 219.06 22.3161 219.2C22.1228 219.333 21.9828 219.513 21.8961 219.74H20.9961L21.0461 215.7H24.8861V216.52H21.9161L21.8861 218.95H22.1661L21.8861 219.21C21.8861 218.897 22.0094 218.65 22.2561 218.47C22.5094 218.29 22.8461 218.2 23.2661 218.2C23.8594 218.193 24.3194 218.377 24.6461 218.75C24.9794 219.117 25.1461 219.63 25.1461 220.29V221C25.1461 221.647 24.9561 222.16 24.5761 222.54C24.1961 222.913 23.6628 223.1 22.9761 223.1ZM26.1322 223L31.1122 215.7H31.8522L26.8722 223H26.1322ZM30.4422 223.05C30.0222 223.05 29.6855 222.93 29.4322 222.69C29.1789 222.45 29.0522 222.12 29.0522 221.7V221.05C29.0522 220.63 29.1789 220.3 29.4322 220.06C29.6855 219.82 30.0222 219.7 30.4422 219.7C30.8622 219.7 31.1989 219.82 31.4522 220.06C31.7055 220.3 31.8322 220.63 31.8322 221.05V221.7C31.8322 222.12 31.7055 222.45 31.4522 222.69C31.1989 222.93 30.8622 223.05 30.4422 223.05ZM30.4422 222.36C30.8755 222.36 31.0922 222.14 31.0922 221.7V221.05C31.0922 220.603 30.8755 220.38 30.4422 220.38C30.0089 220.38 29.7922 220.603 29.7922 221.05V221.7C29.7922 222.14 30.0089 222.36 30.4422 222.36ZM27.5422 219C27.1222 219 26.7855 218.88 26.5322 218.64C26.2789 218.4 26.1522 218.07 26.1522 217.65V217C26.1522 216.58 26.2789 216.25 26.5322 216.01C26.7855 215.77 27.1222 215.65 27.5422 215.65C27.9622 215.65 28.2989 215.77 28.5522 216.01C28.8055 216.25 28.9322 216.58 28.9322 217V217.65C28.9322 218.07 28.8055 218.4 28.5522 218.64C28.2989 218.88 27.9622 219 27.5422 219ZM27.5422 218.32C27.9755 218.32 28.1922 218.097 28.1922 217.65V217C28.1922 216.553 27.9755 216.33 27.5422 216.33C27.3289 216.33 27.1655 216.387 27.0522 216.5C26.9455 216.607 26.8922 216.773 26.8922 217V217.65C26.8922 217.877 26.9455 218.047 27.0522 218.16C27.1655 218.267 27.3289 218.32 27.5422 218.32ZM37.9844 220.1V219.3H43.9844V220.1H37.9844ZM51.0266 223V222.18H52.5166V216.52H51.0266V215.7H54.9266V216.52H53.4366V222.18H54.9266V223H51.0266ZM56.8927 223V217.5H57.7927V218.55H57.9827L57.7927 218.76C57.7927 218.327 57.9227 217.993 58.1827 217.76C58.4427 217.52 58.8027 217.4 59.2627 217.4C59.816 217.4 60.256 217.57 60.5827 217.91C60.9093 218.25 61.0727 218.713 61.0727 219.3V223H60.1727V219.4C60.1727 219.007 60.066 218.707 59.8527 218.5C59.646 218.287 59.3627 218.18 59.0027 218.18C58.6293 218.18 58.3327 218.293 58.1127 218.52C57.8993 218.747 57.7927 219.073 57.7927 219.5V223H56.8927ZM64.3588 223L62.5188 217.5H63.4387L64.6588 221.2C64.7321 221.42 64.7988 221.633 64.8588 221.84C64.9188 222.04 64.9621 222.197 64.9888 222.31C65.0221 222.197 65.0688 222.04 65.1288 221.84C65.1888 221.633 65.2521 221.42 65.3188 221.2L66.5088 217.5H67.4188L65.5788 223H64.3588ZM70.9648 223.1C70.5315 223.1 70.1515 223.013 69.8248 222.84C69.5048 222.667 69.2548 222.423 69.0748 222.11C68.9015 221.79 68.8148 221.42 68.8148 221V219.5C68.8148 219.073 68.9015 218.703 69.0748 218.39C69.2548 218.077 69.5048 217.833 69.8248 217.66C70.1515 217.487 70.5315 217.4 70.9648 217.4C71.3982 217.4 71.7748 217.487 72.0948 217.66C72.4215 217.833 72.6715 218.077 72.8448 218.39C73.0248 218.703 73.1148 219.073 73.1148 219.5V220.47H69.6948V221C69.6948 221.433 69.8048 221.767 70.0248 222C70.2448 222.227 70.5582 222.34 70.9648 222.34C71.3115 222.34 71.5915 222.28 71.8048 222.16C72.0182 222.033 72.1482 221.847 72.1948 221.6H73.0948C73.0348 222.06 72.8082 222.427 72.4148 222.7C72.0282 222.967 71.5448 223.1 70.9648 223.1ZM72.2348 219.87V219.5C72.2348 219.067 72.1248 218.733 71.9048 218.5C71.6915 218.267 71.3782 218.15 70.9648 218.15C70.5582 218.15 70.2448 218.267 70.0248 218.5C69.8048 218.733 69.6948 219.067 69.6948 219.5V219.79H72.3048L72.2348 219.87ZM76.7909 223.08C76.4176 223.08 76.0909 223.023 75.8109 222.91C75.5376 222.79 75.3176 222.623 75.1509 222.41C74.9909 222.197 74.8943 221.943 74.8609 221.65H75.7609C75.8009 221.843 75.9076 221.997 76.0809 222.11C76.2609 222.223 76.4976 222.28 76.7909 222.28H77.2109C77.5643 222.28 77.8276 222.21 78.0009 222.07C78.1743 221.923 78.2609 221.73 78.2609 221.49C78.2609 221.257 78.1809 221.073 78.0209 220.94C77.8676 220.8 77.6376 220.707 77.3309 220.66L76.5909 220.54C76.0509 220.447 75.6476 220.28 75.3809 220.04C75.1209 219.793 74.9909 219.437 74.9909 218.97C74.9909 218.477 75.1476 218.097 75.4609 217.83C75.7743 217.557 76.2443 217.42 76.8709 217.42H77.2509C77.7776 217.42 78.2009 217.543 78.5209 217.79C78.8409 218.037 79.0343 218.37 79.1009 218.79H78.2009C78.1609 218.617 78.0609 218.48 77.9009 218.38C77.7409 218.273 77.5243 218.22 77.2509 218.22H76.8709C76.5309 218.22 76.2809 218.283 76.1209 218.41C75.9676 218.537 75.8909 218.727 75.8909 218.98C75.8909 219.207 75.9576 219.373 76.0909 219.48C76.2243 219.587 76.4343 219.663 76.7209 219.71L77.4609 219.83C78.0543 219.923 78.4843 220.097 78.7509 220.35C79.0243 220.603 79.1609 220.97 79.1609 221.45C79.1609 221.957 78.9976 222.357 78.6709 222.65C78.3509 222.937 77.8643 223.08 77.2109 223.08H76.7909ZM83.557 223C83.0837 223 82.7137 222.873 82.447 222.62C82.187 222.367 82.057 222.01 82.057 221.55V218.32H80.507V217.5H82.057V215.95H82.957V217.5H85.157V218.32H82.957V221.55C82.957 221.97 83.157 222.18 83.557 222.18H85.057V223H83.557ZM88.9531 223.08C88.5131 223.08 88.1331 222.997 87.8131 222.83C87.4931 222.663 87.2431 222.423 87.0631 222.11C86.8898 221.79 86.8031 221.413 86.8031 220.98V219.52C86.8031 219.08 86.8898 218.703 87.0631 218.39C87.2431 218.077 87.4931 217.837 87.8131 217.67C88.1331 217.503 88.5131 217.42 88.9531 217.42C89.3931 217.42 89.7731 217.503 90.0931 217.67C90.4131 217.837 90.6598 218.077 90.8331 218.39C91.0131 218.703 91.1031 219.077 91.1031 219.51V220.98C91.1031 221.413 91.0131 221.79 90.8331 222.11C90.6598 222.423 90.4131 222.663 90.0931 222.83C89.7731 222.997 89.3931 223.08 88.9531 223.08ZM88.9531 222.28C89.3465 222.28 89.6531 222.17 89.8731 221.95C90.0931 221.73 90.2031 221.407 90.2031 220.98V219.52C90.2031 219.093 90.0931 218.77 89.8731 218.55C89.6531 218.33 89.3465 218.22 88.9531 218.22C88.5665 218.22 88.2598 218.33 88.0331 218.55C87.8131 218.77 87.7031 219.093 87.7031 219.52V220.98C87.7031 221.407 87.8131 221.73 88.0331 221.95C88.2598 222.17 88.5665 222.28 88.9531 222.28ZM93.0592 223V217.5H93.9392V218.55H94.1492L93.8592 219.2C93.8592 218.607 93.9859 218.16 94.2392 217.86C94.4992 217.553 94.8826 217.4 95.3892 217.4C95.9692 217.4 96.4292 217.583 96.7692 217.95C97.1159 218.31 97.2892 218.8 97.2892 219.42V219.75H96.3892V219.5C96.3892 219.067 96.2826 218.737 96.0692 218.51C95.8626 218.277 95.5659 218.16 95.1792 218.16C94.7992 218.16 94.4992 218.277 94.2792 218.51C94.0659 218.743 93.9592 219.073 93.9592 219.5V223H93.0592ZM100.775 223.08C100.402 223.08 100.075 223.023 99.7953 222.91C99.522 222.79 99.302 222.623 99.1353 222.41C98.9753 222.197 98.8786 221.943 98.8453 221.65H99.7453C99.7853 221.843 99.892 221.997 100.065 222.11C100.245 222.223 100.482 222.28 100.775 222.28H101.195C101.549 222.28 101.812 222.21 101.985 222.07C102.159 221.923 102.245 221.73 102.245 221.49C102.245 221.257 102.165 221.073 102.005 220.94C101.852 220.8 101.622 220.707 101.315 220.66L100.575 220.54C100.035 220.447 99.632 220.28 99.3653 220.04C99.1053 219.793 98.9753 219.437 98.9753 218.97C98.9753 218.477 99.132 218.097 99.4453 217.83C99.7586 217.557 100.229 217.42 100.855 217.42H101.235C101.762 217.42 102.185 217.543 102.505 217.79C102.825 218.037 103.019 218.37 103.085 218.79H102.185C102.145 218.617 102.045 218.48 101.885 218.38C101.725 218.273 101.509 218.22 101.235 218.22H100.855C100.515 218.22 100.265 218.283 100.105 218.41C99.952 218.537 99.8753 218.727 99.8753 218.98C99.8753 219.207 99.942 219.373 100.075 219.48C100.209 219.587 100.419 219.663 100.705 219.71L101.445 219.83C102.039 219.923 102.469 220.097 102.735 220.35C103.009 220.603 103.145 220.97 103.145 221.45C103.145 221.957 102.982 222.357 102.655 222.65C102.335 222.937 101.849 223.08 101.195 223.08H100.775ZM105.591 224.6L106.391 221.49H107.691L106.391 224.6H105.591ZM116.884 223V215.69H121.184V216.51H117.764V218.94H120.924V219.76H117.784V223H116.884ZM124.93 223.08C124.49 223.08 124.11 222.997 123.79 222.83C123.47 222.663 123.22 222.423 123.04 222.11C122.866 221.79 122.78 221.413 122.78 220.98V219.52C122.78 219.08 122.866 218.703 123.04 218.39C123.22 218.077 123.47 217.837 123.79 217.67C124.11 217.503 124.49 217.42 124.93 217.42C125.37 217.42 125.75 217.503 126.07 217.67C126.39 217.837 126.636 218.077 126.81 218.39C126.99 218.703 127.08 219.077 127.08 219.51V220.98C127.08 221.413 126.99 221.79 126.81 222.11C126.636 222.423 126.39 222.663 126.07 222.83C125.75 222.997 125.37 223.08 124.93 223.08ZM124.93 222.28C125.323 222.28 125.63 222.17 125.85 221.95C126.07 221.73 126.18 221.407 126.18 220.98V219.52C126.18 219.093 126.07 218.77 125.85 218.55C125.63 218.33 125.323 218.22 124.93 218.22C124.543 218.22 124.236 218.33 124.01 218.55C123.79 218.77 123.68 219.093 123.68 219.52V220.98C123.68 221.407 123.79 221.73 124.01 221.95C124.236 222.17 124.543 222.28 124.93 222.28ZM130.916 223.1C130.282 223.1 129.776 222.913 129.396 222.54C129.016 222.16 128.826 221.647 128.826 221V217.5H129.726V221C129.726 221.413 129.832 221.737 130.046 221.97C130.259 222.197 130.549 222.31 130.916 222.31C131.289 222.31 131.582 222.197 131.796 221.97C132.016 221.737 132.126 221.413 132.126 221V217.5H133.026V221C133.026 221.647 132.832 222.16 132.446 222.54C132.059 222.913 131.549 223.1 130.916 223.1ZM134.842 223V217.5H135.742V218.55H135.932L135.742 218.76C135.742 218.327 135.872 217.993 136.132 217.76C136.392 217.52 136.752 217.4 137.212 217.4C137.765 217.4 138.205 217.57 138.532 217.91C138.859 218.25 139.022 218.713 139.022 219.3V223H138.122V219.4C138.122 219.007 138.015 218.707 137.802 218.5C137.595 218.287 137.312 218.18 136.952 218.18C136.579 218.18 136.282 218.293 136.062 218.52C135.849 218.747 135.742 219.073 135.742 219.5V223H134.842ZM142.598 223.1C142.051 223.1 141.608 222.917 141.268 222.55C140.935 222.183 140.768 221.687 140.768 221.06V219.45C140.768 218.817 140.935 218.317 141.268 217.95C141.601 217.583 142.045 217.4 142.598 217.4C143.051 217.4 143.415 217.523 143.688 217.77C143.961 218.017 144.098 218.347 144.098 218.76L143.918 218.55H144.118L144.098 217.3V215.7H144.998V223H144.098V221.95H143.918L144.098 221.74C144.098 222.16 143.961 222.493 143.688 222.74C143.415 222.98 143.051 223.1 142.598 223.1ZM142.898 222.32C143.271 222.32 143.565 222.203 143.778 221.97C143.991 221.737 144.098 221.413 144.098 221V219.5C144.098 219.087 143.991 218.763 143.778 218.53C143.565 218.297 143.271 218.18 142.898 218.18C142.518 218.18 142.218 218.293 141.998 218.52C141.778 218.747 141.668 219.073 141.668 219.5V221C141.668 221.427 141.778 221.753 141.998 221.98C142.218 222.207 142.518 222.32 142.898 222.32ZM148.914 223.1C148.481 223.1 148.101 223.013 147.774 222.84C147.454 222.667 147.204 222.423 147.024 222.11C146.851 221.79 146.764 221.42 146.764 221V219.5C146.764 219.073 146.851 218.703 147.024 218.39C147.204 218.077 147.454 217.833 147.774 217.66C148.101 217.487 148.481 217.4 148.914 217.4C149.347 217.4 149.724 217.487 150.044 217.66C150.371 217.833 150.621 218.077 150.794 218.39C150.974 218.703 151.064 219.073 151.064 219.5V220.47H147.644V221C147.644 221.433 147.754 221.767 147.974 222C148.194 222.227 148.507 222.34 148.914 222.34C149.261 222.34 149.541 222.28 149.754 222.16C149.967 222.033 150.097 221.847 150.144 221.6H151.044C150.984 222.06 150.757 222.427 150.364 222.7C149.977 222.967 149.494 223.1 148.914 223.1ZM150.184 219.87V219.5C150.184 219.067 150.074 218.733 149.854 218.5C149.641 218.267 149.327 218.15 148.914 218.15C148.507 218.15 148.194 218.267 147.974 218.5C147.754 218.733 147.644 219.067 147.644 219.5V219.79H150.254L150.184 219.87ZM153.02 223V217.5H153.9V218.55H154.11L153.82 219.2C153.82 218.607 153.947 218.16 154.2 217.86C154.46 217.553 154.843 217.4 155.35 217.4C155.93 217.4 156.39 217.583 156.73 217.95C157.077 218.31 157.25 218.8 157.25 219.42V219.75H156.35V219.5C156.35 219.067 156.243 218.737 156.03 218.51C155.823 218.277 155.527 218.16 155.14 218.16C154.76 218.16 154.46 218.277 154.24 218.51C154.027 218.743 153.92 219.073 153.92 219.5V223H153.02ZM160.736 223.08C160.363 223.08 160.036 223.023 159.756 222.91C159.483 222.79 159.263 222.623 159.096 222.41C158.936 222.197 158.84 221.943 158.806 221.65H159.706C159.746 221.843 159.853 221.997 160.026 222.11C160.206 222.223 160.443 222.28 160.736 222.28H161.156C161.51 222.28 161.773 222.21 161.946 222.07C162.12 221.923 162.206 221.73 162.206 221.49C162.206 221.257 162.126 221.073 161.966 220.94C161.813 220.8 161.583 220.707 161.276 220.66L160.536 220.54C159.996 220.447 159.593 220.28 159.326 220.04C159.066 219.793 158.936 219.437 158.936 218.97C158.936 218.477 159.093 218.097 159.406 217.83C159.72 217.557 160.19 217.42 160.816 217.42H161.196C161.723 217.42 162.146 217.543 162.466 217.79C162.786 218.037 162.98 218.37 163.046 218.79H162.146C162.106 218.617 162.006 218.48 161.846 218.38C161.686 218.273 161.47 218.22 161.196 218.22H160.816C160.476 218.22 160.226 218.283 160.066 218.41C159.913 218.537 159.836 218.727 159.836 218.98C159.836 219.207 159.903 219.373 160.036 219.48C160.17 219.587 160.38 219.663 160.666 219.71L161.406 219.83C162 219.923 162.43 220.097 162.696 220.35C162.97 220.603 163.106 220.97 163.106 221.45C163.106 221.957 162.943 222.357 162.616 222.65C162.296 222.937 161.81 223.08 161.156 223.08H160.736ZM165.552 224.6L166.352 221.49H167.652L166.352 224.6H165.552ZM176.895 223V215.7H181.095V216.52H177.785V218.78H180.745V219.59H177.785V222.18H181.095V223H176.895ZM182.551 223V217.5H183.341V218.16H183.521L183.381 218.4C183.381 218.093 183.461 217.85 183.621 217.67C183.787 217.49 184.011 217.4 184.291 217.4C184.597 217.4 184.834 217.513 185.001 217.74C185.167 217.967 185.251 218.287 185.251 218.7L184.981 218.16H185.401L185.211 218.4C185.211 218.093 185.294 217.85 185.461 217.67C185.634 217.49 185.861 217.4 186.141 217.4C186.487 217.4 186.754 217.53 186.941 217.79C187.134 218.05 187.231 218.393 187.231 218.82V223H186.401V218.81C186.401 218.583 186.351 218.407 186.251 218.28C186.157 218.153 186.017 218.09 185.831 218.09C185.651 218.09 185.507 218.153 185.401 218.28C185.301 218.4 185.251 218.573 185.251 218.8V223H184.531V218.81C184.531 218.577 184.477 218.4 184.371 218.28C184.271 218.153 184.127 218.09 183.941 218.09C183.754 218.09 183.614 218.153 183.521 218.28C183.427 218.4 183.381 218.573 183.381 218.8V223H182.551ZM188.807 224.8V217.5H189.707V218.55H189.887L189.707 218.76C189.707 218.34 189.843 218.01 190.117 217.77C190.397 217.523 190.763 217.4 191.217 217.4C191.77 217.4 192.21 217.583 192.537 217.95C192.87 218.31 193.037 218.807 193.037 219.44V221.05C193.037 221.47 192.96 221.833 192.807 222.14C192.66 222.447 192.45 222.683 192.177 222.85C191.91 223.017 191.59 223.1 191.217 223.1C190.77 223.1 190.407 222.977 190.127 222.73C189.847 222.483 189.707 222.153 189.707 221.74L189.887 221.95H189.687L189.707 223.2V224.8H188.807ZM190.917 222.32C191.297 222.32 191.593 222.207 191.807 221.98C192.027 221.753 192.137 221.427 192.137 221V219.5C192.137 219.073 192.027 218.747 191.807 218.52C191.593 218.293 191.297 218.18 190.917 218.18C190.55 218.18 190.257 218.297 190.037 218.53C189.817 218.763 189.707 219.087 189.707 219.5V221C189.707 221.413 189.817 221.737 190.037 221.97C190.257 222.203 190.55 222.32 190.917 222.32ZM197.633 223C197.313 223 197.033 222.937 196.793 222.81C196.553 222.683 196.366 222.503 196.233 222.27C196.099 222.037 196.033 221.763 196.033 221.45V216.52H194.183V215.7H196.933V221.45C196.933 221.677 196.996 221.857 197.123 221.99C197.249 222.117 197.419 222.18 197.633 222.18H199.383V223H197.633ZM202.879 223.08C202.439 223.08 202.059 222.997 201.739 222.83C201.419 222.663 201.169 222.423 200.989 222.11C200.816 221.79 200.729 221.413 200.729 220.98V219.52C200.729 219.08 200.816 218.703 200.989 218.39C201.169 218.077 201.419 217.837 201.739 217.67C202.059 217.503 202.439 217.42 202.879 217.42C203.319 217.42 203.699 217.503 204.019 217.67C204.339 217.837 204.586 218.077 204.759 218.39C204.939 218.703 205.029 219.077 205.029 219.51V220.98C205.029 221.413 204.939 221.79 204.759 222.11C204.586 222.423 204.339 222.663 204.019 222.83C203.699 222.997 203.319 223.08 202.879 223.08ZM202.879 222.28C203.272 222.28 203.579 222.17 203.799 221.95C204.019 221.73 204.129 221.407 204.129 220.98V219.52C204.129 219.093 204.019 218.77 203.799 218.55C203.579 218.33 203.272 218.22 202.879 218.22C202.492 218.22 202.186 218.33 201.959 218.55C201.739 218.77 201.629 219.093 201.629 219.52V220.98C201.629 221.407 201.739 221.73 201.959 221.95C202.186 222.17 202.492 222.28 202.879 222.28ZM207.655 224.8L208.465 222.66L206.425 217.5H207.425L208.705 220.9C208.752 221.013 208.795 221.15 208.835 221.31C208.875 221.463 208.908 221.593 208.935 221.7C208.962 221.593 208.995 221.463 209.035 221.31C209.075 221.15 209.115 221.013 209.155 220.9L210.355 217.5H211.325L208.615 224.8H207.655ZM214.871 223.1C214.438 223.1 214.058 223.013 213.731 222.84C213.411 222.667 213.161 222.423 212.981 222.11C212.808 221.79 212.721 221.42 212.721 221V219.5C212.721 219.073 212.808 218.703 212.981 218.39C213.161 218.077 213.411 217.833 213.731 217.66C214.058 217.487 214.438 217.4 214.871 217.4C215.304 217.4 215.681 217.487 216.001 217.66C216.328 217.833 216.578 218.077 216.751 218.39C216.931 218.703 217.021 219.073 217.021 219.5V220.47H213.601V221C213.601 221.433 213.711 221.767 213.931 222C214.151 222.227 214.464 222.34 214.871 222.34C215.218 222.34 215.498 222.28 215.711 222.16C215.924 222.033 216.054 221.847 216.101 221.6H217.001C216.941 222.06 216.714 222.427 216.321 222.7C215.934 222.967 215.451 223.1 214.871 223.1ZM216.141 219.87V219.5C216.141 219.067 216.031 218.733 215.811 218.5C215.598 218.267 215.284 218.15 214.871 218.15C214.464 218.15 214.151 218.267 213.931 218.5C213.711 218.733 213.601 219.067 213.601 219.5V219.79H216.211L216.141 219.87ZM220.867 223.1C220.434 223.1 220.054 223.013 219.727 222.84C219.407 222.667 219.157 222.423 218.977 222.11C218.804 221.79 218.717 221.42 218.717 221V219.5C218.717 219.073 218.804 218.703 218.977 218.39C219.157 218.077 219.407 217.833 219.727 217.66C220.054 217.487 220.434 217.4 220.867 217.4C221.301 217.4 221.677 217.487 221.997 217.66C222.324 217.833 222.574 218.077 222.747 218.39C222.927 218.703 223.017 219.073 223.017 219.5V220.47H219.597V221C219.597 221.433 219.707 221.767 219.927 222C220.147 222.227 220.461 222.34 220.867 222.34C221.214 222.34 221.494 222.28 221.707 222.16C221.921 222.033 222.051 221.847 222.097 221.6H222.997C222.937 222.06 222.711 222.427 222.317 222.7C221.931 222.967 221.447 223.1 220.867 223.1ZM222.137 219.87V219.5C222.137 219.067 222.027 218.733 221.807 218.5C221.594 218.267 221.281 218.15 220.867 218.15C220.461 218.15 220.147 218.267 219.927 218.5C219.707 218.733 219.597 219.067 219.597 219.5V219.79H222.207L222.137 219.87ZM226.693 223.08C226.32 223.08 225.993 223.023 225.713 222.91C225.44 222.79 225.22 222.623 225.053 222.41C224.893 222.197 224.797 221.943 224.763 221.65H225.663C225.703 221.843 225.81 221.997 225.983 222.11C226.163 222.223 226.4 222.28 226.693 222.28H227.113C227.467 222.28 227.73 222.21 227.903 222.07C228.077 221.923 228.163 221.73 228.163 221.49C228.163 221.257 228.083 221.073 227.923 220.94C227.77 220.8 227.54 220.707 227.233 220.66L226.493 220.54C225.953 220.447 225.55 220.28 225.283 220.04C225.023 219.793 224.893 219.437 224.893 218.97C224.893 218.477 225.05 218.097 225.363 217.83C225.677 217.557 226.147 217.42 226.773 217.42H227.153C227.68 217.42 228.103 217.543 228.423 217.79C228.743 218.037 228.937 218.37 229.003 218.79H228.103C228.063 218.617 227.963 218.48 227.803 218.38C227.643 218.273 227.427 218.22 227.153 218.22H226.773C226.433 218.22 226.183 218.283 226.023 218.41C225.87 218.537 225.793 218.727 225.793 218.98C225.793 219.207 225.86 219.373 225.993 219.48C226.127 219.587 226.337 219.663 226.623 219.71L227.363 219.83C227.957 219.923 228.387 220.097 228.653 220.35C228.927 220.603 229.063 220.97 229.063 221.45C229.063 221.957 228.9 222.357 228.573 222.65C228.253 222.937 227.767 223.08 227.113 223.08H226.693ZM238.855 223.08C238.415 223.08 238.035 222.997 237.715 222.83C237.395 222.663 237.145 222.423 236.965 222.11C236.792 221.79 236.705 221.413 236.705 220.98V219.52C236.705 219.08 236.792 218.703 236.965 218.39C237.145 218.077 237.395 217.837 237.715 217.67C238.035 217.503 238.415 217.42 238.855 217.42C239.295 217.42 239.675 217.503 239.995 217.67C240.315 217.837 240.562 218.077 240.735 218.39C240.915 218.703 241.005 219.077 241.005 219.51V220.98C241.005 221.413 240.915 221.79 240.735 222.11C240.562 222.423 240.315 222.663 239.995 222.83C239.675 222.997 239.295 223.08 238.855 223.08ZM238.855 222.28C239.249 222.28 239.555 222.17 239.775 221.95C239.995 221.73 240.105 221.407 240.105 220.98V219.52C240.105 219.093 239.995 218.77 239.775 218.55C239.555 218.33 239.249 218.22 238.855 218.22C238.469 218.22 238.162 218.33 237.935 218.55C237.715 218.77 237.605 219.093 237.605 219.52V220.98C237.605 221.407 237.715 221.73 237.935 221.95C238.162 222.17 238.469 222.28 238.855 222.28ZM242.772 224.8V217.5H243.672V218.55H243.852L243.672 218.76C243.672 218.34 243.808 218.01 244.082 217.77C244.362 217.523 244.728 217.4 245.182 217.4C245.735 217.4 246.175 217.583 246.502 217.95C246.835 218.31 247.002 218.807 247.002 219.44V221.05C247.002 221.47 246.925 221.833 246.772 222.14C246.625 222.447 246.415 222.683 246.142 222.85C245.875 223.017 245.555 223.1 245.182 223.1C244.735 223.1 244.372 222.977 244.092 222.73C243.812 222.483 243.672 222.153 243.672 221.74L243.852 221.95H243.652L243.672 223.2V224.8H242.772ZM244.882 222.32C245.262 222.32 245.558 222.207 245.772 221.98C245.992 221.753 246.102 221.427 246.102 221V219.5C246.102 219.073 245.992 218.747 245.772 218.52C245.558 218.293 245.262 218.18 244.882 218.18C244.515 218.18 244.222 218.297 244.002 218.53C243.782 218.763 243.672 219.087 243.672 219.5V221C243.672 221.413 243.782 221.737 244.002 221.97C244.222 222.203 244.515 222.32 244.882 222.32ZM251.448 223C250.974 223 250.604 222.873 250.338 222.62C250.078 222.367 249.948 222.01 249.948 221.55V218.32H248.398V217.5H249.948V215.95H250.848V217.5H253.048V218.32H250.848V221.55C250.848 221.97 251.048 222.18 251.448 222.18H252.948V223H251.448ZM254.694 223V222.18H256.644V218.32H254.944V217.5H257.544V222.18H259.394V223H254.694ZM256.994 216.51C256.774 216.51 256.6 216.453 256.474 216.34C256.347 216.227 256.284 216.073 256.284 215.88C256.284 215.68 256.347 215.523 256.474 215.41C256.6 215.29 256.774 215.23 256.994 215.23C257.214 215.23 257.387 215.29 257.514 215.41C257.64 215.523 257.704 215.68 257.704 215.88C257.704 216.073 257.64 216.227 257.514 216.34C257.387 216.453 257.214 216.51 256.994 216.51ZM262.84 223.08C262.4 223.08 262.02 222.997 261.7 222.83C261.38 222.663 261.13 222.423 260.95 222.11C260.777 221.79 260.69 221.413 260.69 220.98V219.52C260.69 219.08 260.777 218.703 260.95 218.39C261.13 218.077 261.38 217.837 261.7 217.67C262.02 217.503 262.4 217.42 262.84 217.42C263.28 217.42 263.66 217.503 263.98 217.67C264.3 217.837 264.547 218.077 264.72 218.39C264.9 218.703 264.99 219.077 264.99 219.51V220.98C264.99 221.413 264.9 221.79 264.72 222.11C264.547 222.423 264.3 222.663 263.98 222.83C263.66 222.997 263.28 223.08 262.84 223.08ZM262.84 222.28C263.233 222.28 263.54 222.17 263.76 221.95C263.98 221.73 264.09 221.407 264.09 220.98V219.52C264.09 219.093 263.98 218.77 263.76 218.55C263.54 218.33 263.233 218.22 262.84 218.22C262.453 218.22 262.147 218.33 261.92 218.55C261.7 218.77 261.59 219.093 261.59 219.52V220.98C261.59 221.407 261.7 221.73 261.92 221.95C262.147 222.17 262.453 222.28 262.84 222.28ZM266.756 223V217.5H267.656V218.55H267.846L267.656 218.76C267.656 218.327 267.786 217.993 268.046 217.76C268.306 217.52 268.666 217.4 269.126 217.4C269.679 217.4 270.119 217.57 270.446 217.91C270.773 218.25 270.936 218.713 270.936 219.3V223H270.036V219.4C270.036 219.007 269.929 218.707 269.716 218.5C269.509 218.287 269.226 218.18 268.866 218.18C268.493 218.18 268.196 218.293 267.976 218.52C267.763 218.747 267.656 219.073 267.656 219.5V223H266.756ZM274.662 223.08C274.289 223.08 273.962 223.023 273.682 222.91C273.409 222.79 273.189 222.623 273.022 222.41C272.862 222.197 272.765 221.943 272.732 221.65H273.632C273.672 221.843 273.779 221.997 273.952 222.11C274.132 222.223 274.369 222.28 274.662 222.28H275.082C275.435 222.28 275.699 222.21 275.872 222.07C276.045 221.923 276.132 221.73 276.132 221.49C276.132 221.257 276.052 221.073 275.892 220.94C275.739 220.8 275.509 220.707 275.202 220.66L274.462 220.54C273.922 220.447 273.519 220.28 273.252 220.04C272.992 219.793 272.862 219.437 272.862 218.97C272.862 218.477 273.019 218.097 273.332 217.83C273.645 217.557 274.115 217.42 274.742 217.42H275.122C275.649 217.42 276.072 217.543 276.392 217.79C276.712 218.037 276.905 218.37 276.972 218.79H276.072C276.032 218.617 275.932 218.48 275.772 218.38C275.612 218.273 275.395 218.22 275.122 218.22H274.742C274.402 218.22 274.152 218.283 273.992 218.41C273.839 218.537 273.762 218.727 273.762 218.98C273.762 219.207 273.829 219.373 273.962 219.48C274.095 219.587 274.305 219.663 274.592 219.71L275.332 219.83C275.925 219.923 276.355 220.097 276.622 220.35C276.895 220.603 277.032 220.97 277.032 221.45C277.032 221.957 276.869 222.357 276.542 222.65C276.222 222.937 275.735 223.08 275.082 223.08H274.662Z" fill="white"/>
<circle cx="4" cy="220" r="4" fill="#00A25E"/>
<path d="M14.92 250V249.08L17.15 246.71C17.53 246.303 17.8067 245.943 17.98 245.63C18.1533 245.31 18.24 245.003 18.24 244.71C18.24 244.303 18.1267 243.983 17.9 243.75C17.68 243.517 17.3767 243.4 16.99 243.4C16.5633 243.4 16.2267 243.52 15.98 243.76C15.74 244 15.62 244.33 15.62 244.75H14.72C14.7333 244.31 14.8333 243.93 15.02 243.61C15.2133 243.283 15.4767 243.033 15.81 242.86C16.15 242.687 16.5433 242.6 16.99 242.6C17.43 242.6 17.81 242.687 18.13 242.86C18.4567 243.027 18.7067 243.267 18.88 243.58C19.0533 243.893 19.14 244.267 19.14 244.7C19.14 245.113 19.03 245.523 18.81 245.93C18.59 246.337 18.23 246.8 17.73 247.32L15.93 249.18H19.26V250H14.92ZM22.9761 250.1C22.3828 250.1 21.8961 249.947 21.5161 249.64C21.1361 249.333 20.9128 248.92 20.8461 248.4H21.7461C21.7794 248.687 21.9028 248.91 22.1161 249.07C22.3294 249.223 22.6194 249.3 22.9861 249.3C23.4061 249.3 23.7194 249.187 23.9261 248.96C24.1394 248.733 24.2461 248.413 24.2461 248V247.29C24.2461 246.877 24.1394 246.557 23.9261 246.33C23.7194 246.103 23.4094 245.99 22.9961 245.99C22.7361 245.99 22.5094 246.06 22.3161 246.2C22.1228 246.333 21.9828 246.513 21.8961 246.74H20.9961L21.0461 242.7H24.8861V243.52H21.9161L21.8861 245.95H22.1661L21.8861 246.21C21.8861 245.897 22.0094 245.65 22.2561 245.47C22.5094 245.29 22.8461 245.2 23.2661 245.2C23.8594 245.193 24.3194 245.377 24.6461 245.75C24.9794 246.117 25.1461 246.63 25.1461 247.29V248C25.1461 248.647 24.9561 249.16 24.5761 249.54C24.1961 249.913 23.6628 250.1 22.9761 250.1ZM26.1322 250L31.1122 242.7H31.8522L26.8722 250H26.1322ZM30.4422 250.05C30.0222 250.05 29.6855 249.93 29.4322 249.69C29.1789 249.45 29.0522 249.12 29.0522 248.7V248.05C29.0522 247.63 29.1789 247.3 29.4322 247.06C29.6855 246.82 30.0222 246.7 30.4422 246.7C30.8622 246.7 31.1989 246.82 31.4522 247.06C31.7055 247.3 31.8322 247.63 31.8322 248.05V248.7C31.8322 249.12 31.7055 249.45 31.4522 249.69C31.1989 249.93 30.8622 250.05 30.4422 250.05ZM30.4422 249.36C30.8755 249.36 31.0922 249.14 31.0922 248.7V248.05C31.0922 247.603 30.8755 247.38 30.4422 247.38C30.0089 247.38 29.7922 247.603 29.7922 248.05V248.7C29.7922 249.14 30.0089 249.36 30.4422 249.36ZM27.5422 246C27.1222 246 26.7855 245.88 26.5322 245.64C26.2789 245.4 26.1522 245.07 26.1522 244.65V244C26.1522 243.58 26.2789 243.25 26.5322 243.01C26.7855 242.77 27.1222 242.65 27.5422 242.65C27.9622 242.65 28.2989 242.77 28.5522 243.01C28.8055 243.25 28.9322 243.58 28.9322 244V244.65C28.9322 245.07 28.8055 245.4 28.5522 245.64C28.2989 245.88 27.9622 246 27.5422 246ZM27.5422 245.32C27.9755 245.32 28.1922 245.097 28.1922 244.65V244C28.1922 243.553 27.9755 243.33 27.5422 243.33C27.3289 243.33 27.1655 243.387 27.0522 243.5C26.9455 243.607 26.8922 243.773 26.8922 244V244.65C26.8922 244.877 26.9455 245.047 27.0522 245.16C27.1655 245.267 27.3289 245.32 27.5422 245.32ZM37.9844 247.1V246.3H43.9844V247.1H37.9844ZM52.5266 250V243.51H50.5266V242.69H55.4266V243.51H53.4266V250H52.5266ZM58.9727 250.08C58.5327 250.08 58.1527 249.997 57.8327 249.83C57.5127 249.663 57.2627 249.423 57.0827 249.11C56.9093 248.79 56.8227 248.413 56.8227 247.98V246.52C56.8227 246.08 56.9093 245.703 57.0827 245.39C57.2627 245.077 57.5127 244.837 57.8327 244.67C58.1527 244.503 58.5327 244.42 58.9727 244.42C59.4127 244.42 59.7927 244.503 60.1127 244.67C60.4327 244.837 60.6793 245.077 60.8527 245.39C61.0327 245.703 61.1227 246.077 61.1227 246.51V247.98C61.1227 248.413 61.0327 248.79 60.8527 249.11C60.6793 249.423 60.4327 249.663 60.1127 249.83C59.7927 249.997 59.4127 250.08 58.9727 250.08ZM58.9727 249.28C59.366 249.28 59.6727 249.17 59.8927 248.95C60.1127 248.73 60.2227 248.407 60.2227 247.98V246.52C60.2227 246.093 60.1127 245.77 59.8927 245.55C59.6727 245.33 59.366 245.22 58.9727 245.22C58.586 245.22 58.2793 245.33 58.0527 245.55C57.8327 245.77 57.7227 246.093 57.7227 246.52V247.98C57.7227 248.407 57.8327 248.73 58.0527 248.95C58.2793 249.17 58.586 249.28 58.9727 249.28ZM62.9188 250V242.7H63.8188V246.77H64.8788L66.4788 244.5H67.5088L65.6588 247.12L67.5388 250H66.4888L64.8888 247.55H63.8188V250H62.9188ZM70.9648 250.1C70.5315 250.1 70.1515 250.013 69.8248 249.84C69.5048 249.667 69.2548 249.423 69.0748 249.11C68.9015 248.79 68.8148 248.42 68.8148 248V246.5C68.8148 246.073 68.9015 245.703 69.0748 245.39C69.2548 245.077 69.5048 244.833 69.8248 244.66C70.1515 244.487 70.5315 244.4 70.9648 244.4C71.3982 244.4 71.7748 244.487 72.0948 244.66C72.4215 244.833 72.6715 245.077 72.8448 245.39C73.0248 245.703 73.1148 246.073 73.1148 246.5V247.47H69.6948V248C69.6948 248.433 69.8048 248.767 70.0248 249C70.2448 249.227 70.5582 249.34 70.9648 249.34C71.3115 249.34 71.5915 249.28 71.8048 249.16C72.0182 249.033 72.1482 248.847 72.1948 248.6H73.0948C73.0348 249.06 72.8082 249.427 72.4148 249.7C72.0282 249.967 71.5448 250.1 70.9648 250.1ZM72.2348 246.87V246.5C72.2348 246.067 72.1248 245.733 71.9048 245.5C71.6915 245.267 71.3782 245.15 70.9648 245.15C70.5582 245.15 70.2448 245.267 70.0248 245.5C69.8048 245.733 69.6948 246.067 69.6948 246.5V246.79H72.3048L72.2348 246.87ZM74.8809 250V244.5H75.7809V245.55H75.9709L75.7809 245.76C75.7809 245.327 75.9109 244.993 76.1709 244.76C76.4309 244.52 76.7909 244.4 77.2509 244.4C77.8043 244.4 78.2443 244.57 78.5709 244.91C78.8976 245.25 79.0609 245.713 79.0609 246.3V250H78.1609V246.4C78.1609 246.007 78.0543 245.707 77.8409 245.5C77.6343 245.287 77.3509 245.18 76.9909 245.18C76.6176 245.18 76.3209 245.293 76.1009 245.52C75.8876 245.747 75.7809 246.073 75.7809 246.5V250H74.8809ZM86.8831 250V242.7H87.7831V245.82H90.1231V242.7H91.0231V250H90.1231V246.64H87.7831V250H86.8831ZM94.9492 250.08C94.5092 250.08 94.1292 249.997 93.8092 249.83C93.4892 249.663 93.2392 249.423 93.0592 249.11C92.8859 248.79 92.7992 248.413 92.7992 247.98V246.52C92.7992 246.08 92.8859 245.703 93.0592 245.39C93.2392 245.077 93.4892 244.837 93.8092 244.67C94.1292 244.503 94.5092 244.42 94.9492 244.42C95.3892 244.42 95.7692 244.503 96.0892 244.67C96.4092 244.837 96.6559 245.077 96.8292 245.39C97.0092 245.703 97.0992 246.077 97.0992 246.51V247.98C97.0992 248.413 97.0092 248.79 96.8292 249.11C96.6559 249.423 96.4092 249.663 96.0892 249.83C95.7692 249.997 95.3892 250.08 94.9492 250.08ZM94.9492 249.28C95.3426 249.28 95.6492 249.17 95.8692 248.95C96.0892 248.73 96.1992 248.407 96.1992 247.98V246.52C96.1992 246.093 96.0892 245.77 95.8692 245.55C95.6492 245.33 95.3426 245.22 94.9492 245.22C94.5626 245.22 94.2559 245.33 94.0292 245.55C93.8092 245.77 93.6992 246.093 93.6992 246.52V247.98C93.6992 248.407 93.8092 248.73 94.0292 248.95C94.2559 249.17 94.5626 249.28 94.9492 249.28ZM101.695 250C101.375 250 101.095 249.937 100.855 249.81C100.615 249.683 100.429 249.503 100.295 249.27C100.162 249.037 100.095 248.763 100.095 248.45V243.52H98.2453V242.7H100.995V248.45C100.995 248.677 101.059 248.857 101.185 248.99C101.312 249.117 101.482 249.18 101.695 249.18H103.445V250H101.695ZM106.621 250.1C106.075 250.1 105.631 249.917 105.291 249.55C104.958 249.183 104.791 248.687 104.791 248.06V246.45C104.791 245.817 104.958 245.317 105.291 244.95C105.625 244.583 106.068 244.4 106.621 244.4C107.075 244.4 107.438 244.523 107.711 244.77C107.985 245.017 108.121 245.347 108.121 245.76L107.941 245.55H108.141L108.121 244.3V242.7H109.021V250H108.121V248.95H107.941L108.121 248.74C108.121 249.16 107.985 249.493 107.711 249.74C107.438 249.98 107.075 250.1 106.621 250.1ZM106.921 249.32C107.295 249.32 107.588 249.203 107.801 248.97C108.015 248.737 108.121 248.413 108.121 248V246.5C108.121 246.087 108.015 245.763 107.801 245.53C107.588 245.297 107.295 245.18 106.921 245.18C106.541 245.18 106.241 245.293 106.021 245.52C105.801 245.747 105.691 246.073 105.691 246.5V248C105.691 248.427 105.801 248.753 106.021 248.98C106.241 249.207 106.541 249.32 106.921 249.32ZM112.938 250.1C112.504 250.1 112.124 250.013 111.798 249.84C111.478 249.667 111.228 249.423 111.048 249.11C110.874 248.79 110.788 248.42 110.788 248V246.5C110.788 246.073 110.874 245.703 111.048 245.39C111.228 245.077 111.478 244.833 111.798 244.66C112.124 244.487 112.504 244.4 112.938 244.4C113.371 244.4 113.748 244.487 114.068 244.66C114.394 244.833 114.644 245.077 114.818 245.39C114.998 245.703 115.088 246.073 115.088 246.5V247.47H111.668V248C111.668 248.433 111.778 248.767 111.998 249C112.218 249.227 112.531 249.34 112.938 249.34C113.284 249.34 113.564 249.28 113.778 249.16C113.991 249.033 114.121 248.847 114.168 248.6H115.068C115.008 249.06 114.781 249.427 114.388 249.7C114.001 249.967 113.518 250.1 112.938 250.1ZM114.208 246.87V246.5C114.208 246.067 114.098 245.733 113.878 245.5C113.664 245.267 113.351 245.15 112.938 245.15C112.531 245.15 112.218 245.267 111.998 245.5C111.778 245.733 111.668 246.067 111.668 246.5V246.79H114.278L114.208 246.87ZM117.044 250V244.5H117.924V245.55H118.134L117.844 246.2C117.844 245.607 117.97 245.16 118.224 244.86C118.484 244.553 118.867 244.4 119.374 244.4C119.954 244.4 120.414 244.583 120.754 244.95C121.1 245.31 121.274 245.8 121.274 246.42V246.75H120.374V246.5C120.374 246.067 120.267 245.737 120.054 245.51C119.847 245.277 119.55 245.16 119.164 245.16C118.784 245.16 118.484 245.277 118.264 245.51C118.05 245.743 117.944 246.073 117.944 246.5V250H117.044ZM124.76 250.08C124.386 250.08 124.06 250.023 123.78 249.91C123.506 249.79 123.286 249.623 123.12 249.41C122.96 249.197 122.863 248.943 122.83 248.65H123.73C123.77 248.843 123.876 248.997 124.05 249.11C124.23 249.223 124.466 249.28 124.76 249.28H125.18C125.533 249.28 125.796 249.21 125.97 249.07C126.143 248.923 126.23 248.73 126.23 248.49C126.23 248.257 126.15 248.073 125.99 247.94C125.836 247.8 125.606 247.707 125.3 247.66L124.56 247.54C124.02 247.447 123.616 247.28 123.35 247.04C123.09 246.793 122.96 246.437 122.96 245.97C122.96 245.477 123.116 245.097 123.43 244.83C123.743 244.557 124.213 244.42 124.84 244.42H125.22C125.746 244.42 126.17 244.543 126.49 244.79C126.81 245.037 127.003 245.37 127.07 245.79H126.17C126.13 245.617 126.03 245.48 125.87 245.38C125.71 245.273 125.493 245.22 125.22 245.22H124.84C124.5 245.22 124.25 245.283 124.09 245.41C123.936 245.537 123.86 245.727 123.86 245.98C123.86 246.207 123.926 246.373 124.06 246.48C124.193 246.587 124.403 246.663 124.69 246.71L125.43 246.83C126.023 246.923 126.453 247.097 126.72 247.35C126.993 247.603 127.13 247.97 127.13 248.45C127.13 248.957 126.966 249.357 126.64 249.65C126.32 249.937 125.833 250.08 125.18 250.08H124.76Z" fill="white"/>
<circle cx="4" cy="247" r="4" fill="#0053F3"/>
<path d="M138.285 161.959C138.039 166.663 134.013 170.321 129.357 169.606C115.934 167.546 103.153 162.303 92.1062 154.263C78.7529 144.546 68.508 131.16 62.615 115.733C56.722 100.305 55.4345 83.498 58.9088 67.3526C62.3831 51.2072 70.4697 36.4177 82.1869 24.7793C93.9042 13.141 108.748 5.15452 124.917 1.78944C141.085 -1.57564 157.883 -0.174591 173.27 5.8225C188.658 11.8196 201.974 22.1548 211.601 35.5734C219.566 46.6743 224.722 59.4904 226.692 72.9273C227.375 77.5883 223.69 81.5886 218.984 81.803C214.278 82.0173 210.344 78.359 209.544 73.7166C207.799 63.5816 203.778 53.9337 197.74 45.5181C190.038 34.7832 179.386 26.515 167.076 21.7173C154.766 16.9196 141.327 15.7988 128.393 18.4909C115.458 21.1829 103.583 27.5721 94.2089 36.8828C84.8351 46.1934 78.3658 58.0251 75.5864 70.9414C72.8069 83.8577 73.8369 97.3032 78.5513 109.645C83.2657 121.988 91.4617 132.696 102.144 140.47C110.519 146.565 120.139 150.651 130.262 152.464C134.899 153.295 138.531 157.254 138.285 161.959Z" fill="#00A25E"/>
<path d="M219.027 83.9403C223.736 83.7957 227.715 87.5035 227.388 92.203C226.787 100.864 224.866 109.399 221.677 117.51C217.445 128.272 211.069 138.061 202.937 146.282C194.804 154.504 185.084 160.986 174.369 165.334C166.293 168.611 157.779 170.624 149.126 171.319C144.43 171.697 140.679 167.758 140.773 163.048C140.866 158.339 144.774 154.651 149.458 154.157C155.796 153.488 162.023 151.933 167.954 149.526C176.527 146.048 184.302 140.862 190.809 134.285C197.315 127.708 202.416 119.877 205.801 111.267C208.143 105.31 209.631 99.0666 210.231 92.7219C210.674 88.0321 214.319 84.0848 219.027 83.9403Z" fill="#0053F3"/>
</svg>
