<svg width="284" height="360" viewBox="0 0 284 360" fill="none" xmlns="http://www.w3.org/2000/svg">
<path d="M221.754 73.3612C224.456 72.9552 226.332 70.4314 225.77 67.7572C225.208 65.0829 222.475 63.5276 219.838 64.2436L211.97 66.3799C209.86 66.9527 208.626 69.1256 209.076 71.2651C209.525 73.4045 211.529 74.897 213.691 74.5723L221.754 73.3612Z" fill="#AA01E6"/>
<path d="M219.153 61.8674C221.767 61.0706 223.254 58.2995 222.307 55.7362C221.36 53.1729 218.429 52.0341 215.925 53.1282L208.454 56.3923C206.45 57.2676 205.547 59.5976 206.305 61.6483C207.063 63.6989 209.264 64.8822 211.355 64.2448L219.153 61.8674Z" fill="#0053F3" fill-opacity="0.5"/>
<path d="M211.9 52.916C216.171 50.9289 218.059 45.8284 215.656 41.7769C211.18 34.2318 205.557 27.4074 198.976 21.5552C192.395 15.703 184.96 10.917 176.943 7.3535C172.638 5.44002 167.794 7.91104 166.319 12.3852C164.845 16.8594 167.308 21.634 171.564 23.6545C177.387 26.4191 182.802 30.0012 187.64 34.3035C192.478 38.6058 196.669 43.5649 200.095 49.0247C202.599 53.0149 207.629 54.903 211.9 52.916Z" fill="#0053F3"/>
<path d="M164.521 158.776C165.885 163.285 163.339 168.091 158.716 168.998C148.534 170.995 138.048 171.123 127.776 169.348C114.695 167.088 102.323 161.807 91.6425 153.924C80.9622 146.04 72.2693 135.773 66.2555 123.939C60.2416 112.105 57.0728 99.0308 57.0012 85.7566C56.9297 72.4823 59.9573 59.3745 65.8431 47.4763C71.729 35.578 80.3107 25.2178 90.9053 17.2199C101.5 9.22198 113.815 3.80724 126.871 1.40652C137.123 -0.478698 147.609 -0.46445 157.813 1.42308C162.445 2.28 165.042 7.05818 163.727 11.5817C162.412 16.1052 157.68 18.6493 153.028 17.9085C145.398 16.6933 137.595 16.7797 129.956 18.1845C119.511 20.1051 109.659 24.4369 101.184 30.8352C92.7079 37.2335 85.8425 45.5217 81.1338 55.0403C76.4251 64.5589 74.003 75.0451 74.0603 85.6646C74.1176 96.284 76.6526 106.743 81.4637 116.211C86.2748 125.678 93.2291 133.892 101.773 140.198C110.317 146.505 120.216 150.73 130.68 152.538C138.335 153.86 146.137 153.862 153.754 152.565C158.398 151.774 163.157 154.267 164.521 158.776Z" fill="#00A25E"/>
<path d="M218.421 75.3835C223.092 74.7752 227.417 78.0729 227.556 82.7817C228.054 99.6536 223.533 116.366 214.469 130.756C205.405 145.147 192.285 156.442 176.853 163.28C172.546 165.188 167.703 162.712 166.234 158.236C164.765 153.76 167.234 148.988 171.492 146.973C183.166 141.447 193.089 132.691 200.035 121.664C206.981 110.637 210.591 97.9058 210.533 84.9903C210.512 80.2795 213.749 75.9918 218.421 75.3835Z" fill="#00A25E" fill-opacity="0.5"/>
<path d="M0.9 222V221.18H2.88V215.45L0.9 216.93V215.93L2.55 214.7H3.78V221.18H5.4V222H0.9ZM8.99609 222.1C8.54943 222.1 8.15943 222.013 7.82609 221.84C7.49943 221.66 7.24609 221.41 7.06609 221.09C6.88609 220.763 6.79609 220.383 6.79609 219.95V216.75C6.79609 216.31 6.88609 215.93 7.06609 215.61C7.24609 215.29 7.49943 215.043 7.82609 214.87C8.15943 214.69 8.54943 214.6 8.99609 214.6C9.44943 214.6 9.83943 214.69 10.1661 214.87C10.4928 215.043 10.7461 215.29 10.9261 215.61C11.1061 215.93 11.1961 216.31 11.1961 216.75V219.95C11.1961 220.383 11.1061 220.763 10.9261 221.09C10.7461 221.41 10.4894 221.66 10.1561 221.84C9.82943 222.013 9.44276 222.1 8.99609 222.1ZM8.99609 221.33C9.39609 221.33 9.71609 221.203 9.95609 220.95C10.2028 220.69 10.3261 220.357 10.3261 219.95V216.75C10.3261 216.343 10.2028 216.013 9.95609 215.76C9.71609 215.5 9.39609 215.37 8.99609 215.37C8.59609 215.37 8.27276 215.5 8.02609 215.76C7.78609 216.013 7.66609 216.343 7.66609 216.75V219.95C7.66609 220.357 7.78609 220.69 8.02609 220.95C8.27276 221.203 8.59609 221.33 8.99609 221.33ZM8.99609 218.94C8.81609 218.94 8.66943 218.883 8.55609 218.77C8.44943 218.657 8.39609 218.507 8.39609 218.32C8.39609 218.14 8.44943 217.997 8.55609 217.89C8.66943 217.777 8.81609 217.72 8.99609 217.72C9.17609 217.72 9.31943 217.777 9.42609 217.89C9.53943 217.997 9.59609 218.14 9.59609 218.32C9.59609 218.507 9.53943 218.657 9.42609 218.77C9.31943 218.883 9.17609 218.94 8.99609 218.94ZM12.9122 222V221.08L15.1422 218.71C15.5222 218.303 15.7989 217.943 15.9722 217.63C16.1455 217.31 16.2322 217.003 16.2322 216.71C16.2322 216.303 16.1189 215.983 15.8922 215.75C15.6722 215.517 15.3689 215.4 14.9822 215.4C14.5555 215.4 14.2189 215.52 13.9722 215.76C13.7322 216 13.6122 216.33 13.6122 216.75H12.7122C12.7255 216.31 12.8255 215.93 13.0122 215.61C13.2055 215.283 13.4689 215.033 13.8022 214.86C14.1422 214.687 14.5355 214.6 14.9822 214.6C15.4222 214.6 15.8022 214.687 16.1222 214.86C16.4489 215.027 16.6989 215.267 16.8722 215.58C17.0455 215.893 17.1322 216.267 17.1322 216.7C17.1322 217.113 17.0222 217.523 16.8022 217.93C16.5822 218.337 16.2222 218.8 15.7222 219.32L13.9222 221.18H17.2522V222H12.9122ZM25.8344 222L28.4444 215.52H25.6844V216.6H24.7844V214.7H29.3344V215.58L26.8044 222H25.8344ZM30.8805 222V221.18H32.8605V215.45L30.8805 216.93V215.93L32.5305 214.7H33.7605V221.18H35.3805V222H30.8805ZM37.8466 222L39.9166 218.68L39.8766 218.65C39.7499 218.837 39.5766 218.98 39.3566 219.08C39.1366 219.18 38.8899 219.23 38.6166 219.23C38.2232 219.23 37.8766 219.137 37.5766 218.95C37.2832 218.763 37.0566 218.5 36.8966 218.16C36.7366 217.813 36.6566 217.41 36.6566 216.95C36.6566 216.477 36.7532 216.067 36.9466 215.72C37.1399 215.367 37.4099 215.093 37.7566 214.9C38.1032 214.7 38.5066 214.6 38.9666 214.6C39.4332 214.6 39.8399 214.7 40.1866 214.9C40.5399 215.093 40.8132 215.367 41.0066 215.72C41.1999 216.067 41.2966 216.477 41.2966 216.95C41.2966 217.317 41.2432 217.677 41.1366 218.03C41.0366 218.383 40.8832 218.723 40.6766 219.05L38.8466 222H37.8466ZM38.9766 218.5C39.4032 218.5 39.7466 218.36 40.0066 218.08C40.2666 217.793 40.3966 217.417 40.3966 216.95C40.3966 216.483 40.2666 216.11 40.0066 215.83C39.7466 215.543 39.4032 215.4 38.9766 215.4C38.5499 215.4 38.2066 215.543 37.9466 215.83C37.6866 216.11 37.5566 216.483 37.5566 216.95C37.5566 217.417 37.6866 217.793 37.9466 218.08C38.2066 218.36 38.5499 218.5 38.9766 218.5ZM48.8888 222V221.08L51.1188 218.71C51.4988 218.303 51.7754 217.943 51.9488 217.63C52.1221 217.31 52.2088 217.003 52.2088 216.71C52.2088 216.303 52.0954 215.983 51.8688 215.75C51.6488 215.517 51.3454 215.4 50.9588 215.4C50.5321 215.4 50.1954 215.52 49.9488 215.76C49.7088 216 49.5888 216.33 49.5888 216.75H48.6888C48.7021 216.31 48.8021 215.93 48.9888 215.61C49.1821 215.283 49.4454 215.033 49.7788 214.86C50.1188 214.687 50.5121 214.6 50.9588 214.6C51.3988 214.6 51.7788 214.687 52.0988 214.86C52.4254 215.027 52.6754 215.267 52.8488 215.58C53.0221 215.893 53.1087 216.267 53.1087 216.7C53.1087 217.113 52.9988 217.523 52.7788 217.93C52.5588 218.337 52.1988 218.8 51.6988 219.32L49.8988 221.18H53.2288V222H48.8888ZM54.8848 222V221.08L57.1148 218.71C57.4948 218.303 57.7715 217.943 57.9448 217.63C58.1182 217.31 58.2048 217.003 58.2048 216.71C58.2048 216.303 58.0915 215.983 57.8648 215.75C57.6448 215.517 57.3415 215.4 56.9548 215.4C56.5282 215.4 56.1915 215.52 55.9448 215.76C55.7048 216 55.5848 216.33 55.5848 216.75H54.6848C54.6982 216.31 54.7982 215.93 54.9848 215.61C55.1782 215.283 55.4415 215.033 55.7748 214.86C56.1148 214.687 56.5082 214.6 56.9548 214.6C57.3948 214.6 57.7748 214.687 58.0948 214.86C58.4215 215.027 58.6715 215.267 58.8448 215.58C59.0182 215.893 59.1048 216.267 59.1048 216.7C59.1048 217.113 58.9948 217.523 58.7748 217.93C58.5548 218.337 58.1948 218.8 57.6948 219.32L55.8948 221.18H59.2248V222H54.8848ZM60.8609 222V221.18H62.8409V215.45L60.8609 216.93V215.93L62.5109 214.7H63.7409V221.18H65.3609V222H60.8609ZM73.8031 222L76.4131 215.52H73.6531V216.6H72.7531V214.7H77.3031V215.58L74.7731 222H73.8031ZM78.8492 222V221.18H80.8292V215.45L78.8492 216.93V215.93L80.4992 214.7H81.7292V221.18H83.3492V222H78.8492ZM88.0453 222V220.4H84.7453V218.99L87.6353 214.7H88.6153L85.6453 219.18V219.58H88.0453V217.8H88.9453V222H88.0453ZM98.6875 223.4V222.09C98.0608 222.037 97.5675 221.837 97.2075 221.49C96.8542 221.137 96.6708 220.673 96.6575 220.1H97.5575C97.5575 220.427 97.6542 220.693 97.8475 220.9C98.0475 221.107 98.3275 221.233 98.6875 221.28V218.66L98.4175 218.58C97.9175 218.427 97.5308 218.17 97.2575 217.81C96.9908 217.45 96.8575 217.027 96.8575 216.54C96.8575 216.007 97.0208 215.567 97.3475 215.22C97.6808 214.873 98.1275 214.673 98.6875 214.62V213.3H99.2875V214.61C99.8408 214.663 100.284 214.863 100.618 215.21C100.951 215.557 101.121 216.003 101.128 216.55H100.228C100.228 216.237 100.144 215.983 99.9775 215.79C99.8175 215.59 99.5875 215.467 99.2875 215.42V217.9L99.6875 218.03C100.174 218.183 100.551 218.443 100.818 218.81C101.084 219.177 101.217 219.607 101.217 220.1C101.217 220.647 101.041 221.1 100.688 221.46C100.341 221.82 99.8742 222.03 99.2875 222.09V223.4H98.6875ZM99.2875 221.28C99.6142 221.227 99.8675 221.1 100.048 220.9C100.228 220.7 100.318 220.44 100.318 220.12C100.318 219.827 100.238 219.57 100.078 219.35C99.9242 219.13 99.7008 218.977 99.4075 218.89L99.2875 218.85V221.28ZM98.6875 218.11V215.42C98.3942 215.467 98.1642 215.58 97.9975 215.76C97.8375 215.94 97.7575 216.173 97.7575 216.46C97.7575 216.807 97.8642 217.1 98.0775 217.34C98.2908 217.573 98.5975 217.72 98.9975 217.78L98.6875 218.11ZM102.834 222V214.7H104.034L106.264 220.95C106.25 220.783 106.234 220.58 106.214 220.34C106.2 220.093 106.187 219.837 106.174 219.57C106.167 219.297 106.164 219.04 106.164 218.8V214.7H107.034V222H105.834L103.614 215.75C103.627 215.91 103.64 216.113 103.654 216.36C103.667 216.6 103.677 216.857 103.684 217.13C103.697 217.397 103.704 217.653 103.704 217.9V222H102.834ZM110.93 222.1C110.49 222.1 110.11 222.017 109.79 221.85C109.476 221.683 109.233 221.443 109.06 221.13C108.893 220.81 108.81 220.433 108.81 220V216.7C108.81 216.26 108.893 215.883 109.06 215.57C109.233 215.257 109.476 215.017 109.79 214.85C110.11 214.683 110.49 214.6 110.93 214.6C111.37 214.6 111.746 214.683 112.06 214.85C112.38 215.017 112.623 215.257 112.79 215.57C112.963 215.883 113.05 216.257 113.05 216.69V220C113.05 220.433 112.963 220.81 112.79 221.13C112.623 221.443 112.38 221.683 112.06 221.85C111.746 222.017 111.37 222.1 110.93 222.1ZM110.93 221.29C111.323 221.29 111.623 221.18 111.83 220.96C112.043 220.733 112.15 220.413 112.15 220V216.7C112.15 216.287 112.043 215.97 111.83 215.75C111.623 215.523 111.323 215.41 110.93 215.41C110.543 215.41 110.243 215.523 110.03 215.75C109.816 215.97 109.71 216.287 109.71 216.7V220C109.71 220.413 109.816 220.733 110.03 220.96C110.243 221.18 110.543 221.29 110.93 221.29ZM116.476 222V215.51H114.476V214.69H119.376V215.51H117.376V222H116.476ZM127.768 222L130.378 215.52H127.618V216.6H126.718V214.7H131.268V215.58L128.738 222H127.768ZM134.914 222.1C134.467 222.1 134.077 222.013 133.744 221.84C133.417 221.66 133.164 221.41 132.984 221.09C132.804 220.763 132.714 220.383 132.714 219.95V216.75C132.714 216.31 132.804 215.93 132.984 215.61C133.164 215.29 133.417 215.043 133.744 214.87C134.077 214.69 134.467 214.6 134.914 214.6C135.367 214.6 135.757 214.69 136.084 214.87C136.411 215.043 136.664 215.29 136.844 215.61C137.024 215.93 137.114 216.31 137.114 216.75V219.95C137.114 220.383 137.024 220.763 136.844 221.09C136.664 221.41 136.407 221.66 136.074 221.84C135.747 222.013 135.361 222.1 134.914 222.1ZM134.914 221.33C135.314 221.33 135.634 221.203 135.874 220.95C136.121 220.69 136.244 220.357 136.244 219.95V216.75C136.244 216.343 136.121 216.013 135.874 215.76C135.634 215.5 135.314 215.37 134.914 215.37C134.514 215.37 134.191 215.5 133.944 215.76C133.704 216.013 133.584 216.343 133.584 216.75V219.95C133.584 220.357 133.704 220.69 133.944 220.95C134.191 221.203 134.514 221.33 134.914 221.33ZM134.914 218.94C134.734 218.94 134.587 218.883 134.474 218.77C134.367 218.657 134.314 218.507 134.314 218.32C134.314 218.14 134.367 217.997 134.474 217.89C134.587 217.777 134.734 217.72 134.914 217.72C135.094 217.72 135.237 217.777 135.344 217.89C135.457 217.997 135.514 218.14 135.514 218.32C135.514 218.507 135.457 218.657 135.344 218.77C135.237 218.883 135.094 218.94 134.914 218.94ZM140.91 222.1C140.463 222.1 140.073 222.013 139.74 221.84C139.413 221.66 139.16 221.41 138.98 221.09C138.8 220.763 138.71 220.383 138.71 219.95V216.75C138.71 216.31 138.8 215.93 138.98 215.61C139.16 215.29 139.413 215.043 139.74 214.87C140.073 214.69 140.463 214.6 140.91 214.6C141.363 214.6 141.753 214.69 142.08 214.87C142.407 215.043 142.66 215.29 142.84 215.61C143.02 215.93 143.11 216.31 143.11 216.75V219.95C143.11 220.383 143.02 220.763 142.84 221.09C142.66 221.41 142.403 221.66 142.07 221.84C141.743 222.013 141.357 222.1 140.91 222.1ZM140.91 221.33C141.31 221.33 141.63 221.203 141.87 220.95C142.117 220.69 142.24 220.357 142.24 219.95V216.75C142.24 216.343 142.117 216.013 141.87 215.76C141.63 215.5 141.31 215.37 140.91 215.37C140.51 215.37 140.187 215.5 139.94 215.76C139.7 216.013 139.58 216.343 139.58 216.75V219.95C139.58 220.357 139.7 220.69 139.94 220.95C140.187 221.203 140.51 221.33 140.91 221.33ZM140.91 218.94C140.73 218.94 140.583 218.883 140.47 218.77C140.363 218.657 140.31 218.507 140.31 218.32C140.31 218.14 140.363 217.997 140.47 217.89C140.583 217.777 140.73 217.72 140.91 217.72C141.09 217.72 141.233 217.777 141.34 217.89C141.453 217.997 141.51 218.14 141.51 218.32C141.51 218.507 141.453 218.657 141.34 218.77C141.233 218.883 141.09 218.94 140.91 218.94ZM144.666 222V216.5H145.886L146.606 218.61C146.68 218.823 146.746 219.037 146.806 219.25C146.866 219.457 146.91 219.617 146.936 219.73C146.963 219.617 147.003 219.457 147.056 219.25C147.116 219.037 147.18 218.82 147.246 218.6L147.926 216.5H149.146V222H148.276V221.15C148.276 220.85 148.28 220.523 148.286 220.17C148.293 219.817 148.3 219.46 148.306 219.1C148.32 218.74 148.333 218.4 148.346 218.08C148.36 217.753 148.37 217.467 148.376 217.22L147.396 220.35H146.446L145.456 217.24C145.47 217.54 145.48 217.913 145.486 218.36C145.5 218.807 145.51 219.273 145.516 219.76C145.53 220.247 145.536 220.71 145.536 221.15V222H144.666ZM150.152 222.07V221.23H150.332C150.639 221.23 150.852 221.11 150.972 220.87C151.099 220.63 151.166 220.2 151.172 219.58L151.232 216.5H154.962V222H154.062V217.32H152.122L152.072 219.62C152.059 220.2 151.992 220.67 151.872 221.03C151.759 221.39 151.579 221.653 151.332 221.82C151.092 221.987 150.776 222.07 150.382 222.07H150.152ZM156.838 222V216.5H157.738V218.79H160.058V216.5H160.958V222H160.058V219.61H157.738V222H156.838ZM164.645 223.4V222.09C164.018 222.037 163.525 221.837 163.165 221.49C162.811 221.137 162.628 220.673 162.615 220.1H163.515C163.515 220.427 163.611 220.693 163.805 220.9C164.005 221.107 164.285 221.233 164.645 221.28V218.66L164.375 218.58C163.875 218.427 163.488 218.17 163.215 217.81C162.948 217.45 162.815 217.027 162.815 216.54C162.815 216.007 162.978 215.567 163.305 215.22C163.638 214.873 164.085 214.673 164.645 214.62V213.3H165.245V214.61C165.798 214.663 166.241 214.863 166.575 215.21C166.908 215.557 167.078 216.003 167.085 216.55H166.185C166.185 216.237 166.101 215.983 165.935 215.79C165.775 215.59 165.545 215.467 165.245 215.42V217.9L165.645 218.03C166.131 218.183 166.508 218.443 166.775 218.81C167.041 219.177 167.175 219.607 167.175 220.1C167.175 220.647 166.998 221.1 166.645 221.46C166.298 221.82 165.831 222.03 165.245 222.09V223.4H164.645ZM165.245 221.28C165.571 221.227 165.825 221.1 166.005 220.9C166.185 220.7 166.275 220.44 166.275 220.12C166.275 219.827 166.195 219.57 166.035 219.35C165.881 219.13 165.658 218.977 165.365 218.89L165.245 218.85V221.28ZM164.645 218.11V215.42C164.351 215.467 164.121 215.58 163.955 215.76C163.795 215.94 163.715 216.173 163.715 216.46C163.715 216.807 163.821 217.1 164.035 217.34C164.248 217.573 164.555 217.72 164.955 217.78L164.645 218.11Z" fill="white"/>
<path d="M16.38 249L14.5 241.7H15.43L16.67 246.66C16.7567 247.007 16.83 247.33 16.89 247.63C16.95 247.923 16.9933 248.147 17.02 248.3C17.0467 248.147 17.0867 247.923 17.14 247.63C17.2 247.33 17.2733 247.007 17.36 246.66L18.59 241.7H19.5L17.61 249H16.38ZM22.9961 249.08C22.5561 249.08 22.1761 248.997 21.8561 248.83C21.5361 248.663 21.2861 248.423 21.1061 248.11C20.9328 247.79 20.8461 247.413 20.8461 246.98V245.52C20.8461 245.08 20.9328 244.703 21.1061 244.39C21.2861 244.077 21.5361 243.837 21.8561 243.67C22.1761 243.503 22.5561 243.42 22.9961 243.42C23.4361 243.42 23.8161 243.503 24.1361 243.67C24.4561 243.837 24.7028 244.077 24.8761 244.39C25.0561 244.703 25.1461 245.077 25.1461 245.51V246.98C25.1461 247.413 25.0561 247.79 24.8761 248.11C24.7028 248.423 24.4561 248.663 24.1361 248.83C23.8161 248.997 23.4361 249.08 22.9961 249.08ZM22.9961 248.28C23.3894 248.28 23.6961 248.17 23.9161 247.95C24.1361 247.73 24.2461 247.407 24.2461 246.98V245.52C24.2461 245.093 24.1361 244.77 23.9161 244.55C23.6961 244.33 23.3894 244.22 22.9961 244.22C22.6094 244.22 22.3028 244.33 22.0761 244.55C21.8561 244.77 21.7461 245.093 21.7461 245.52V246.98C21.7461 247.407 21.8561 247.73 22.0761 247.95C22.3028 248.17 22.6094 248.28 22.9961 248.28ZM28.9822 249.1C28.3489 249.1 27.8422 248.913 27.4622 248.54C27.0822 248.16 26.8922 247.647 26.8922 247V243.5H27.7922V247C27.7922 247.413 27.8989 247.737 28.1122 247.97C28.3255 248.197 28.6155 248.31 28.9822 248.31C29.3555 248.31 29.6489 248.197 29.8622 247.97C30.0822 247.737 30.1922 247.413 30.1922 247V243.5H31.0922V247C31.0922 247.647 30.8989 248.16 30.5122 248.54C30.1255 248.913 29.6155 249.1 28.9822 249.1ZM35.0283 249.1C34.5883 249.1 34.2016 249.017 33.8683 248.85C33.5416 248.683 33.2883 248.443 33.1083 248.13C32.9283 247.81 32.8383 247.433 32.8383 247V245.5C32.8383 245.06 32.9283 244.683 33.1083 244.37C33.2883 244.057 33.5416 243.817 33.8683 243.65C34.2016 243.483 34.5883 243.4 35.0283 243.4C35.6616 243.4 36.1716 243.57 36.5583 243.91C36.9449 244.25 37.1483 244.713 37.1683 245.3H36.2683C36.2483 244.947 36.1283 244.677 35.9083 244.49C35.6949 244.297 35.4016 244.2 35.0283 244.2C34.6349 244.2 34.3216 244.313 34.0883 244.54C33.8549 244.76 33.7383 245.077 33.7383 245.49V247C33.7383 247.413 33.8549 247.733 34.0883 247.96C34.3216 248.187 34.6349 248.3 35.0283 248.3C35.4016 248.3 35.6949 248.203 35.9083 248.01C36.1283 247.817 36.2483 247.547 36.2683 247.2H37.1683C37.1483 247.787 36.9449 248.25 36.5583 248.59C36.1716 248.93 35.6616 249.1 35.0283 249.1ZM38.9044 249V241.7H39.8044V243.5V244.55H39.9944L39.8044 244.76C39.8044 244.327 39.9344 243.993 40.1944 243.76C40.4544 243.52 40.8144 243.4 41.2744 243.4C41.8277 243.4 42.2677 243.57 42.5944 243.91C42.921 244.25 43.0844 244.713 43.0844 245.3V249H42.1844V245.4C42.1844 245.007 42.0777 244.703 41.8644 244.49C41.6577 244.27 41.3744 244.16 41.0144 244.16C40.641 244.16 40.3444 244.277 40.1244 244.51C39.911 244.743 39.8044 245.073 39.8044 245.5V249H38.9044ZM46.9805 249.1C46.5471 249.1 46.1671 249.013 45.8405 248.84C45.5205 248.667 45.2705 248.423 45.0905 248.11C44.9171 247.79 44.8305 247.42 44.8305 247V245.5C44.8305 245.073 44.9171 244.703 45.0905 244.39C45.2705 244.077 45.5205 243.833 45.8405 243.66C46.1671 243.487 46.5471 243.4 46.9805 243.4C47.4138 243.4 47.7905 243.487 48.1105 243.66C48.4371 243.833 48.6871 244.077 48.8605 244.39C49.0405 244.703 49.1305 245.073 49.1305 245.5V246.47H45.7105V247C45.7105 247.433 45.8205 247.767 46.0405 248C46.2605 248.227 46.5738 248.34 46.9805 248.34C47.3271 248.34 47.6071 248.28 47.8205 248.16C48.0338 248.033 48.1638 247.847 48.2105 247.6H49.1105C49.0505 248.06 48.8238 248.427 48.4305 248.7C48.0438 248.967 47.5605 249.1 46.9805 249.1ZM48.2505 245.87V245.5C48.2505 245.067 48.1405 244.733 47.9205 244.5C47.7071 244.267 47.3938 244.15 46.9805 244.15C46.5738 244.15 46.2605 244.267 46.0405 244.5C45.8205 244.733 45.7105 245.067 45.7105 245.5V245.79H48.3205L48.2505 245.87ZM51.0866 249V243.5H51.9666V244.55H52.1766L51.8866 245.2C51.8866 244.607 52.0132 244.16 52.2666 243.86C52.5266 243.553 52.9099 243.4 53.4166 243.4C53.9966 243.4 54.4566 243.583 54.7966 243.95C55.1432 244.31 55.3166 244.8 55.3166 245.42V245.75H54.4166V245.5C54.4166 245.067 54.3099 244.737 54.0966 244.51C53.8899 244.277 53.5932 244.16 53.2066 244.16C52.8266 244.16 52.5266 244.277 52.3066 244.51C52.0932 244.743 51.9866 245.073 51.9866 245.5V249H51.0866ZM58.8027 249.08C58.4293 249.08 58.1027 249.023 57.8227 248.91C57.5493 248.79 57.3293 248.623 57.1627 248.41C57.0027 248.197 56.906 247.943 56.8727 247.65H57.7727C57.8127 247.843 57.9193 247.997 58.0927 248.11C58.2727 248.223 58.5093 248.28 58.8027 248.28H59.2227C59.576 248.28 59.8393 248.21 60.0127 248.07C60.186 247.923 60.2727 247.73 60.2727 247.49C60.2727 247.257 60.1927 247.073 60.0327 246.94C59.8793 246.8 59.6493 246.707 59.3427 246.66L58.6027 246.54C58.0627 246.447 57.6593 246.28 57.3927 246.04C57.1327 245.793 57.0027 245.437 57.0027 244.97C57.0027 244.477 57.1593 244.097 57.4727 243.83C57.786 243.557 58.256 243.42 58.8827 243.42H59.2627C59.7893 243.42 60.2127 243.543 60.5327 243.79C60.8527 244.037 61.046 244.37 61.1127 244.79H60.2127C60.1727 244.617 60.0727 244.48 59.9127 244.38C59.7527 244.273 59.536 244.22 59.2627 244.22H58.8827C58.5427 244.22 58.2927 244.283 58.1327 244.41C57.9793 244.537 57.9027 244.727 57.9027 244.98C57.9027 245.207 57.9693 245.373 58.1027 245.48C58.236 245.587 58.446 245.663 58.7327 245.71L59.4727 245.83C60.066 245.923 60.496 246.097 60.7627 246.35C61.036 246.603 61.1727 246.97 61.1727 247.45C61.1727 247.957 61.0093 248.357 60.6827 248.65C60.3627 248.937 59.876 249.08 59.2227 249.08H58.8027ZM63.6188 250.6L64.4188 247.49H65.7188L64.4188 250.6H63.6188ZM75.1909 249L74.3109 243.5H75.1109L75.6609 247.4C75.6809 247.547 75.7009 247.707 75.7209 247.88C75.7476 248.047 75.7676 248.187 75.7809 248.3C75.7943 248.187 75.8143 248.047 75.8409 247.88C75.8743 247.707 75.9009 247.547 75.9209 247.4L76.5309 243.5H77.3909L78.0009 247.4C78.0209 247.547 78.0443 247.707 78.0709 247.88C78.1043 248.047 78.1276 248.187 78.1409 248.3C78.1543 248.187 78.1743 248.047 78.2009 247.88C78.2343 247.707 78.2609 247.547 78.2809 247.4L78.8509 243.5H79.6109L78.6909 249H77.7009L77.1109 245.2C77.0843 245.013 77.0543 244.827 77.0209 244.64C76.9876 244.453 76.9643 244.307 76.9509 244.2C76.9376 244.307 76.9176 244.453 76.8909 244.64C76.8643 244.827 76.8343 245.013 76.8009 245.2L76.1809 249H75.1909ZM80.857 249V241.7H82.057L84.287 247.95C84.2737 247.783 84.257 247.58 84.237 247.34C84.2237 247.093 84.2104 246.837 84.197 246.57C84.1904 246.297 84.187 246.04 84.187 245.8V241.7H85.057V249H83.857L81.637 242.75C81.6504 242.91 81.6637 243.113 81.677 243.36C81.6904 243.6 81.7004 243.857 81.707 244.13C81.7204 244.397 81.727 244.653 81.727 244.9V249H80.857ZM88.9531 249.1C88.5131 249.1 88.1331 249.017 87.8131 248.85C87.4998 248.683 87.2565 248.443 87.0831 248.13C86.9165 247.81 86.8331 247.433 86.8331 247V243.7C86.8331 243.26 86.9165 242.883 87.0831 242.57C87.2565 242.257 87.4998 242.017 87.8131 241.85C88.1331 241.683 88.5131 241.6 88.9531 241.6C89.3931 241.6 89.7698 241.683 90.0831 241.85C90.4031 242.017 90.6465 242.257 90.8131 242.57C90.9865 242.883 91.0731 243.257 91.0731 243.69V247C91.0731 247.433 90.9865 247.81 90.8131 248.13C90.6465 248.443 90.4031 248.683 90.0831 248.85C89.7698 249.017 89.3931 249.1 88.9531 249.1ZM88.9531 248.29C89.3465 248.29 89.6465 248.18 89.8531 247.96C90.0665 247.733 90.1731 247.413 90.1731 247V243.7C90.1731 243.287 90.0665 242.97 89.8531 242.75C89.6465 242.523 89.3465 242.41 88.9531 242.41C88.5665 242.41 88.2665 242.523 88.0531 242.75C87.8398 242.97 87.7331 243.287 87.7331 243.7V247C87.7331 247.413 87.8398 247.733 88.0531 247.96C88.2665 248.18 88.5665 248.29 88.9531 248.29ZM94.4992 249V242.51H92.4992V241.69H97.3992V242.51H95.3992V249H94.4992ZM100.945 244.9C100.699 244.9 100.499 244.833 100.345 244.7C100.192 244.56 100.115 244.377 100.115 244.15C100.115 243.923 100.192 243.743 100.345 243.61C100.499 243.47 100.699 243.4 100.945 243.4C101.199 243.4 101.399 243.47 101.545 243.61C101.699 243.743 101.775 243.923 101.775 244.15C101.775 244.377 101.699 244.56 101.545 244.7C101.399 244.833 101.199 244.9 100.945 244.9ZM100.945 249.1C100.699 249.1 100.499 249.033 100.345 248.9C100.192 248.76 100.115 248.577 100.115 248.35C100.115 248.123 100.192 247.943 100.345 247.81C100.499 247.67 100.699 247.6 100.945 247.6C101.199 247.6 101.399 247.67 101.545 247.81C101.699 247.943 101.775 248.123 101.775 248.35C101.775 248.577 101.699 248.76 101.545 248.9C101.399 249.033 101.199 249.1 100.945 249.1ZM110.838 249V248.18H112.818V242.45L110.838 243.93V242.93L112.488 241.7H113.718V248.18H115.338V249H110.838ZM116.074 249L121.054 241.7H121.794L116.814 249H116.074ZM120.384 249.05C119.964 249.05 119.627 248.93 119.374 248.69C119.12 248.45 118.994 248.12 118.994 247.7V247.05C118.994 246.63 119.12 246.3 119.374 246.06C119.627 245.82 119.964 245.7 120.384 245.7C120.804 245.7 121.14 245.82 121.394 246.06C121.647 246.3 121.774 246.63 121.774 247.05V247.7C121.774 248.12 121.647 248.45 121.394 248.69C121.14 248.93 120.804 249.05 120.384 249.05ZM120.384 248.36C120.817 248.36 121.034 248.14 121.034 247.7V247.05C121.034 246.603 120.817 246.38 120.384 246.38C119.95 246.38 119.734 246.603 119.734 247.05V247.7C119.734 248.14 119.95 248.36 120.384 248.36ZM117.484 245C117.064 245 116.727 244.88 116.474 244.64C116.22 244.4 116.094 244.07 116.094 243.65V243C116.094 242.58 116.22 242.25 116.474 242.01C116.727 241.77 117.064 241.65 117.484 241.65C117.904 241.65 118.24 241.77 118.494 242.01C118.747 242.25 118.874 242.58 118.874 243V243.65C118.874 244.07 118.747 244.4 118.494 244.64C118.24 244.88 117.904 245 117.484 245ZM117.484 244.32C117.917 244.32 118.134 244.097 118.134 243.65V243C118.134 242.553 117.917 242.33 117.484 242.33C117.27 242.33 117.107 242.387 116.994 242.5C116.887 242.607 116.834 242.773 116.834 243V243.65C116.834 243.877 116.887 244.047 116.994 244.16C117.107 244.267 117.27 244.32 117.484 244.32Z" fill="white"/>
<circle cx="4" cy="246" r="4" fill="#032C7C"/>
<path d="M14.92 276V268.7H16.81C17.2833 268.7 17.69 268.79 18.03 268.97C18.3767 269.15 18.6433 269.403 18.83 269.73C19.0233 270.057 19.12 270.443 19.12 270.89V273.8C19.12 274.247 19.0233 274.637 18.83 274.97C18.6433 275.297 18.3767 275.55 18.03 275.73C17.69 275.91 17.2833 276 16.81 276H14.92ZM15.82 275.2H16.81C17.25 275.2 17.5933 275.077 17.84 274.83C18.0933 274.583 18.22 274.24 18.22 273.8V270.89C18.22 270.457 18.0933 270.117 17.84 269.87C17.5933 269.623 17.25 269.5 16.81 269.5H15.82V275.2ZM22.9861 276.1C22.3528 276.1 21.8461 275.913 21.4661 275.54C21.0861 275.16 20.8961 274.647 20.8961 274V270.5H21.7961V274C21.7961 274.413 21.9028 274.737 22.1161 274.97C22.3294 275.197 22.6194 275.31 22.9861 275.31C23.3594 275.31 23.6528 275.197 23.8661 274.97C24.0861 274.737 24.1961 274.413 24.1961 274V270.5H25.0961V274C25.0961 274.647 24.9028 275.16 24.5161 275.54C24.1294 275.913 23.6194 276.1 22.9861 276.1ZM27.1022 276V270.5H27.9822V271.55H28.1922L27.9022 272.2C27.9022 271.607 28.0289 271.16 28.2822 270.86C28.5422 270.553 28.9255 270.4 29.4322 270.4C30.0122 270.4 30.4722 270.583 30.8122 270.95C31.1589 271.31 31.3322 271.8 31.3322 272.42V272.75H30.4322V272.5C30.4322 272.067 30.3255 271.737 30.1122 271.51C29.9055 271.277 29.6089 271.16 29.2222 271.16C28.8422 271.16 28.5422 271.277 28.3222 271.51C28.1089 271.743 28.0022 272.073 28.0022 272.5V276H27.1022ZM34.9883 276.1C34.5549 276.1 34.1749 276.013 33.8483 275.84C33.5283 275.667 33.2783 275.423 33.0983 275.11C32.9249 274.79 32.8383 274.42 32.8383 274V272.5C32.8383 272.073 32.9249 271.703 33.0983 271.39C33.2783 271.077 33.5283 270.833 33.8483 270.66C34.1749 270.487 34.5549 270.4 34.9883 270.4C35.4216 270.4 35.7983 270.487 36.1183 270.66C36.4449 270.833 36.6949 271.077 36.8683 271.39C37.0483 271.703 37.1383 272.073 37.1383 272.5V273.47H33.7183V274C33.7183 274.433 33.8283 274.767 34.0483 275C34.2683 275.227 34.5816 275.34 34.9883 275.34C35.3349 275.34 35.6149 275.28 35.8283 275.16C36.0416 275.033 36.1716 274.847 36.2183 274.6H37.1183C37.0583 275.06 36.8316 275.427 36.4383 275.7C36.0516 275.967 35.5683 276.1 34.9883 276.1ZM36.2583 272.87V272.5C36.2583 272.067 36.1483 271.733 35.9283 271.5C35.7149 271.267 35.4016 271.15 34.9883 271.15C34.5816 271.15 34.2683 271.267 34.0483 271.5C33.8283 271.733 33.7183 272.067 33.7183 272.5V272.79H36.3283L36.2583 272.87ZM40.3744 276L38.5344 270.5H39.4544L40.6744 274.2C40.7477 274.42 40.8144 274.633 40.8744 274.84C40.9344 275.04 40.9777 275.197 41.0044 275.31C41.0377 275.197 41.0844 275.04 41.1444 274.84C41.2044 274.633 41.2677 274.42 41.3344 274.2L42.5244 270.5H43.4344L41.5944 276H40.3744ZM46.9805 271.9C46.7338 271.9 46.5338 271.833 46.3805 271.7C46.2271 271.56 46.1505 271.377 46.1505 271.15C46.1505 270.923 46.2271 270.743 46.3805 270.61C46.5338 270.47 46.7338 270.4 46.9805 270.4C47.2338 270.4 47.4338 270.47 47.5805 270.61C47.7338 270.743 47.8105 270.923 47.8105 271.15C47.8105 271.377 47.7338 271.56 47.5805 271.7C47.4338 271.833 47.2338 271.9 46.9805 271.9ZM46.9805 276.1C46.7338 276.1 46.5338 276.033 46.3805 275.9C46.2271 275.76 46.1505 275.577 46.1505 275.35C46.1505 275.123 46.2271 274.943 46.3805 274.81C46.5338 274.67 46.7338 274.6 46.9805 274.6C47.2338 274.6 47.4338 274.67 47.5805 274.81C47.7338 274.943 47.8105 275.123 47.8105 275.35C47.8105 275.577 47.7338 275.76 47.5805 275.9C47.4338 276.033 47.2338 276.1 46.9805 276.1ZM56.8727 276V275.18H58.8527V269.45L56.8727 270.93V269.93L58.5227 268.7H59.7527V275.18H61.3727V276H56.8727ZM62.1088 276L67.0888 268.7H67.8288L62.8488 276H62.1088ZM66.4188 276.05C65.9988 276.05 65.6621 275.93 65.4088 275.69C65.1554 275.45 65.0288 275.12 65.0288 274.7V274.05C65.0288 273.63 65.1554 273.3 65.4088 273.06C65.6621 272.82 65.9988 272.7 66.4188 272.7C66.8388 272.7 67.1754 272.82 67.4288 273.06C67.6821 273.3 67.8088 273.63 67.8088 274.05V274.7C67.8088 275.12 67.6821 275.45 67.4288 275.69C67.1754 275.93 66.8388 276.05 66.4188 276.05ZM66.4188 275.36C66.8521 275.36 67.0688 275.14 67.0688 274.7V274.05C67.0688 273.603 66.8521 273.38 66.4188 273.38C65.9854 273.38 65.7688 273.603 65.7688 274.05V274.7C65.7688 275.14 65.9854 275.36 66.4188 275.36ZM63.5188 272C63.0988 272 62.7621 271.88 62.5088 271.64C62.2554 271.4 62.1288 271.07 62.1288 270.65V270C62.1288 269.58 62.2554 269.25 62.5088 269.01C62.7621 268.77 63.0988 268.65 63.5188 268.65C63.9388 268.65 64.2754 268.77 64.5288 269.01C64.7821 269.25 64.9087 269.58 64.9087 270V270.65C64.9087 271.07 64.7821 271.4 64.5288 271.64C64.2754 271.88 63.9388 272 63.5188 272ZM63.5188 271.32C63.9521 271.32 64.1688 271.097 64.1688 270.65V270C64.1688 269.553 63.9521 269.33 63.5188 269.33C63.3054 269.33 63.1421 269.387 63.0288 269.5C62.9221 269.607 62.8688 269.773 62.8688 270V270.65C62.8688 270.877 62.9221 271.047 63.0288 271.16C63.1421 271.267 63.3054 271.32 63.5188 271.32Z" fill="white"/>
<circle cx="4" cy="273" r="4" fill="#AA01E6"/>
<path d="M14.92 303V295.7H17.27C17.7233 295.7 18.1167 295.79 18.45 295.97C18.7833 296.143 19.04 296.39 19.22 296.71C19.4067 297.03 19.5 297.41 19.5 297.85C19.5 298.283 19.4067 298.663 19.22 298.99C19.04 299.31 18.7833 299.56 18.45 299.74C18.1167 299.913 17.7233 300 17.27 300H15.82V303H14.92ZM15.82 299.19H17.27C17.6633 299.19 17.9767 299.07 18.21 298.83C18.45 298.583 18.57 298.257 18.57 297.85C18.57 297.437 18.45 297.11 18.21 296.87C17.9767 296.63 17.6633 296.51 17.27 296.51H15.82V299.19ZM23.7461 303C23.4261 303 23.1461 302.937 22.9061 302.81C22.6661 302.683 22.4794 302.503 22.3461 302.27C22.2128 302.037 22.1461 301.763 22.1461 301.45V296.52H20.2961V295.7H23.0461V301.45C23.0461 301.677 23.1094 301.857 23.2361 301.99C23.3628 302.117 23.5328 302.18 23.7461 302.18H25.4961V303H23.7461ZM28.5122 303.1C27.9322 303.1 27.4755 302.953 27.1422 302.66C26.8089 302.36 26.6422 301.957 26.6422 301.45C26.6422 300.937 26.8089 300.533 27.1422 300.24C27.4755 299.947 27.9255 299.8 28.4922 299.8H30.1922V299.25C30.1922 298.91 30.0889 298.65 29.8822 298.47C29.6822 298.283 29.3955 298.19 29.0222 298.19C28.6955 298.19 28.4222 298.26 28.2022 298.4C27.9822 298.533 27.8555 298.717 27.8222 298.95H26.9222C26.9822 298.477 27.2055 298.1 27.5922 297.82C27.9789 297.54 28.4622 297.4 29.0422 297.4C29.6755 297.4 30.1755 297.563 30.5422 297.89C30.9089 298.217 31.0922 298.66 31.0922 299.22V303H30.2122V301.95H30.0622L30.2122 301.8C30.2122 302.2 30.0555 302.517 29.7422 302.75C29.4355 302.983 29.0255 303.1 28.5122 303.1ZM28.7322 302.39C29.1589 302.39 29.5089 302.283 29.7822 302.07C30.0555 301.857 30.1922 301.583 30.1922 301.25V300.47H28.5122C28.2122 300.47 27.9755 300.553 27.8022 300.72C27.6289 300.887 27.5422 301.113 27.5422 301.4C27.5422 301.707 27.6455 301.95 27.8522 302.13C28.0655 302.303 28.3589 302.39 28.7322 302.39ZM33.7683 304.8L34.5783 302.66L32.5383 297.5H33.5383L34.8183 300.9C34.8649 301.013 34.9083 301.15 34.9483 301.31C34.9883 301.463 35.0216 301.593 35.0483 301.7C35.0749 301.593 35.1083 301.463 35.1483 301.31C35.1883 301.15 35.2283 301.013 35.2683 300.9L36.4683 297.5H37.4383L34.7283 304.8H33.7683ZM40.9844 303.1C40.551 303.1 40.171 303.013 39.8444 302.84C39.5244 302.667 39.2744 302.423 39.0944 302.11C38.921 301.79 38.8344 301.42 38.8344 301V299.5C38.8344 299.073 38.921 298.703 39.0944 298.39C39.2744 298.077 39.5244 297.833 39.8444 297.66C40.171 297.487 40.551 297.4 40.9844 297.4C41.4177 297.4 41.7944 297.487 42.1144 297.66C42.441 297.833 42.691 298.077 42.8644 298.39C43.0444 298.703 43.1344 299.073 43.1344 299.5V300.47H39.7144V301C39.7144 301.433 39.8244 301.767 40.0444 302C40.2644 302.227 40.5777 302.34 40.9844 302.34C41.331 302.34 41.611 302.28 41.8244 302.16C42.0377 302.033 42.1677 301.847 42.2144 301.6H43.1144C43.0544 302.06 42.8277 302.427 42.4344 302.7C42.0477 302.967 41.5644 303.1 40.9844 303.1ZM42.2544 299.87V299.5C42.2544 299.067 42.1444 298.733 41.9244 298.5C41.711 298.267 41.3977 298.15 40.9844 298.15C40.5777 298.15 40.2644 298.267 40.0444 298.5C39.8244 298.733 39.7144 299.067 39.7144 299.5V299.79H42.3244L42.2544 299.87ZM45.0905 303V297.5H45.9705V298.55H46.1805L45.8905 299.2C45.8905 298.607 46.0171 298.16 46.2705 297.86C46.5305 297.553 46.9138 297.4 47.4205 297.4C48.0005 297.4 48.4605 297.583 48.8005 297.95C49.1471 298.31 49.3205 298.8 49.3205 299.42V299.75H48.4205V299.5C48.4205 299.067 48.3138 298.737 48.1005 298.51C47.8938 298.277 47.5971 298.16 47.2105 298.16C46.8305 298.16 46.5305 298.277 46.3105 298.51C46.0971 298.743 45.9905 299.073 45.9905 299.5V303H45.0905ZM52.8066 303.08C52.4332 303.08 52.1066 303.023 51.8266 302.91C51.5532 302.79 51.3332 302.623 51.1666 302.41C51.0066 302.197 50.9099 301.943 50.8766 301.65H51.7766C51.8166 301.843 51.9232 301.997 52.0966 302.11C52.2766 302.223 52.5132 302.28 52.8066 302.28H53.2266C53.5799 302.28 53.8432 302.21 54.0166 302.07C54.1899 301.923 54.2766 301.73 54.2766 301.49C54.2766 301.257 54.1966 301.073 54.0366 300.94C53.8832 300.8 53.6532 300.707 53.3466 300.66L52.6066 300.54C52.0666 300.447 51.6632 300.28 51.3966 300.04C51.1366 299.793 51.0066 299.437 51.0066 298.97C51.0066 298.477 51.1632 298.097 51.4766 297.83C51.7899 297.557 52.2599 297.42 52.8866 297.42H53.2666C53.7932 297.42 54.2166 297.543 54.5366 297.79C54.8566 298.037 55.0499 298.37 55.1166 298.79H54.2166C54.1766 298.617 54.0766 298.48 53.9166 298.38C53.7566 298.273 53.5399 298.22 53.2666 298.22H52.8866C52.5466 298.22 52.2966 298.283 52.1366 298.41C51.9832 298.537 51.9066 298.727 51.9066 298.98C51.9066 299.207 51.9732 299.373 52.1066 299.48C52.2399 299.587 52.4499 299.663 52.7366 299.71L53.4766 299.83C54.0699 299.923 54.4999 300.097 54.7666 300.35C55.0399 300.603 55.1766 300.97 55.1766 301.45C55.1766 301.957 55.0132 302.357 54.6866 302.65C54.3666 302.937 53.8799 303.08 53.2266 303.08H52.8066ZM58.9727 298.9C58.726 298.9 58.526 298.833 58.3727 298.7C58.2193 298.56 58.1427 298.377 58.1427 298.15C58.1427 297.923 58.2193 297.743 58.3727 297.61C58.526 297.47 58.726 297.4 58.9727 297.4C59.226 297.4 59.426 297.47 59.5727 297.61C59.726 297.743 59.8027 297.923 59.8027 298.15C59.8027 298.377 59.726 298.56 59.5727 298.7C59.426 298.833 59.226 298.9 58.9727 298.9ZM58.9727 303.1C58.726 303.1 58.526 303.033 58.3727 302.9C58.2193 302.76 58.1427 302.577 58.1427 302.35C58.1427 302.123 58.2193 301.943 58.3727 301.81C58.526 301.67 58.726 301.6 58.9727 301.6C59.226 301.6 59.426 301.67 59.5727 301.81C59.726 301.943 59.8027 302.123 59.8027 302.35C59.8027 302.577 59.726 302.76 59.5727 302.9C59.426 303.033 59.226 303.1 58.9727 303.1ZM70.9748 303.1C70.5082 303.1 70.0982 303.003 69.7448 302.81C69.3982 302.61 69.1282 302.333 68.9348 301.98C68.7415 301.627 68.6448 301.217 68.6448 300.75C68.6448 300.383 68.6948 300.023 68.7948 299.67C68.9015 299.317 69.0582 298.977 69.2648 298.65L71.0948 295.7H72.0948L70.0248 299.02L70.0648 299.05C70.1915 298.863 70.3648 298.72 70.5848 298.62C70.8048 298.52 71.0515 298.47 71.3248 298.47C71.7248 298.47 72.0715 298.563 72.3648 298.75C72.6582 298.937 72.8848 299.2 73.0448 299.54C73.2048 299.88 73.2848 300.283 73.2848 300.75C73.2848 301.217 73.1882 301.627 72.9948 301.98C72.8015 302.333 72.5315 302.61 72.1848 302.81C71.8448 303.003 71.4415 303.1 70.9748 303.1ZM70.9648 302.3C71.3915 302.3 71.7348 302.16 71.9948 301.88C72.2548 301.593 72.3848 301.217 72.3848 300.75C72.3848 300.283 72.2548 299.91 71.9948 299.63C71.7348 299.343 71.3915 299.2 70.9648 299.2C70.5382 299.2 70.1948 299.343 69.9348 299.63C69.6748 299.91 69.5448 300.283 69.5448 300.75C69.5448 301.217 69.6748 301.593 69.9348 301.88C70.1948 302.16 70.5382 302.3 70.9648 302.3ZM74.8809 303V302.08L77.1109 299.71C77.4909 299.303 77.7676 298.943 77.9409 298.63C78.1143 298.31 78.2009 298.003 78.2009 297.71C78.2009 297.303 78.0876 296.983 77.8609 296.75C77.6409 296.517 77.3376 296.4 76.9509 296.4C76.5243 296.4 76.1876 296.52 75.9409 296.76C75.7009 297 75.5809 297.33 75.5809 297.75H74.6809C74.6943 297.31 74.7943 296.93 74.9809 296.61C75.1743 296.283 75.4376 296.033 75.7709 295.86C76.1109 295.687 76.5043 295.6 76.9509 295.6C77.3909 295.6 77.7709 295.687 78.0909 295.86C78.4176 296.027 78.6676 296.267 78.8409 296.58C79.0143 296.893 79.1009 297.267 79.1009 297.7C79.1009 298.113 78.9909 298.523 78.7709 298.93C78.5509 299.337 78.1909 299.8 77.6909 300.32L75.8909 302.18H79.2209V303H74.8809ZM81.607 304.6L82.407 301.49H83.707L82.407 304.6H81.607ZM88.9331 303.1C88.3398 303.1 87.8531 302.947 87.4731 302.64C87.0931 302.333 86.8698 301.92 86.8031 301.4H87.7031C87.7365 301.687 87.8598 301.91 88.0731 302.07C88.2865 302.223 88.5765 302.3 88.9431 302.3C89.3631 302.3 89.6765 302.187 89.8831 301.96C90.0965 301.733 90.2031 301.413 90.2031 301V300.29C90.2031 299.877 90.0965 299.557 89.8831 299.33C89.6765 299.103 89.3665 298.99 88.9531 298.99C88.6931 298.99 88.4665 299.06 88.2731 299.2C88.0798 299.333 87.9398 299.513 87.8531 299.74H86.9531L87.0031 295.7H90.8431V296.52H87.8731L87.8431 298.95H88.1231L87.8431 299.21C87.8431 298.897 87.9665 298.65 88.2131 298.47C88.4665 298.29 88.8031 298.2 89.2231 298.2C89.8165 298.193 90.2765 298.377 90.6031 298.75C90.9365 299.117 91.1031 299.63 91.1031 300.29V301C91.1031 301.647 90.9131 302.16 90.5331 302.54C90.1531 302.913 89.6198 303.1 88.9331 303.1ZM92.0892 303L97.0692 295.7H97.8092L92.8292 303H92.0892ZM96.3992 303.05C95.9792 303.05 95.6426 302.93 95.3892 302.69C95.1359 302.45 95.0092 302.12 95.0092 301.7V301.05C95.0092 300.63 95.1359 300.3 95.3892 300.06C95.6426 299.82 95.9792 299.7 96.3992 299.7C96.8192 299.7 97.1559 299.82 97.4092 300.06C97.6626 300.3 97.7892 300.63 97.7892 301.05V301.7C97.7892 302.12 97.6626 302.45 97.4092 302.69C97.1559 302.93 96.8192 303.05 96.3992 303.05ZM96.3992 302.36C96.8326 302.36 97.0492 302.14 97.0492 301.7V301.05C97.0492 300.603 96.8326 300.38 96.3992 300.38C95.9659 300.38 95.7492 300.603 95.7492 301.05V301.7C95.7492 302.14 95.9659 302.36 96.3992 302.36ZM93.4992 299C93.0792 299 92.7426 298.88 92.4892 298.64C92.2359 298.4 92.1092 298.07 92.1092 297.65V297C92.1092 296.58 92.2359 296.25 92.4892 296.01C92.7426 295.77 93.0792 295.65 93.4992 295.65C93.9192 295.65 94.2559 295.77 94.5092 296.01C94.7626 296.25 94.8892 296.58 94.8892 297V297.65C94.8892 298.07 94.7626 298.4 94.5092 298.64C94.2559 298.88 93.9192 299 93.4992 299ZM93.4992 298.32C93.9326 298.32 94.1492 298.097 94.1492 297.65V297C94.1492 296.553 93.9326 296.33 93.4992 296.33C93.2859 296.33 93.1226 296.387 93.0092 296.5C92.9026 296.607 92.8492 296.773 92.8492 297V297.65C92.8492 297.877 92.9026 298.047 93.0092 298.16C93.1226 298.267 93.2859 298.32 93.4992 298.32Z" fill="white"/>
<circle cx="4" cy="300" r="4" fill="#00A25E"/>
<path d="M17 330.1C16.56 330.1 16.18 330.017 15.86 329.85C15.5467 329.683 15.3033 329.443 15.13 329.13C14.9633 328.81 14.88 328.433 14.88 328V324.7C14.88 324.26 14.9633 323.883 15.13 323.57C15.3033 323.257 15.5467 323.017 15.86 322.85C16.18 322.683 16.56 322.6 17 322.6C17.44 322.6 17.8167 322.683 18.13 322.85C18.45 323.017 18.6933 323.257 18.86 323.57C19.0333 323.883 19.12 324.257 19.12 324.69V328C19.12 328.433 19.0333 328.81 18.86 329.13C18.6933 329.443 18.45 329.683 18.13 329.85C17.8167 330.017 17.44 330.1 17 330.1ZM17 329.29C17.3933 329.29 17.6933 329.18 17.9 328.96C18.1133 328.733 18.22 328.413 18.22 328V324.7C18.22 324.287 18.1133 323.97 17.9 323.75C17.6933 323.523 17.3933 323.41 17 323.41C16.6133 323.41 16.3133 323.523 16.1 323.75C15.8867 323.97 15.78 324.287 15.78 324.7V328C15.78 328.413 15.8867 328.733 16.1 328.96C16.3133 329.18 16.6133 329.29 17 329.29ZM23.5961 330C23.1228 330 22.7528 329.873 22.4861 329.62C22.2261 329.367 22.0961 329.01 22.0961 328.55V325.32H20.5461V324.5H22.0961V322.95H22.9961V324.5H25.1961V325.32H22.9961V328.55C22.9961 328.97 23.1961 329.18 23.5961 329.18H25.0961V330H23.5961ZM26.9122 330V322.7H27.8122V324.5V325.55H28.0022L27.8122 325.76C27.8122 325.327 27.9422 324.993 28.2022 324.76C28.4622 324.52 28.8222 324.4 29.2822 324.4C29.8355 324.4 30.2755 324.57 30.6022 324.91C30.9289 325.25 31.0922 325.713 31.0922 326.3V330H30.1922V326.4C30.1922 326.007 30.0855 325.703 29.8722 325.49C29.6655 325.27 29.3822 325.16 29.0222 325.16C28.6489 325.16 28.3522 325.277 28.1322 325.51C27.9189 325.743 27.8122 326.073 27.8122 326.5V330H26.9122ZM34.9883 330.1C34.5549 330.1 34.1749 330.013 33.8483 329.84C33.5283 329.667 33.2783 329.423 33.0983 329.11C32.9249 328.79 32.8383 328.42 32.8383 328V326.5C32.8383 326.073 32.9249 325.703 33.0983 325.39C33.2783 325.077 33.5283 324.833 33.8483 324.66C34.1749 324.487 34.5549 324.4 34.9883 324.4C35.4216 324.4 35.7983 324.487 36.1183 324.66C36.4449 324.833 36.6949 325.077 36.8683 325.39C37.0483 325.703 37.1383 326.073 37.1383 326.5V327.47H33.7183V328C33.7183 328.433 33.8283 328.767 34.0483 329C34.2683 329.227 34.5816 329.34 34.9883 329.34C35.3349 329.34 35.6149 329.28 35.8283 329.16C36.0416 329.033 36.1716 328.847 36.2183 328.6H37.1183C37.0583 329.06 36.8316 329.427 36.4383 329.7C36.0516 329.967 35.5683 330.1 34.9883 330.1ZM36.2583 326.87V326.5C36.2583 326.067 36.1483 325.733 35.9283 325.5C35.7149 325.267 35.4016 325.15 34.9883 325.15C34.5816 325.15 34.2683 325.267 34.0483 325.5C33.8283 325.733 33.7183 326.067 33.7183 326.5V326.79H36.3283L36.2583 326.87ZM39.0944 330V324.5H39.9744V325.55H40.1844L39.8944 326.2C39.8944 325.607 40.021 325.16 40.2744 324.86C40.5344 324.553 40.9177 324.4 41.4244 324.4C42.0044 324.4 42.4644 324.583 42.8044 324.95C43.151 325.31 43.3244 325.8 43.3244 326.42V326.75H42.4244V326.5C42.4244 326.067 42.3177 325.737 42.1044 325.51C41.8977 325.277 41.601 325.16 41.2144 325.16C40.8344 325.16 40.5344 325.277 40.3144 325.51C40.101 325.743 39.9944 326.073 39.9944 326.5V330H39.0944ZM46.8105 330.08C46.4371 330.08 46.1105 330.023 45.8305 329.91C45.5571 329.79 45.3371 329.623 45.1705 329.41C45.0105 329.197 44.9138 328.943 44.8805 328.65H45.7805C45.8205 328.843 45.9271 328.997 46.1005 329.11C46.2805 329.223 46.5171 329.28 46.8105 329.28H47.2305C47.5838 329.28 47.8471 329.21 48.0205 329.07C48.1938 328.923 48.2805 328.73 48.2805 328.49C48.2805 328.257 48.2005 328.073 48.0405 327.94C47.8871 327.8 47.6571 327.707 47.3505 327.66L46.6105 327.54C46.0705 327.447 45.6671 327.28 45.4005 327.04C45.1405 326.793 45.0105 326.437 45.0105 325.97C45.0105 325.477 45.1671 325.097 45.4805 324.83C45.7938 324.557 46.2638 324.42 46.8905 324.42H47.2705C47.7971 324.42 48.2205 324.543 48.5405 324.79C48.8605 325.037 49.0538 325.37 49.1205 325.79H48.2205C48.1805 325.617 48.0805 325.48 47.9205 325.38C47.7605 325.273 47.5438 325.22 47.2705 325.22H46.8905C46.5505 325.22 46.3005 325.283 46.1405 325.41C45.9871 325.537 45.9105 325.727 45.9105 325.98C45.9105 326.207 45.9771 326.373 46.1105 326.48C46.2438 326.587 46.4538 326.663 46.7405 326.71L47.4805 326.83C48.0738 326.923 48.5038 327.097 48.7705 327.35C49.0438 327.603 49.1805 327.97 49.1805 328.45C49.1805 328.957 49.0171 329.357 48.6905 329.65C48.3705 329.937 47.8838 330.08 47.2305 330.08H46.8105ZM56.9727 330V322.7H61.1727V323.52H57.8627V325.78H60.8227V326.59H57.8627V329.18H61.1727V330H56.9727ZM62.4688 330L64.4188 327.17L62.5888 324.5H63.6488L64.7388 326.2C64.7854 326.273 64.8288 326.353 64.8688 326.44C64.9154 326.527 64.9521 326.597 64.9788 326.65C64.9988 326.597 65.0288 326.527 65.0688 326.44C65.1154 326.353 65.1621 326.273 65.2088 326.2L66.3088 324.5H67.3588L65.5288 327.18L67.4688 330H66.4088L65.2288 328.2C65.1821 328.127 65.1354 328.043 65.0888 327.95C65.0488 327.85 65.0121 327.77 64.9788 327.71C64.9521 327.77 64.9121 327.85 64.8588 327.95C64.8121 328.043 64.7621 328.127 64.7088 328.2L63.5188 330H62.4688ZM71.0048 330.1C70.5648 330.1 70.1782 330.017 69.8448 329.85C69.5182 329.683 69.2648 329.443 69.0848 329.13C68.9048 328.81 68.8148 328.433 68.8148 328V326.5C68.8148 326.06 68.9048 325.683 69.0848 325.37C69.2648 325.057 69.5182 324.817 69.8448 324.65C70.1782 324.483 70.5648 324.4 71.0048 324.4C71.6382 324.4 72.1482 324.57 72.5348 324.91C72.9215 325.25 73.1248 325.713 73.1448 326.3H72.2448C72.2248 325.947 72.1048 325.677 71.8848 325.49C71.6715 325.297 71.3782 325.2 71.0048 325.2C70.6115 325.2 70.2982 325.313 70.0648 325.54C69.8315 325.76 69.7148 326.077 69.7148 326.49V328C69.7148 328.413 69.8315 328.733 70.0648 328.96C70.2982 329.187 70.6115 329.3 71.0048 329.3C71.3782 329.3 71.6715 329.203 71.8848 329.01C72.1048 328.817 72.2248 328.547 72.2448 328.2H73.1448C73.1248 328.787 72.9215 329.25 72.5348 329.59C72.1482 329.93 71.6382 330.1 71.0048 330.1ZM74.8809 330V322.7H75.7809V324.5V325.55H75.9709L75.7809 325.76C75.7809 325.327 75.9109 324.993 76.1709 324.76C76.4309 324.52 76.7909 324.4 77.2509 324.4C77.8043 324.4 78.2443 324.57 78.5709 324.91C78.8976 325.25 79.0609 325.713 79.0609 326.3V330H78.1609V326.4C78.1609 326.007 78.0543 325.703 77.8409 325.49C77.6343 325.27 77.3509 325.16 76.9909 325.16C76.6176 325.16 76.3209 325.277 76.1009 325.51C75.8876 325.743 75.7809 326.073 75.7809 326.5V330H74.8809ZM82.477 330.1C81.897 330.1 81.4404 329.953 81.107 329.66C80.7737 329.36 80.607 328.957 80.607 328.45C80.607 327.937 80.7737 327.533 81.107 327.24C81.4404 326.947 81.8904 326.8 82.457 326.8H84.157V326.25C84.157 325.91 84.0537 325.65 83.847 325.47C83.647 325.283 83.3604 325.19 82.987 325.19C82.6604 325.19 82.387 325.26 82.167 325.4C81.947 325.533 81.8204 325.717 81.787 325.95H80.887C80.947 325.477 81.1704 325.1 81.557 324.82C81.9437 324.54 82.427 324.4 83.007 324.4C83.6404 324.4 84.1404 324.563 84.507 324.89C84.8737 325.217 85.057 325.66 85.057 326.22V330H84.177V328.95H84.027L84.177 328.8C84.177 329.2 84.0204 329.517 83.707 329.75C83.4004 329.983 82.9904 330.1 82.477 330.1ZM82.697 329.39C83.1237 329.39 83.4737 329.283 83.747 329.07C84.0204 328.857 84.157 328.583 84.157 328.25V327.47H82.477C82.177 327.47 81.9404 327.553 81.767 327.72C81.5937 327.887 81.507 328.113 81.507 328.4C81.507 328.707 81.6104 328.95 81.817 329.13C82.0304 329.303 82.3237 329.39 82.697 329.39ZM86.8731 330V324.5H87.7731V325.55H87.9631L87.7731 325.76C87.7731 325.327 87.9031 324.993 88.1631 324.76C88.4231 324.52 88.7831 324.4 89.2431 324.4C89.7965 324.4 90.2365 324.57 90.5631 324.91C90.8898 325.25 91.0531 325.713 91.0531 326.3V330H90.1531V326.4C90.1531 326.007 90.0465 325.707 89.8331 325.5C89.6265 325.287 89.3431 325.18 88.9831 325.18C88.6098 325.18 88.3131 325.293 88.0931 325.52C87.8798 325.747 87.7731 326.073 87.7731 326.5V330H86.8731ZM93.5592 331.8V330.98H95.3092C95.5892 330.98 95.7926 330.917 95.9192 330.79C96.0526 330.663 96.1192 330.467 96.1192 330.2V329.5L96.1392 328.5H95.9592L96.1292 328.35C96.1292 328.75 95.9959 329.067 95.7292 329.3C95.4626 329.533 95.1059 329.65 94.6592 329.65C94.0926 329.65 93.6459 329.467 93.3192 329.1C92.9926 328.727 92.8292 328.227 92.8292 327.6V326.44C92.8292 325.813 92.9926 325.317 93.3192 324.95C93.6459 324.583 94.0926 324.4 94.6592 324.4C95.1059 324.4 95.4626 324.517 95.7292 324.75C95.9959 324.983 96.1292 325.3 96.1292 325.7L95.9592 325.55H96.1292V324.5H97.0192V330.2C97.0192 330.693 96.8659 331.083 96.5592 331.37C96.2592 331.657 95.8392 331.8 95.2992 331.8H93.5592ZM94.9292 328.87C95.3026 328.87 95.5959 328.753 95.8092 328.52C96.0226 328.287 96.1292 327.963 96.1292 327.55V326.5C96.1292 326.087 96.0226 325.763 95.8092 325.53C95.5959 325.297 95.3026 325.18 94.9292 325.18C94.5492 325.18 94.2526 325.293 94.0392 325.52C93.8326 325.747 93.7292 326.073 93.7292 326.5V327.55C93.7292 327.977 93.8326 328.303 94.0392 328.53C94.2526 328.757 94.5492 328.87 94.9292 328.87ZM100.945 330.1C100.512 330.1 100.132 330.013 99.8053 329.84C99.4853 329.667 99.2353 329.423 99.0553 329.11C98.882 328.79 98.7953 328.42 98.7953 328V326.5C98.7953 326.073 98.882 325.703 99.0553 325.39C99.2353 325.077 99.4853 324.833 99.8053 324.66C100.132 324.487 100.512 324.4 100.945 324.4C101.379 324.4 101.755 324.487 102.075 324.66C102.402 324.833 102.652 325.077 102.825 325.39C103.005 325.703 103.095 326.073 103.095 326.5V327.47H99.6753V328C99.6753 328.433 99.7853 328.767 100.005 329C100.225 329.227 100.539 329.34 100.945 329.34C101.292 329.34 101.572 329.28 101.785 329.16C101.999 329.033 102.129 328.847 102.175 328.6H103.075C103.015 329.06 102.789 329.427 102.395 329.7C102.009 329.967 101.525 330.1 100.945 330.1ZM102.215 326.87V326.5C102.215 326.067 102.105 325.733 101.885 325.5C101.672 325.267 101.359 325.15 100.945 325.15C100.539 325.15 100.225 325.267 100.005 325.5C99.7853 325.733 99.6753 326.067 99.6753 326.5V326.79H102.285L102.215 326.87ZM105.051 330V324.5H105.931V325.55H106.141L105.851 326.2C105.851 325.607 105.978 325.16 106.231 324.86C106.491 324.553 106.875 324.4 107.381 324.4C107.961 324.4 108.421 324.583 108.761 324.95C109.108 325.31 109.281 325.8 109.281 326.42V326.75H108.381V326.5C108.381 326.067 108.275 325.737 108.061 325.51C107.855 325.277 107.558 325.16 107.171 325.16C106.791 325.16 106.491 325.277 106.271 325.51C106.058 325.743 105.951 326.073 105.951 326.5V330H105.051ZM112.768 330.08C112.394 330.08 112.068 330.023 111.788 329.91C111.514 329.79 111.294 329.623 111.128 329.41C110.968 329.197 110.871 328.943 110.838 328.65H111.738C111.778 328.843 111.884 328.997 112.058 329.11C112.238 329.223 112.474 329.28 112.768 329.28H113.188C113.541 329.28 113.804 329.21 113.978 329.07C114.151 328.923 114.238 328.73 114.238 328.49C114.238 328.257 114.158 328.073 113.998 327.94C113.844 327.8 113.614 327.707 113.308 327.66L112.568 327.54C112.028 327.447 111.624 327.28 111.358 327.04C111.098 326.793 110.968 326.437 110.968 325.97C110.968 325.477 111.124 325.097 111.438 324.83C111.751 324.557 112.221 324.42 112.848 324.42H113.228C113.754 324.42 114.178 324.543 114.498 324.79C114.818 325.037 115.011 325.37 115.077 325.79H114.178C114.138 325.617 114.038 325.48 113.878 325.38C113.718 325.273 113.501 325.22 113.228 325.22H112.848C112.508 325.22 112.258 325.283 112.098 325.41C111.944 325.537 111.868 325.727 111.868 325.98C111.868 326.207 111.934 326.373 112.068 326.48C112.201 326.587 112.411 326.663 112.698 326.71L113.438 326.83C114.031 326.923 114.461 327.097 114.728 327.35C115.001 327.603 115.138 327.97 115.138 328.45C115.138 328.957 114.974 329.357 114.648 329.65C114.328 329.937 113.841 330.08 113.188 330.08H112.768ZM118.934 325.9C118.687 325.9 118.487 325.833 118.334 325.7C118.18 325.56 118.104 325.377 118.104 325.15C118.104 324.923 118.18 324.743 118.334 324.61C118.487 324.47 118.687 324.4 118.934 324.4C119.187 324.4 119.387 324.47 119.534 324.61C119.687 324.743 119.764 324.923 119.764 325.15C119.764 325.377 119.687 325.56 119.534 325.7C119.387 325.833 119.187 325.9 118.934 325.9ZM118.934 330.1C118.687 330.1 118.487 330.033 118.334 329.9C118.18 329.76 118.104 329.577 118.104 329.35C118.104 329.123 118.18 328.943 118.334 328.81C118.487 328.67 118.687 328.6 118.934 328.6C119.187 328.6 119.387 328.67 119.534 328.81C119.687 328.943 119.764 329.123 119.764 329.35C119.764 329.577 119.687 329.76 119.534 329.9C119.387 330.033 119.187 330.1 118.934 330.1ZM128.826 330V329.18H130.806V323.45L128.826 324.93V323.93L130.476 322.7H131.706V329.18H133.326V330H128.826ZM136.812 330.1C136.372 330.1 135.985 330.013 135.652 329.84C135.325 329.66 135.072 329.413 134.892 329.1C134.712 328.787 134.622 328.42 134.622 328H135.522C135.522 328.407 135.635 328.727 135.862 328.96C136.095 329.187 136.415 329.3 136.822 329.3C137.235 329.3 137.555 329.18 137.782 328.94C138.009 328.7 138.122 328.387 138.122 328V327.48C138.122 327.067 138.009 326.747 137.782 326.52C137.555 326.293 137.235 326.18 136.822 326.18H136.072V325.28L137.882 323.52H134.922V322.7H138.792V323.6L136.842 325.49V325.38C137.509 325.38 138.039 325.57 138.432 325.95C138.825 326.33 139.022 326.84 139.022 327.48V328C139.022 328.42 138.929 328.787 138.742 329.1C138.562 329.413 138.305 329.66 137.972 329.84C137.639 330.013 137.252 330.1 136.812 330.1ZM140.058 330L145.038 322.7H145.778L140.798 330H140.058ZM144.368 330.05C143.948 330.05 143.611 329.93 143.358 329.69C143.105 329.45 142.978 329.12 142.978 328.7V328.05C142.978 327.63 143.105 327.3 143.358 327.06C143.611 326.82 143.948 326.7 144.368 326.7C144.788 326.7 145.125 326.82 145.378 327.06C145.631 327.3 145.758 327.63 145.758 328.05V328.7C145.758 329.12 145.631 329.45 145.378 329.69C145.125 329.93 144.788 330.05 144.368 330.05ZM144.368 329.36C144.801 329.36 145.018 329.14 145.018 328.7V328.05C145.018 327.603 144.801 327.38 144.368 327.38C143.935 327.38 143.718 327.603 143.718 328.05V328.7C143.718 329.14 143.935 329.36 144.368 329.36ZM141.468 326C141.048 326 140.711 325.88 140.458 325.64C140.205 325.4 140.078 325.07 140.078 324.65V324C140.078 323.58 140.205 323.25 140.458 323.01C140.711 322.77 141.048 322.65 141.468 322.65C141.888 322.65 142.225 322.77 142.478 323.01C142.731 323.25 142.858 323.58 142.858 324V324.65C142.858 325.07 142.731 325.4 142.478 325.64C142.225 325.88 141.888 326 141.468 326ZM141.468 325.32C141.901 325.32 142.118 325.097 142.118 324.65V324C142.118 323.553 141.901 323.33 141.468 323.33C141.255 323.33 141.091 323.387 140.978 323.5C140.871 323.607 140.818 323.773 140.818 324V324.65C140.818 324.877 140.871 325.047 140.978 325.16C141.091 325.267 141.255 325.32 141.468 325.32Z" fill="white"/>
<circle cx="4" cy="327" r="4" fill="#0053F3"/>
<path d="M14.9 357V349.7H16.1L18.33 355.95C18.3167 355.783 18.3 355.58 18.28 355.34C18.2667 355.093 18.2533 354.837 18.24 354.57C18.2333 354.297 18.23 354.04 18.23 353.8V349.7H19.1V357H17.9L15.68 350.75C15.6933 350.91 15.7067 351.113 15.72 351.36C15.7333 351.6 15.7433 351.857 15.75 352.13C15.7633 352.397 15.77 352.653 15.77 352.9V357H14.9ZM22.9961 357.08C22.5561 357.08 22.1761 356.997 21.8561 356.83C21.5361 356.663 21.2861 356.423 21.1061 356.11C20.9328 355.79 20.8461 355.413 20.8461 354.98V353.52C20.8461 353.08 20.9328 352.703 21.1061 352.39C21.2861 352.077 21.5361 351.837 21.8561 351.67C22.1761 351.503 22.5561 351.42 22.9961 351.42C23.4361 351.42 23.8161 351.503 24.1361 351.67C24.4561 351.837 24.7028 352.077 24.8761 352.39C25.0561 352.703 25.1461 353.077 25.1461 353.51V354.98C25.1461 355.413 25.0561 355.79 24.8761 356.11C24.7028 356.423 24.4561 356.663 24.1361 356.83C23.8161 356.997 23.4361 357.08 22.9961 357.08ZM22.9961 356.28C23.3894 356.28 23.6961 356.17 23.9161 355.95C24.1361 355.73 24.2461 355.407 24.2461 354.98V353.52C24.2461 353.093 24.1361 352.77 23.9161 352.55C23.6961 352.33 23.3894 352.22 22.9961 352.22C22.6094 352.22 22.3028 352.33 22.0761 352.55C21.8561 352.77 21.7461 353.093 21.7461 353.52V354.98C21.7461 355.407 21.8561 355.73 22.0761 355.95C22.3028 356.17 22.6094 356.28 22.9961 356.28ZM29.5922 357C29.1189 357 28.7489 356.873 28.4822 356.62C28.2222 356.367 28.0922 356.01 28.0922 355.55V352.32H26.5422V351.5H28.0922V349.95H28.9922V351.5H31.1922V352.32H28.9922V355.55C28.9922 355.97 29.1922 356.18 29.5922 356.18H31.0922V357H29.5922ZM35.0283 357.1C34.5883 357.1 34.2049 357.017 33.8783 356.85C33.5583 356.683 33.3083 356.443 33.1283 356.13C32.9549 355.81 32.8683 355.433 32.8683 355V351.7C32.8683 351.26 32.9549 350.883 33.1283 350.57C33.3083 350.257 33.5583 350.017 33.8783 349.85C34.2049 349.683 34.5883 349.6 35.0283 349.6C35.4683 349.6 35.8483 349.687 36.1683 349.86C36.4883 350.027 36.7349 350.267 36.9083 350.58C37.0816 350.893 37.1683 351.267 37.1683 351.7H36.2683C36.2683 351.287 36.1583 350.97 35.9383 350.75C35.7249 350.523 35.4216 350.41 35.0283 350.41C34.6349 350.41 34.3249 350.52 34.0983 350.74C33.8783 350.96 33.7683 351.277 33.7683 351.69V355C33.7683 355.413 33.8783 355.733 34.0983 355.96C34.3249 356.18 34.6349 356.29 35.0283 356.29C35.4216 356.29 35.7249 356.18 35.9383 355.96C36.1583 355.733 36.2683 355.413 36.2683 355H37.1683C37.1683 355.427 37.0816 355.8 36.9083 356.12C36.7349 356.433 36.4883 356.677 36.1683 356.85C35.8483 357.017 35.4683 357.1 35.0283 357.1ZM40.9844 357.08C40.5444 357.08 40.1644 356.997 39.8444 356.83C39.5244 356.663 39.2744 356.423 39.0944 356.11C38.921 355.79 38.8344 355.413 38.8344 354.98V353.52C38.8344 353.08 38.921 352.703 39.0944 352.39C39.2744 352.077 39.5244 351.837 39.8444 351.67C40.1644 351.503 40.5444 351.42 40.9844 351.42C41.4244 351.42 41.8044 351.503 42.1244 351.67C42.4444 351.837 42.691 352.077 42.8644 352.39C43.0444 352.703 43.1344 353.077 43.1344 353.51V354.98C43.1344 355.413 43.0444 355.79 42.8644 356.11C42.691 356.423 42.4444 356.663 42.1244 356.83C41.8044 356.997 41.4244 357.08 40.9844 357.08ZM40.9844 356.28C41.3777 356.28 41.6844 356.17 41.9044 355.95C42.1244 355.73 42.2344 355.407 42.2344 354.98V353.52C42.2344 353.093 42.1244 352.77 41.9044 352.55C41.6844 352.33 41.3777 352.22 40.9844 352.22C40.5977 352.22 40.291 352.33 40.0644 352.55C39.8444 352.77 39.7344 353.093 39.7344 353.52V354.98C39.7344 355.407 39.8444 355.73 40.0644 355.95C40.291 356.17 40.5977 356.28 40.9844 356.28ZM44.8305 357V356.18H46.7805V352.32H45.0805V351.5H47.6805V356.18H49.5305V357H44.8305ZM47.1305 350.51C46.9105 350.51 46.7371 350.453 46.6105 350.34C46.4838 350.227 46.4205 350.073 46.4205 349.88C46.4205 349.68 46.4838 349.523 46.6105 349.41C46.7371 349.29 46.9105 349.23 47.1305 349.23C47.3505 349.23 47.5238 349.29 47.6505 349.41C47.7771 349.523 47.8405 349.68 47.8405 349.88C47.8405 350.073 47.7771 350.227 47.6505 350.34C47.5238 350.453 47.3505 350.51 47.1305 350.51ZM50.8966 357V351.5H51.7966V352.55H51.9866L51.7966 352.76C51.7966 352.327 51.9266 351.993 52.1866 351.76C52.4466 351.52 52.8066 351.4 53.2666 351.4C53.8199 351.4 54.2599 351.57 54.5866 351.91C54.9132 352.25 55.0766 352.713 55.0766 353.3V357H54.1766V353.4C54.1766 353.007 54.0699 352.707 53.8566 352.5C53.6499 352.287 53.3666 352.18 53.0066 352.18C52.6332 352.18 52.3366 352.293 52.1166 352.52C51.9032 352.747 51.7966 353.073 51.7966 353.5V357H50.8966ZM62.9188 357V349.69H67.2188V350.51H63.7988V352.94H66.9588V353.76H63.8188V357H62.9188ZM70.9648 357.08C70.5248 357.08 70.1448 356.997 69.8248 356.83C69.5048 356.663 69.2548 356.423 69.0748 356.11C68.9015 355.79 68.8148 355.413 68.8148 354.98V353.52C68.8148 353.08 68.9015 352.703 69.0748 352.39C69.2548 352.077 69.5048 351.837 69.8248 351.67C70.1448 351.503 70.5248 351.42 70.9648 351.42C71.4048 351.42 71.7848 351.503 72.1048 351.67C72.4248 351.837 72.6715 352.077 72.8448 352.39C73.0248 352.703 73.1148 353.077 73.1148 353.51V354.98C73.1148 355.413 73.0248 355.79 72.8448 356.11C72.6715 356.423 72.4248 356.663 72.1048 356.83C71.7848 356.997 71.4048 357.08 70.9648 357.08ZM70.9648 356.28C71.3582 356.28 71.6648 356.17 71.8848 355.95C72.1048 355.73 72.2148 355.407 72.2148 354.98V353.52C72.2148 353.093 72.1048 352.77 71.8848 352.55C71.6648 352.33 71.3582 352.22 70.9648 352.22C70.5782 352.22 70.2715 352.33 70.0448 352.55C69.8248 352.77 69.7148 353.093 69.7148 353.52V354.98C69.7148 355.407 69.8248 355.73 70.0448 355.95C70.2715 356.17 70.5782 356.28 70.9648 356.28ZM76.9509 357.1C76.3176 357.1 75.8109 356.913 75.4309 356.54C75.0509 356.16 74.8609 355.647 74.8609 355V351.5H75.7609V355C75.7609 355.413 75.8676 355.737 76.0809 355.97C76.2943 356.197 76.5843 356.31 76.9509 356.31C77.3243 356.31 77.6176 356.197 77.8309 355.97C78.0509 355.737 78.1609 355.413 78.1609 355V351.5H79.0609V355C79.0609 355.647 78.8676 356.16 78.4809 356.54C78.0943 356.913 77.5843 357.1 76.9509 357.1ZM80.877 357V351.5H81.777V352.55H81.967L81.777 352.76C81.777 352.327 81.907 351.993 82.167 351.76C82.427 351.52 82.787 351.4 83.247 351.4C83.8004 351.4 84.2404 351.57 84.567 351.91C84.8937 352.25 85.057 352.713 85.057 353.3V357H84.157V353.4C84.157 353.007 84.0504 352.707 83.837 352.5C83.6304 352.287 83.347 352.18 82.987 352.18C82.6137 352.18 82.317 352.293 82.097 352.52C81.8837 352.747 81.777 353.073 81.777 353.5V357H80.877ZM88.6331 357.1C88.0865 357.1 87.6431 356.917 87.3031 356.55C86.9698 356.183 86.8031 355.687 86.8031 355.06V353.45C86.8031 352.817 86.9698 352.317 87.3031 351.95C87.6365 351.583 88.0798 351.4 88.6331 351.4C89.0865 351.4 89.4498 351.523 89.7231 351.77C89.9965 352.017 90.1331 352.347 90.1331 352.76L89.9531 352.55H90.1531L90.1331 351.3V349.7H91.0331V357H90.1331V355.95H89.9531L90.1331 355.74C90.1331 356.16 89.9965 356.493 89.7231 356.74C89.4498 356.98 89.0865 357.1 88.6331 357.1ZM88.9331 356.32C89.3065 356.32 89.5998 356.203 89.8131 355.97C90.0265 355.737 90.1331 355.413 90.1331 355V353.5C90.1331 353.087 90.0265 352.763 89.8131 352.53C89.5998 352.297 89.3065 352.18 88.9331 352.18C88.5531 352.18 88.2531 352.293 88.0331 352.52C87.8131 352.747 87.7031 353.073 87.7031 353.5V355C87.7031 355.427 87.8131 355.753 88.0331 355.98C88.2531 356.207 88.5531 356.32 88.9331 356.32ZM94.4692 357.1C93.8892 357.1 93.4326 356.953 93.0992 356.66C92.7659 356.36 92.5992 355.957 92.5992 355.45C92.5992 354.937 92.7659 354.533 93.0992 354.24C93.4326 353.947 93.8826 353.8 94.4492 353.8H96.1492V353.25C96.1492 352.91 96.0459 352.65 95.8392 352.47C95.6392 352.283 95.3526 352.19 94.9792 352.19C94.6526 352.19 94.3792 352.26 94.1592 352.4C93.9392 352.533 93.8126 352.717 93.7792 352.95H92.8792C92.9392 352.477 93.1626 352.1 93.5492 351.82C93.9359 351.54 94.4192 351.4 94.9992 351.4C95.6326 351.4 96.1326 351.563 96.4992 351.89C96.8659 352.217 97.0492 352.66 97.0492 353.22V357H96.1692V355.95H96.0192L96.1692 355.8C96.1692 356.2 96.0126 356.517 95.6992 356.75C95.3926 356.983 94.9826 357.1 94.4692 357.1ZM94.6892 356.39C95.1159 356.39 95.4659 356.283 95.7392 356.07C96.0126 355.857 96.1492 355.583 96.1492 355.25V354.47H94.4692C94.1692 354.47 93.9326 354.553 93.7592 354.72C93.5859 354.887 93.4992 355.113 93.4992 355.4C93.4992 355.707 93.6026 355.95 93.8092 356.13C94.0226 356.303 94.3159 356.39 94.6892 356.39ZM101.545 357C101.072 357 100.702 356.873 100.435 356.62C100.175 356.367 100.045 356.01 100.045 355.55V352.32H98.4953V351.5H100.045V349.95H100.945V351.5H103.145V352.32H100.945V355.55C100.945 355.97 101.145 356.18 101.545 356.18H103.045V357H101.545ZM104.791 357V356.18H106.741V352.32H105.041V351.5H107.641V356.18H109.491V357H104.791ZM107.091 350.51C106.871 350.51 106.698 350.453 106.571 350.34C106.445 350.227 106.381 350.073 106.381 349.88C106.381 349.68 106.445 349.523 106.571 349.41C106.698 349.29 106.871 349.23 107.091 349.23C107.311 349.23 107.485 349.29 107.611 349.41C107.738 349.523 107.801 349.68 107.801 349.88C107.801 350.073 107.738 350.227 107.611 350.34C107.485 350.453 107.311 350.51 107.091 350.51ZM112.938 357.08C112.498 357.08 112.118 356.997 111.798 356.83C111.478 356.663 111.228 356.423 111.048 356.11C110.874 355.79 110.788 355.413 110.788 354.98V353.52C110.788 353.08 110.874 352.703 111.048 352.39C111.228 352.077 111.478 351.837 111.798 351.67C112.118 351.503 112.498 351.42 112.938 351.42C113.378 351.42 113.758 351.503 114.078 351.67C114.398 351.837 114.644 352.077 114.818 352.39C114.998 352.703 115.088 353.077 115.088 353.51V354.98C115.088 355.413 114.998 355.79 114.818 356.11C114.644 356.423 114.398 356.663 114.078 356.83C113.758 356.997 113.378 357.08 112.938 357.08ZM112.938 356.28C113.331 356.28 113.638 356.17 113.858 355.95C114.078 355.73 114.188 355.407 114.188 354.98V353.52C114.188 353.093 114.078 352.77 113.858 352.55C113.638 352.33 113.331 352.22 112.938 352.22C112.551 352.22 112.244 352.33 112.018 352.55C111.798 352.77 111.688 353.093 111.688 353.52V354.98C111.688 355.407 111.798 355.73 112.018 355.95C112.244 356.17 112.551 356.28 112.938 356.28ZM116.854 357V351.5H117.754V352.55H117.944L117.754 352.76C117.754 352.327 117.884 351.993 118.144 351.76C118.404 351.52 118.764 351.4 119.224 351.4C119.777 351.4 120.217 351.57 120.544 351.91C120.87 352.25 121.034 352.713 121.034 353.3V357H120.134V353.4C120.134 353.007 120.027 352.707 119.814 352.5C119.607 352.287 119.324 352.18 118.964 352.18C118.59 352.18 118.294 352.293 118.074 352.52C117.86 352.747 117.754 353.073 117.754 353.5V357H116.854ZM124.93 352.9C124.683 352.9 124.483 352.833 124.33 352.7C124.176 352.56 124.1 352.377 124.1 352.15C124.1 351.923 124.176 351.743 124.33 351.61C124.483 351.47 124.683 351.4 124.93 351.4C125.183 351.4 125.383 351.47 125.53 351.61C125.683 351.743 125.76 351.923 125.76 352.15C125.76 352.377 125.683 352.56 125.53 352.7C125.383 352.833 125.183 352.9 124.93 352.9ZM124.93 357.1C124.683 357.1 124.483 357.033 124.33 356.9C124.176 356.76 124.1 356.577 124.1 356.35C124.1 356.123 124.176 355.943 124.33 355.81C124.483 355.67 124.683 355.6 124.93 355.6C125.183 355.6 125.383 355.67 125.53 355.81C125.683 355.943 125.76 356.123 125.76 356.35C125.76 356.577 125.683 356.76 125.53 356.9C125.383 357.033 125.183 357.1 124.93 357.1ZM134.842 357V356.08L137.072 353.71C137.452 353.303 137.729 352.943 137.902 352.63C138.075 352.31 138.162 352.003 138.162 351.71C138.162 351.303 138.049 350.983 137.822 350.75C137.602 350.517 137.299 350.4 136.912 350.4C136.485 350.4 136.149 350.52 135.902 350.76C135.662 351 135.542 351.33 135.542 351.75H134.642C134.655 351.31 134.755 350.93 134.942 350.61C135.135 350.283 135.399 350.033 135.732 349.86C136.072 349.687 136.465 349.6 136.912 349.6C137.352 349.6 137.732 349.687 138.052 349.86C138.379 350.027 138.629 350.267 138.802 350.58C138.975 350.893 139.062 351.267 139.062 351.7C139.062 352.113 138.952 352.523 138.732 352.93C138.512 353.337 138.152 353.8 137.652 354.32L135.852 356.18H139.182V357H134.842ZM140.838 357V356.08L143.068 353.71C143.448 353.303 143.725 352.943 143.898 352.63C144.071 352.31 144.158 352.003 144.158 351.71C144.158 351.303 144.045 350.983 143.818 350.75C143.598 350.517 143.295 350.4 142.908 350.4C142.481 350.4 142.145 350.52 141.898 350.76C141.658 351 141.538 351.33 141.538 351.75H140.638C140.651 351.31 140.751 350.93 140.938 350.61C141.131 350.283 141.395 350.033 141.728 349.86C142.068 349.687 142.461 349.6 142.908 349.6C143.348 349.6 143.728 349.687 144.048 349.86C144.375 350.027 144.625 350.267 144.798 350.58C144.971 350.893 145.058 351.267 145.058 351.7C145.058 352.113 144.948 352.523 144.728 352.93C144.508 353.337 144.148 353.8 143.648 354.32L141.848 356.18H145.178V357H140.838ZM147.564 358.6L148.364 355.49H149.664L148.364 358.6H147.564ZM154.89 357.1C154.297 357.1 153.81 356.947 153.43 356.64C153.05 356.333 152.827 355.92 152.76 355.4H153.66C153.693 355.687 153.817 355.91 154.03 356.07C154.243 356.223 154.533 356.3 154.9 356.3C155.32 356.3 155.633 356.187 155.84 355.96C156.053 355.733 156.16 355.413 156.16 355V354.29C156.16 353.877 156.053 353.557 155.84 353.33C155.633 353.103 155.323 352.99 154.91 352.99C154.65 352.99 154.423 353.06 154.23 353.2C154.037 353.333 153.897 353.513 153.81 353.74H152.91L152.96 349.7H156.8V350.52H153.83L153.8 352.95H154.08L153.8 353.21C153.8 352.897 153.923 352.65 154.17 352.47C154.423 352.29 154.76 352.2 155.18 352.2C155.773 352.193 156.233 352.377 156.56 352.75C156.893 353.117 157.06 353.63 157.06 354.29V355C157.06 355.647 156.87 356.16 156.49 356.54C156.11 356.913 155.577 357.1 154.89 357.1ZM158.046 357L163.026 349.7H163.766L158.786 357H158.046ZM162.356 357.05C161.936 357.05 161.6 356.93 161.346 356.69C161.093 356.45 160.966 356.12 160.966 355.7V355.05C160.966 354.63 161.093 354.3 161.346 354.06C161.6 353.82 161.936 353.7 162.356 353.7C162.776 353.7 163.113 353.82 163.366 354.06C163.62 354.3 163.746 354.63 163.746 355.05V355.7C163.746 356.12 163.62 356.45 163.366 356.69C163.113 356.93 162.776 357.05 162.356 357.05ZM162.356 356.36C162.79 356.36 163.006 356.14 163.006 355.7V355.05C163.006 354.603 162.79 354.38 162.356 354.38C161.923 354.38 161.706 354.603 161.706 355.05V355.7C161.706 356.14 161.923 356.36 162.356 356.36ZM159.456 353C159.036 353 158.7 352.88 158.446 352.64C158.193 352.4 158.066 352.07 158.066 351.65V351C158.066 350.58 158.193 350.25 158.446 350.01C158.7 349.77 159.036 349.65 159.456 349.65C159.876 349.65 160.213 349.77 160.466 350.01C160.72 350.25 160.846 350.58 160.846 351V351.65C160.846 352.07 160.72 352.4 160.466 352.64C160.213 352.88 159.876 353 159.456 353ZM159.456 352.32C159.89 352.32 160.106 352.097 160.106 351.65V351C160.106 350.553 159.89 350.33 159.456 350.33C159.243 350.33 159.08 350.387 158.966 350.5C158.86 350.607 158.806 350.773 158.806 351V351.65C158.806 351.877 158.86 352.047 158.966 352.16C159.08 352.267 159.243 352.32 159.456 352.32Z" fill="white"/>
<circle cx="4" cy="354" r="4" fill="#035432"/>
</svg>
