<svg width="25" height="25" viewBox="0 0 25 25" fill="none" xmlns="http://www.w3.org/2000/svg">
<path d="M20.9413 0L4.05777 0C0.953489 0 -1.01408 3.3485 0.547684 6.05547L10.9676 24.1156C11.6475 25.2948 13.3515 25.2948 14.0315 24.1156L24.4535 6.05547C26.0131 3.35283 24.0456 0 20.9434 0L20.9413 0ZM10.9591 18.6996L8.68981 14.3078L3.21428 4.51503C2.85307 3.88824 3.29922 3.08504 4.05565 3.08504H10.957V18.7017L10.9591 18.6996ZM21.7805 4.51291L16.3071 14.31L14.0378 18.6996V3.08292H20.9392C21.6956 3.08292 22.1417 3.88612 21.7805 4.51291Z" fill="white"/>
<path d="M4.05872 25L20.9422 25C24.0465 25 26.0141 21.6515 24.4523 18.9445L14.0324 0.88443C13.3525 -0.294807 11.6485 -0.294807 10.9685 0.88443L0.54652 18.9445C-1.01312 21.6472 0.954445 25 4.0566 25H4.05872ZM14.0409 6.30039L16.3102 10.6922L21.7857 20.485C22.1469 21.1118 21.7008 21.915 20.9444 21.915H14.043L14.043 6.29827L14.0409 6.30039ZM3.21948 20.4871L8.69289 10.69L10.9622 6.30039L10.9622 21.9171L4.06084 21.9171C3.30442 21.9171 2.85826 21.1139 3.21948 20.4871Z" fill="white"/>
</svg>
