<svg width="375" height="542" viewBox="0 0 375 542" fill="none" xmlns="http://www.w3.org/2000/svg">
<path d="M-1 540.5L5.65205 536.065C6.19169 535.706 6.55288 535.133 6.64543 534.491L50.1005 233.094C50.4222 230.863 53.4391 230.398 54.4175 232.429L61.05 246.196C61.229 246.567 61.5053 246.883 61.8496 247.111L68.882 251.75C69.831 252.377 71.0961 252.209 71.8495 251.358L77.3709 245.117C78.4515 243.896 80.4273 244.168 81.1368 245.637L87.4413 258.684C87.8526 259.535 88.7457 260.045 89.6876 259.966L105.792 258.618C106.471 258.561 107.139 258.81 107.615 259.297L117.639 269.544C118.592 270.518 120.18 270.446 121.041 269.39L130.636 257.618C130.885 257.314 131.207 257.078 131.573 256.935L148.51 250.299C149.206 250.027 149.724 249.431 149.898 248.704L157.518 216.857C157.672 216.215 158.096 215.671 158.682 215.365L170.924 208.97C171.432 208.704 171.822 208.257 172.016 207.717L176.628 194.867C177.342 192.879 180.14 192.842 180.905 194.811L192.842 225.509C193.35 226.815 194.904 227.36 196.116 226.656L213.855 216.36C214.418 216.033 214.815 215.482 214.945 214.844L228.17 150.366C228.447 149.013 229.853 148.214 231.157 148.668L240.585 151.952C241.739 152.354 243.004 151.776 243.457 150.641L252.961 126.81C253.577 125.266 255.582 124.876 256.731 126.077L261.027 130.565C262.2 131.791 264.253 131.354 264.826 129.758L265.372 128.236C266.034 126.392 268.559 126.183 269.515 127.895L280.385 147.364C281.413 149.205 284.173 148.788 284.612 146.726L296.609 90.322C296.942 88.753 298.747 88.0082 300.09 88.8852L314.045 97.9975C315.081 98.6741 316.468 98.4021 317.172 97.384L330.343 78.3297C330.769 77.7129 331.472 77.3447 332.221 77.3447H351.241C352.332 77.3447 353.27 78.1163 353.481 79.1866L359.144 107.924C359.622 110.351 363.081 110.39 363.614 107.974L378.5 40.5" stroke="#00A25E" stroke-width="2.28329" stroke-linecap="round"/>
</svg>
